<ttFont>
    <TTGlyph name="A" xMin="-7" yMin="-127" xMax="1213" yMax="818">
      <contour>
        <pt x="1012" y="818" on="1"/>
        <pt x="1020" y="818" on="0"/>
        <pt x="1028" y="808" on="0"/>
        <pt x="1029" y="799" on="1"/>
        <pt x="925" y="799" on="0"/>
        <pt x="847" y="696" on="1"/>
        <pt x="899" y="677" on="0"/>
        <pt x="948" y="666" on="1"/>
        <pt x="1002" y="736" on="0"/>
        <pt x="1047" y="736" on="1"/>
        <pt x="1057" y="736" on="0"/>
        <pt x="1071" y="725" on="0"/>
        <pt x="1074" y="714" on="1"/>
        <pt x="1035" y="714" on="0"/>
        <pt x="993" y="659" on="1"/>
        <pt x="1000" y="658" on="0"/>
        <pt x="1014" y="658" on="1"/>
        <pt x="1113" y="658" on="0"/>
        <pt x="1153" y="717" on="1"/>
        <pt x="1170" y="740" on="0"/>
        <pt x="1170" y="756" on="1"/>
        <pt x="1170" y="801" on="0"/>
        <pt x="1130" y="801" on="1"/>
        <pt x="1139" y="815" on="0"/>
        <pt x="1159" y="815" on="1"/>
        <pt x="1198" y="815" on="0"/>
        <pt x="1210" y="776" on="1"/>
        <pt x="1213" y="764" on="0"/>
        <pt x="1213" y="753" on="1"/>
        <pt x="1213" y="720" on="0"/>
        <pt x="1185" y="688" on="1"/>
        <pt x="1136" y="634" on="0"/>
        <pt x="1034" y="634" on="1"/>
        <pt x="1004" y="634" on="0"/>
        <pt x="980" y="638" on="1"/>
        <pt x="913" y="531" on="0"/>
        <pt x="872" y="334" on="1"/>
        <pt x="843" y="197" on="0"/>
        <pt x="843" y="104" on="1"/>
        <pt x="843" y="64" on="0"/>
        <pt x="848" y="32" on="1"/>
        <pt x="905" y="76" on="0"/>
        <pt x="1009" y="210" on="0"/>
        <pt x="1032" y="255" on="1"/>
        <pt x="1055" y="300" on="1"/>
        <pt x="1082" y="300" on="1"/>
        <pt x="1074" y="279" on="0"/>
        <pt x="1021" y="188" on="0"/>
        <pt x="972" y="119" on="0"/>
        <pt x="894" y="35" on="0"/>
        <pt x="854" y="6" on="1"/>
        <pt x="867" y="-32" on="0"/>
        <pt x="891" y="-32" on="1"/>
        <pt x="881" y="-52" on="0"/>
        <pt x="862" y="-52" on="1"/>
        <pt x="830" y="-52" on="0"/>
        <pt x="809" y="-22" on="1"/>
        <pt x="737" y="-59" on="0"/>
        <pt x="669" y="-59" on="1"/>
        <pt x="570" y="-59" on="0"/>
        <pt x="498" y="-7" on="1"/>
        <pt x="393" y="-127" on="0"/>
        <pt x="97" y="-127" on="0"/>
        <pt x="30" y="-22" on="1"/>
        <pt x="-7" y="37" on="0"/>
        <pt x="-7" y="105" on="1"/>
        <pt x="-7" y="133" on="0"/>
        <pt x="-1" y="162" on="1"/>
        <pt x="20" y="259" on="0"/>
        <pt x="94" y="300" on="1"/>
        <pt x="133" y="322" on="0"/>
        <pt x="181" y="322" on="1"/>
        <pt x="284" y="322" on="0"/>
        <pt x="320" y="242" on="1"/>
        <pt x="335" y="209" on="0"/>
        <pt x="335" y="140" on="0"/>
        <pt x="321" y="105" on="1"/>
        <pt x="287" y="21" on="0"/>
        <pt x="210" y="21" on="1"/>
        <pt x="198" y="21" on="0"/>
        <pt x="182" y="32" on="0"/>
        <pt x="178" y="43" on="1"/>
        <pt x="205" y="43" on="0"/>
        <pt x="229" y="57" on="1"/>
        <pt x="269" y="81" on="0"/>
        <pt x="292" y="144" on="1"/>
        <pt x="298" y="165" on="0"/>
        <pt x="298" y="192" on="0"/>
        <pt x="294" y="227" on="0"/>
        <pt x="272" y="273" on="0"/>
        <pt x="218" y="301" on="0"/>
        <pt x="181" y="301" on="1"/>
        <pt x="86" y="301" on="0"/>
        <pt x="41" y="217" on="1"/>
        <pt x="15" y="169" on="0"/>
        <pt x="15" y="83" on="0"/>
        <pt x="24" y="49" on="1"/>
        <pt x="50" y="-46" on="0"/>
        <pt x="133" y="-82" on="1"/>
        <pt x="172" y="-99" on="0"/>
        <pt x="219" y="-99" on="1"/>
        <pt x="354" y="-99" on="0"/>
        <pt x="463" y="23" on="1"/>
        <pt x="415" y="74" on="0"/>
        <pt x="397" y="146" on="1"/>
        <pt x="386" y="188" on="0"/>
        <pt x="386" y="221" on="1"/>
        <pt x="386" y="325" on="0"/>
        <pt x="446" y="386" on="1"/>
        <pt x="490" y="430" on="0"/>
        <pt x="617" y="430" on="0"/>
        <pt x="668" y="399" on="1"/>
        <pt x="757" y="606" on="0"/>
        <pt x="812" y="686" on="1"/>
        <pt x="805" y="688" on="0"/>
        <pt x="716" y="722" on="0"/>
        <pt x="704" y="726" on="1"/>
        <pt x="656" y="742" on="1"/>
        <pt x="572" y="770" on="0"/>
        <pt x="508" y="770" on="1"/>
        <pt x="378" y="770" on="0"/>
        <pt x="316" y="672" on="1"/>
        <pt x="280" y="617" on="0"/>
        <pt x="280" y="558" on="1"/>
        <pt x="280" y="541" on="0"/>
        <pt x="284" y="523" on="1"/>
        <pt x="295" y="458" on="0"/>
        <pt x="342" y="445" on="1"/>
        <pt x="351" y="442" on="0"/>
        <pt x="361" y="442" on="1"/>
        <pt x="355" y="420" on="0"/>
        <pt x="328" y="420" on="1"/>
        <pt x="267" y="420" on="0"/>
        <pt x="242" y="485" on="1"/>
        <pt x="230" y="516" on="0"/>
        <pt x="230" y="592" on="0"/>
        <pt x="250" y="639" on="1"/>
        <pt x="292" y="740" on="0"/>
        <pt x="398" y="777" on="1"/>
        <pt x="448" y="794" on="0"/>
        <pt x="535" y="794" on="0"/>
        <pt x="592" y="785" on="0"/>
        <pt x="672" y="760" on="0"/>
        <pt x="709" y="748" on="0"/>
        <pt x="816" y="707" on="0"/>
        <pt x="824" y="704" on="1"/>
        <pt x="910" y="818" on="0"/>
      </contour>
      <contour>
        <pt x="797" y="-1" on="1"/>
        <pt x="780" y="39" on="0"/>
        <pt x="780" y="154" on="0"/>
        <pt x="732" y="305" on="0"/>
        <pt x="686" y="353" on="1"/>
        <pt x="595" y="113" on="0"/>
        <pt x="516" y="13" on="1"/>
        <pt x="578" y="-36" on="0"/>
        <pt x="668" y="-36" on="1"/>
        <pt x="732" y="-36" on="0"/>
      </contour>
      <contour>
        <pt x="658" y="377" on="1"/>
        <pt x="620" y="404" on="0"/>
        <pt x="519" y="404" on="0"/>
        <pt x="480" y="366" on="1"/>
        <pt x="424" y="309" on="0"/>
        <pt x="424" y="217" on="1"/>
        <pt x="424" y="115" on="0"/>
        <pt x="481" y="46" on="1"/>
        <pt x="545" y="128" on="0"/>
        <pt x="604" y="255" on="1"/>
        <pt x="625" y="302" on="0"/>
      </contour>
      <contour>
        <pt x="788" y="218" on="1"/>
        <pt x="804" y="336" on="0"/>
        <pt x="884" y="571" on="0"/>
        <pt x="935" y="647" on="1"/>
        <pt x="893" y="657" on="0"/>
        <pt x="834" y="678" on="1"/>
        <pt x="787" y="608" on="0"/>
        <pt x="740" y="493" on="1"/>
        <pt x="726" y="457" on="0"/>
        <pt x="696" y="378" on="1"/>
        <pt x="758" y="323" on="0"/>
      </contour>
    </TTGlyph>
    <TTGlyph name="AE" xMin="-57" yMin="-321" xMax="1324" yMax="821">
      <contour>
        <pt x="933" y="464" on="1"/>
        <pt x="917" y="497" on="0"/>
        <pt x="917" y="575" on="0"/>
        <pt x="938" y="651" on="0"/>
        <pt x="989" y="727" on="0"/>
        <pt x="1058" y="785" on="0"/>
        <pt x="1156" y="821" on="0"/>
        <pt x="1211" y="821" on="1"/>
        <pt x="1294" y="821" on="0"/>
        <pt x="1317" y="765" on="1"/>
        <pt x="1324" y="748" on="0"/>
        <pt x="1324" y="730" on="1"/>
        <pt x="1324" y="693" on="0"/>
        <pt x="1294" y="652" on="1"/>
        <pt x="1235" y="574" on="0"/>
        <pt x="1112" y="558" on="1"/>
        <pt x="1057" y="554" on="1"/>
        <pt x="1056" y="579" on="1"/>
        <pt x="1172" y="579" on="0"/>
        <pt x="1238" y="651" on="1"/>
        <pt x="1277" y="693" on="0"/>
        <pt x="1277" y="733" on="1"/>
        <pt x="1277" y="742" on="0"/>
        <pt x="1276" y="750" on="1"/>
        <pt x="1264" y="797" on="0"/>
        <pt x="1204" y="798" on="1"/>
        <pt x="1129" y="798" on="0"/>
        <pt x="1006" y="685" on="0"/>
        <pt x="981" y="610" on="1"/>
        <pt x="966" y="567" on="0"/>
        <pt x="966" y="504" on="0"/>
        <pt x="974" y="481" on="1"/>
        <pt x="1035" y="503" on="0"/>
        <pt x="1172" y="503" on="0"/>
        <pt x="1187" y="468" on="1"/>
        <pt x="1190" y="460" on="0"/>
        <pt x="1190" y="453" on="1"/>
        <pt x="1190" y="432" on="0"/>
        <pt x="1126" y="390" on="0"/>
        <pt x="992" y="390" on="0"/>
        <pt x="951" y="436" on="1"/>
        <pt x="862" y="379" on="0"/>
        <pt x="820" y="268" on="1"/>
        <pt x="792" y="194" on="0"/>
        <pt x="792" y="124" on="1"/>
        <pt x="792" y="89" on="0"/>
        <pt x="799" y="56" on="1"/>
        <pt x="820" y="-46" on="0"/>
        <pt x="897" y="-81" on="1"/>
        <pt x="897" y="-78" on="0"/>
        <pt x="897" y="-75" on="1"/>
        <pt x="897" y="18" on="0"/>
        <pt x="958" y="196" on="0"/>
        <pt x="1090" y="325" on="0"/>
        <pt x="1262" y="325" on="0"/>
        <pt x="1287" y="247" on="1"/>
        <pt x="1296" y="219" on="0"/>
        <pt x="1296" y="189" on="1"/>
        <pt x="1296" y="134" on="0"/>
        <pt x="1266" y="69" on="1"/>
        <pt x="1214" y="-42" on="0"/>
        <pt x="1109" y="-92" on="1"/>
        <pt x="1045" y="-122" on="0"/>
        <pt x="971" y="-122" on="1"/>
        <pt x="959" y="-122" on="0"/>
        <pt x="939" y="-120" on="1"/>
        <pt x="942" y="-202" on="0"/>
        <pt x="1010" y="-304" on="0"/>
        <pt x="1074" y="-304" on="1"/>
        <pt x="1070" y="-321" on="0"/>
        <pt x="1049" y="-321" on="1"/>
        <pt x="982" y="-321" on="0"/>
        <pt x="905" y="-205" on="0"/>
        <pt x="899" y="-113" on="1"/>
        <pt x="814" y="-92" on="0"/>
        <pt x="728" y="41" on="0"/>
        <pt x="728" y="131" on="1"/>
        <pt x="728" y="175" on="0"/>
        <pt x="676" y="311" on="0"/>
        <pt x="636" y="353" on="1"/>
        <pt x="545" y="113" on="0"/>
        <pt x="466" y="13" on="1"/>
        <pt x="528" y="-36" on="0"/>
        <pt x="618" y="-36" on="1"/>
        <pt x="619" y="-59" on="1"/>
        <pt x="520" y="-59" on="0"/>
        <pt x="448" y="-7" on="1"/>
        <pt x="343" y="-127" on="0"/>
        <pt x="47" y="-127" on="0"/>
        <pt x="-20" y="-22" on="1"/>
        <pt x="-57" y="37" on="0"/>
        <pt x="-57" y="105" on="1"/>
        <pt x="-57" y="133" on="0"/>
        <pt x="-51" y="162" on="1"/>
        <pt x="-30" y="259" on="0"/>
        <pt x="44" y="300" on="1"/>
        <pt x="83" y="322" on="0"/>
        <pt x="131" y="322" on="1"/>
        <pt x="234" y="322" on="0"/>
        <pt x="270" y="242" on="1"/>
        <pt x="285" y="209" on="0"/>
        <pt x="285" y="140" on="0"/>
        <pt x="271" y="105" on="1"/>
        <pt x="237" y="21" on="0"/>
        <pt x="160" y="21" on="1"/>
        <pt x="148" y="21" on="0"/>
        <pt x="132" y="32" on="0"/>
        <pt x="128" y="43" on="1"/>
        <pt x="155" y="43" on="0"/>
        <pt x="179" y="57" on="1"/>
        <pt x="219" y="81" on="0"/>
        <pt x="242" y="144" on="1"/>
        <pt x="248" y="165" on="0"/>
        <pt x="248" y="192" on="0"/>
        <pt x="244" y="227" on="0"/>
        <pt x="222" y="273" on="0"/>
        <pt x="168" y="301" on="0"/>
        <pt x="131" y="301" on="1"/>
        <pt x="36" y="301" on="0"/>
        <pt x="-9" y="217" on="1"/>
        <pt x="-35" y="169" on="0"/>
        <pt x="-35" y="83" on="0"/>
        <pt x="-26" y="49" on="1"/>
        <pt x="0" y="-46" on="0"/>
        <pt x="83" y="-82" on="1"/>
        <pt x="122" y="-99" on="0"/>
        <pt x="169" y="-99" on="1"/>
        <pt x="304" y="-99" on="0"/>
        <pt x="413" y="23" on="1"/>
        <pt x="365" y="74" on="0"/>
        <pt x="347" y="146" on="1"/>
        <pt x="336" y="188" on="0"/>
        <pt x="336" y="221" on="1"/>
        <pt x="336" y="325" on="0"/>
        <pt x="396" y="386" on="1"/>
        <pt x="440" y="430" on="0"/>
        <pt x="567" y="430" on="0"/>
        <pt x="618" y="399" on="1"/>
        <pt x="703" y="596" on="0"/>
        <pt x="759" y="684" on="0"/>
        <pt x="814" y="756" on="0"/>
        <pt x="839" y="774" on="1"/>
        <pt x="900" y="818" on="0"/>
        <pt x="962" y="818" on="1"/>
        <pt x="970" y="818" on="0"/>
        <pt x="978" y="808" on="0"/>
        <pt x="979" y="799" on="1"/>
        <pt x="929" y="799" on="0"/>
        <pt x="877" y="772" on="1"/>
        <pt x="850" y="758" on="0"/>
        <pt x="796" y="696" on="1"/>
        <pt x="748" y="640" on="0"/>
        <pt x="674" y="450" on="1"/>
        <pt x="665" y="427" on="0"/>
        <pt x="646" y="378" on="1"/>
        <pt x="711" y="322" on="0"/>
        <pt x="739" y="215" on="1"/>
        <pt x="759" y="294" on="0"/>
        <pt x="859" y="427" on="0"/>
      </contour>
      <contour>
        <pt x="1184" y="301" on="1"/>
        <pt x="1117" y="301" on="0"/>
        <pt x="1002" y="176" on="0"/>
        <pt x="941" y="-4" on="0"/>
        <pt x="939" y="-93" on="1"/>
        <pt x="952" y="-96" on="0"/>
        <pt x="969" y="-96" on="1"/>
        <pt x="1115" y="-96" on="0"/>
        <pt x="1202" y="17" on="1"/>
        <pt x="1266" y="100" on="0"/>
        <pt x="1266" y="272" on="0"/>
        <pt x="1216" y="294" on="1"/>
        <pt x="1202" y="301" on="0"/>
      </contour>
      <contour>
        <pt x="608" y="377" on="1"/>
        <pt x="570" y="404" on="0"/>
        <pt x="469" y="404" on="0"/>
        <pt x="430" y="366" on="1"/>
        <pt x="374" y="309" on="0"/>
        <pt x="374" y="217" on="1"/>
        <pt x="374" y="115" on="0"/>
        <pt x="431" y="46" on="1"/>
        <pt x="495" y="128" on="0"/>
        <pt x="554" y="255" on="1"/>
        <pt x="575" y="302" on="0"/>
      </contour>
      <contour>
        <pt x="1103" y="481" on="1"/>
        <pt x="1041" y="481" on="0"/>
        <pt x="986" y="456" on="1"/>
        <pt x="1013" y="414" on="0"/>
        <pt x="1140" y="414" on="0"/>
        <pt x="1158" y="442" on="1"/>
        <pt x="1162" y="449" on="0"/>
        <pt x="1162" y="454" on="1"/>
        <pt x="1162" y="467" on="0"/>
        <pt x="1127" y="481" on="0"/>
      </contour>
    </TTGlyph>
    <TTGlyph name="Aacute" xMin="-7" yMin="-127" xMax="1213" yMax="1027">
      <contour>
        <pt x="1146" y="987" on="1"/>
        <pt x="1116" y="950" on="0"/>
        <pt x="1041" y="880" on="0"/>
        <pt x="1020" y="880" on="0"/>
        <pt x="1020" y="902" on="0"/>
        <pt x="1067" y="975" on="0"/>
        <pt x="1100" y="1012" on="1"/>
        <pt x="1112" y="1027" on="0"/>
        <pt x="1134" y="1027" on="0"/>
        <pt x="1154" y="1018" on="0"/>
        <pt x="1154" y="999" on="0"/>
      </contour>
      <contour>
        <pt x="1012" y="818" on="1"/>
        <pt x="1020" y="818" on="0"/>
        <pt x="1028" y="808" on="0"/>
        <pt x="1029" y="799" on="1"/>
        <pt x="925" y="799" on="0"/>
        <pt x="847" y="696" on="1"/>
        <pt x="899" y="677" on="0"/>
        <pt x="948" y="666" on="1"/>
        <pt x="1002" y="736" on="0"/>
        <pt x="1047" y="736" on="1"/>
        <pt x="1057" y="736" on="0"/>
        <pt x="1071" y="725" on="0"/>
        <pt x="1074" y="714" on="1"/>
        <pt x="1035" y="714" on="0"/>
        <pt x="993" y="659" on="1"/>
        <pt x="1000" y="658" on="0"/>
        <pt x="1014" y="658" on="1"/>
        <pt x="1113" y="658" on="0"/>
        <pt x="1153" y="717" on="1"/>
        <pt x="1170" y="740" on="0"/>
        <pt x="1170" y="756" on="1"/>
        <pt x="1170" y="801" on="0"/>
        <pt x="1130" y="801" on="1"/>
        <pt x="1139" y="815" on="0"/>
        <pt x="1159" y="815" on="1"/>
        <pt x="1198" y="815" on="0"/>
        <pt x="1210" y="776" on="1"/>
        <pt x="1213" y="764" on="0"/>
        <pt x="1213" y="753" on="1"/>
        <pt x="1213" y="720" on="0"/>
        <pt x="1185" y="688" on="1"/>
        <pt x="1136" y="634" on="0"/>
        <pt x="1034" y="634" on="1"/>
        <pt x="1004" y="634" on="0"/>
        <pt x="980" y="638" on="1"/>
        <pt x="913" y="531" on="0"/>
        <pt x="872" y="334" on="1"/>
        <pt x="843" y="197" on="0"/>
        <pt x="843" y="104" on="1"/>
        <pt x="843" y="64" on="0"/>
        <pt x="848" y="32" on="1"/>
        <pt x="905" y="76" on="0"/>
        <pt x="1009" y="210" on="0"/>
        <pt x="1032" y="255" on="1"/>
        <pt x="1055" y="300" on="1"/>
        <pt x="1082" y="300" on="1"/>
        <pt x="1074" y="279" on="0"/>
        <pt x="1021" y="188" on="0"/>
        <pt x="972" y="119" on="0"/>
        <pt x="894" y="35" on="0"/>
        <pt x="854" y="6" on="1"/>
        <pt x="867" y="-32" on="0"/>
        <pt x="891" y="-32" on="1"/>
        <pt x="881" y="-52" on="0"/>
        <pt x="862" y="-52" on="1"/>
        <pt x="830" y="-52" on="0"/>
        <pt x="809" y="-22" on="1"/>
        <pt x="737" y="-59" on="0"/>
        <pt x="669" y="-59" on="1"/>
        <pt x="570" y="-59" on="0"/>
        <pt x="498" y="-7" on="1"/>
        <pt x="393" y="-127" on="0"/>
        <pt x="97" y="-127" on="0"/>
        <pt x="30" y="-22" on="1"/>
        <pt x="-7" y="37" on="0"/>
        <pt x="-7" y="105" on="1"/>
        <pt x="-7" y="133" on="0"/>
        <pt x="-1" y="162" on="1"/>
        <pt x="20" y="259" on="0"/>
        <pt x="94" y="300" on="1"/>
        <pt x="133" y="322" on="0"/>
        <pt x="181" y="322" on="1"/>
        <pt x="284" y="322" on="0"/>
        <pt x="320" y="242" on="1"/>
        <pt x="335" y="209" on="0"/>
        <pt x="335" y="140" on="0"/>
        <pt x="321" y="105" on="1"/>
        <pt x="287" y="21" on="0"/>
        <pt x="210" y="21" on="1"/>
        <pt x="198" y="21" on="0"/>
        <pt x="182" y="32" on="0"/>
        <pt x="178" y="43" on="1"/>
        <pt x="205" y="43" on="0"/>
        <pt x="229" y="57" on="1"/>
        <pt x="269" y="81" on="0"/>
        <pt x="292" y="144" on="1"/>
        <pt x="298" y="165" on="0"/>
        <pt x="298" y="192" on="0"/>
        <pt x="294" y="227" on="0"/>
        <pt x="272" y="273" on="0"/>
        <pt x="218" y="301" on="0"/>
        <pt x="181" y="301" on="1"/>
        <pt x="86" y="301" on="0"/>
        <pt x="41" y="217" on="1"/>
        <pt x="15" y="169" on="0"/>
        <pt x="15" y="83" on="0"/>
        <pt x="24" y="49" on="1"/>
        <pt x="50" y="-46" on="0"/>
        <pt x="133" y="-82" on="1"/>
        <pt x="172" y="-99" on="0"/>
        <pt x="219" y="-99" on="1"/>
        <pt x="354" y="-99" on="0"/>
        <pt x="463" y="23" on="1"/>
        <pt x="415" y="74" on="0"/>
        <pt x="397" y="146" on="1"/>
        <pt x="386" y="188" on="0"/>
        <pt x="386" y="221" on="1"/>
        <pt x="386" y="325" on="0"/>
        <pt x="446" y="386" on="1"/>
        <pt x="490" y="430" on="0"/>
        <pt x="617" y="430" on="0"/>
        <pt x="668" y="399" on="1"/>
        <pt x="757" y="606" on="0"/>
        <pt x="812" y="686" on="1"/>
        <pt x="805" y="688" on="0"/>
        <pt x="716" y="722" on="0"/>
        <pt x="704" y="726" on="1"/>
        <pt x="656" y="742" on="1"/>
        <pt x="572" y="770" on="0"/>
        <pt x="508" y="770" on="1"/>
        <pt x="378" y="770" on="0"/>
        <pt x="316" y="672" on="1"/>
        <pt x="280" y="617" on="0"/>
        <pt x="280" y="558" on="1"/>
        <pt x="280" y="541" on="0"/>
        <pt x="284" y="523" on="1"/>
        <pt x="295" y="458" on="0"/>
        <pt x="342" y="445" on="1"/>
        <pt x="351" y="442" on="0"/>
        <pt x="361" y="442" on="1"/>
        <pt x="355" y="420" on="0"/>
        <pt x="328" y="420" on="1"/>
        <pt x="267" y="420" on="0"/>
        <pt x="242" y="485" on="1"/>
        <pt x="230" y="516" on="0"/>
        <pt x="230" y="592" on="0"/>
        <pt x="250" y="639" on="1"/>
        <pt x="292" y="740" on="0"/>
        <pt x="398" y="777" on="1"/>
        <pt x="448" y="794" on="0"/>
        <pt x="535" y="794" on="0"/>
        <pt x="592" y="785" on="0"/>
        <pt x="672" y="760" on="0"/>
        <pt x="709" y="748" on="0"/>
        <pt x="816" y="707" on="0"/>
        <pt x="824" y="704" on="1"/>
        <pt x="910" y="818" on="0"/>
      </contour>
      <contour>
        <pt x="797" y="-1" on="1"/>
        <pt x="780" y="39" on="0"/>
        <pt x="780" y="154" on="0"/>
        <pt x="732" y="305" on="0"/>
        <pt x="686" y="353" on="1"/>
        <pt x="595" y="113" on="0"/>
        <pt x="516" y="13" on="1"/>
        <pt x="578" y="-36" on="0"/>
        <pt x="668" y="-36" on="1"/>
        <pt x="732" y="-36" on="0"/>
      </contour>
      <contour>
        <pt x="625" y="302" on="0"/>
        <pt x="658" y="377" on="1"/>
        <pt x="620" y="404" on="0"/>
        <pt x="519" y="404" on="0"/>
        <pt x="480" y="366" on="1"/>
        <pt x="424" y="309" on="0"/>
        <pt x="424" y="217" on="1"/>
        <pt x="424" y="115" on="0"/>
        <pt x="481" y="46" on="1"/>
        <pt x="545" y="128" on="0"/>
        <pt x="604" y="255" on="1"/>
      </contour>
      <contour>
        <pt x="788" y="218" on="1"/>
        <pt x="804" y="336" on="0"/>
        <pt x="884" y="571" on="0"/>
        <pt x="935" y="647" on="1"/>
        <pt x="893" y="657" on="0"/>
        <pt x="834" y="678" on="1"/>
        <pt x="787" y="608" on="0"/>
        <pt x="740" y="493" on="1"/>
        <pt x="726" y="457" on="0"/>
        <pt x="696" y="378" on="1"/>
        <pt x="758" y="323" on="0"/>
      </contour>
    </TTGlyph>
    <TTGlyph name="Acircumflex" xMin="-7" yMin="-127" xMax="1213" yMax="984">
      <contour>
        <pt x="1009" y="984" on="0"/>
        <pt x="1022" y="984" on="0"/>
        <pt x="1025" y="977" on="1"/>
        <pt x="1075" y="878" on="1"/>
        <pt x="1051" y="878" on="1"/>
        <pt x="1013" y="942" on="1"/>
        <pt x="904" y="878" on="1"/>
        <pt x="879" y="878" on="1"/>
        <pt x="960" y="945" on="0"/>
      </contour>
      <contour>
        <pt x="1012" y="818" on="1"/>
        <pt x="1020" y="818" on="0"/>
        <pt x="1028" y="808" on="0"/>
        <pt x="1029" y="799" on="1"/>
        <pt x="925" y="799" on="0"/>
        <pt x="847" y="696" on="1"/>
        <pt x="899" y="677" on="0"/>
        <pt x="948" y="666" on="1"/>
        <pt x="1002" y="736" on="0"/>
        <pt x="1047" y="736" on="1"/>
        <pt x="1057" y="736" on="0"/>
        <pt x="1071" y="725" on="0"/>
        <pt x="1074" y="714" on="1"/>
        <pt x="1035" y="714" on="0"/>
        <pt x="993" y="659" on="1"/>
        <pt x="1000" y="658" on="0"/>
        <pt x="1014" y="658" on="1"/>
        <pt x="1113" y="658" on="0"/>
        <pt x="1153" y="717" on="1"/>
        <pt x="1170" y="740" on="0"/>
        <pt x="1170" y="756" on="1"/>
        <pt x="1170" y="801" on="0"/>
        <pt x="1130" y="801" on="1"/>
        <pt x="1139" y="815" on="0"/>
        <pt x="1159" y="815" on="1"/>
        <pt x="1198" y="815" on="0"/>
        <pt x="1210" y="776" on="1"/>
        <pt x="1213" y="764" on="0"/>
        <pt x="1213" y="753" on="1"/>
        <pt x="1213" y="720" on="0"/>
        <pt x="1185" y="688" on="1"/>
        <pt x="1136" y="634" on="0"/>
        <pt x="1034" y="634" on="1"/>
        <pt x="1004" y="634" on="0"/>
        <pt x="980" y="638" on="1"/>
        <pt x="913" y="531" on="0"/>
        <pt x="872" y="334" on="1"/>
        <pt x="843" y="197" on="0"/>
        <pt x="843" y="104" on="1"/>
        <pt x="843" y="64" on="0"/>
        <pt x="848" y="32" on="1"/>
        <pt x="905" y="76" on="0"/>
        <pt x="1009" y="210" on="0"/>
        <pt x="1032" y="255" on="1"/>
        <pt x="1055" y="300" on="1"/>
        <pt x="1082" y="300" on="1"/>
        <pt x="1074" y="279" on="0"/>
        <pt x="1021" y="188" on="0"/>
        <pt x="972" y="119" on="0"/>
        <pt x="894" y="35" on="0"/>
        <pt x="854" y="6" on="1"/>
        <pt x="867" y="-32" on="0"/>
        <pt x="891" y="-32" on="1"/>
        <pt x="881" y="-52" on="0"/>
        <pt x="862" y="-52" on="1"/>
        <pt x="830" y="-52" on="0"/>
        <pt x="809" y="-22" on="1"/>
        <pt x="737" y="-59" on="0"/>
        <pt x="669" y="-59" on="1"/>
        <pt x="570" y="-59" on="0"/>
        <pt x="498" y="-7" on="1"/>
        <pt x="393" y="-127" on="0"/>
        <pt x="97" y="-127" on="0"/>
        <pt x="30" y="-22" on="1"/>
        <pt x="-7" y="37" on="0"/>
        <pt x="-7" y="105" on="1"/>
        <pt x="-7" y="133" on="0"/>
        <pt x="-1" y="162" on="1"/>
        <pt x="20" y="259" on="0"/>
        <pt x="94" y="300" on="1"/>
        <pt x="133" y="322" on="0"/>
        <pt x="181" y="322" on="1"/>
        <pt x="284" y="322" on="0"/>
        <pt x="320" y="242" on="1"/>
        <pt x="335" y="209" on="0"/>
        <pt x="335" y="140" on="0"/>
        <pt x="321" y="105" on="1"/>
        <pt x="287" y="21" on="0"/>
        <pt x="210" y="21" on="1"/>
        <pt x="198" y="21" on="0"/>
        <pt x="182" y="32" on="0"/>
        <pt x="178" y="43" on="1"/>
        <pt x="205" y="43" on="0"/>
        <pt x="229" y="57" on="1"/>
        <pt x="269" y="81" on="0"/>
        <pt x="292" y="144" on="1"/>
        <pt x="298" y="165" on="0"/>
        <pt x="298" y="192" on="0"/>
        <pt x="294" y="227" on="0"/>
        <pt x="272" y="273" on="0"/>
        <pt x="218" y="301" on="0"/>
        <pt x="181" y="301" on="1"/>
        <pt x="86" y="301" on="0"/>
        <pt x="41" y="217" on="1"/>
        <pt x="15" y="169" on="0"/>
        <pt x="15" y="83" on="0"/>
        <pt x="24" y="49" on="1"/>
        <pt x="50" y="-46" on="0"/>
        <pt x="133" y="-82" on="1"/>
        <pt x="172" y="-99" on="0"/>
        <pt x="219" y="-99" on="1"/>
        <pt x="354" y="-99" on="0"/>
        <pt x="463" y="23" on="1"/>
        <pt x="415" y="74" on="0"/>
        <pt x="397" y="146" on="1"/>
        <pt x="386" y="188" on="0"/>
        <pt x="386" y="221" on="1"/>
        <pt x="386" y="325" on="0"/>
        <pt x="446" y="386" on="1"/>
        <pt x="490" y="430" on="0"/>
        <pt x="617" y="430" on="0"/>
        <pt x="668" y="399" on="1"/>
        <pt x="757" y="606" on="0"/>
        <pt x="812" y="686" on="1"/>
        <pt x="805" y="688" on="0"/>
        <pt x="716" y="722" on="0"/>
        <pt x="704" y="726" on="1"/>
        <pt x="656" y="742" on="1"/>
        <pt x="572" y="770" on="0"/>
        <pt x="508" y="770" on="1"/>
        <pt x="378" y="770" on="0"/>
        <pt x="316" y="672" on="1"/>
        <pt x="280" y="617" on="0"/>
        <pt x="280" y="558" on="1"/>
        <pt x="280" y="541" on="0"/>
        <pt x="284" y="523" on="1"/>
        <pt x="295" y="458" on="0"/>
        <pt x="342" y="445" on="1"/>
        <pt x="351" y="442" on="0"/>
        <pt x="361" y="442" on="1"/>
        <pt x="355" y="420" on="0"/>
        <pt x="328" y="420" on="1"/>
        <pt x="267" y="420" on="0"/>
        <pt x="242" y="485" on="1"/>
        <pt x="230" y="516" on="0"/>
        <pt x="230" y="592" on="0"/>
        <pt x="250" y="639" on="1"/>
        <pt x="292" y="740" on="0"/>
        <pt x="398" y="777" on="1"/>
        <pt x="448" y="794" on="0"/>
        <pt x="535" y="794" on="0"/>
        <pt x="592" y="785" on="0"/>
        <pt x="672" y="760" on="0"/>
        <pt x="709" y="748" on="0"/>
        <pt x="816" y="707" on="0"/>
        <pt x="824" y="704" on="1"/>
        <pt x="910" y="818" on="0"/>
      </contour>
      <contour>
        <pt x="797" y="-1" on="1"/>
        <pt x="780" y="39" on="0"/>
        <pt x="780" y="154" on="0"/>
        <pt x="732" y="305" on="0"/>
        <pt x="686" y="353" on="1"/>
        <pt x="595" y="113" on="0"/>
        <pt x="516" y="13" on="1"/>
        <pt x="578" y="-36" on="0"/>
        <pt x="668" y="-36" on="1"/>
        <pt x="732" y="-36" on="0"/>
      </contour>
      <contour>
        <pt x="658" y="377" on="1"/>
        <pt x="620" y="404" on="0"/>
        <pt x="519" y="404" on="0"/>
        <pt x="480" y="366" on="1"/>
        <pt x="424" y="309" on="0"/>
        <pt x="424" y="217" on="1"/>
        <pt x="424" y="115" on="0"/>
        <pt x="481" y="46" on="1"/>
        <pt x="545" y="128" on="0"/>
        <pt x="604" y="255" on="1"/>
        <pt x="625" y="302" on="0"/>
      </contour>
      <contour>
        <pt x="788" y="218" on="1"/>
        <pt x="804" y="336" on="0"/>
        <pt x="884" y="571" on="0"/>
        <pt x="935" y="647" on="1"/>
        <pt x="893" y="657" on="0"/>
        <pt x="834" y="678" on="1"/>
        <pt x="787" y="608" on="0"/>
        <pt x="740" y="493" on="1"/>
        <pt x="726" y="457" on="0"/>
        <pt x="696" y="378" on="1"/>
        <pt x="758" y="323" on="0"/>
      </contour>
    </TTGlyph>
    <TTGlyph name="Adieresis" xMin="-7" yMin="-127" xMax="1213" yMax="969">
      <contour>
        <pt x="933" y="969" on="1"/>
        <pt x="956" y="969" on="0"/>
        <pt x="956" y="907" on="0"/>
        <pt x="926" y="888" on="1"/>
        <pt x="911" y="878" on="0"/>
        <pt x="900" y="878" on="1"/>
        <pt x="884" y="878" on="0"/>
        <pt x="881" y="888" on="1"/>
        <pt x="880" y="891" on="1"/>
        <pt x="889" y="891" on="0"/>
        <pt x="897" y="930" on="0"/>
        <pt x="914" y="969" on="0"/>
      </contour>
      <contour>
        <pt x="1059" y="969" on="1"/>
        <pt x="1082" y="969" on="0"/>
        <pt x="1082" y="907" on="0"/>
        <pt x="1052" y="888" on="1"/>
        <pt x="1037" y="878" on="0"/>
        <pt x="1026" y="878" on="1"/>
        <pt x="1010" y="878" on="0"/>
        <pt x="1007" y="888" on="1"/>
        <pt x="1006" y="891" on="1"/>
        <pt x="1015" y="891" on="0"/>
        <pt x="1023" y="930" on="0"/>
        <pt x="1040" y="969" on="0"/>
      </contour>
      <contour>
        <pt x="1012" y="818" on="1"/>
        <pt x="1020" y="818" on="0"/>
        <pt x="1028" y="808" on="0"/>
        <pt x="1029" y="799" on="1"/>
        <pt x="925" y="799" on="0"/>
        <pt x="847" y="696" on="1"/>
        <pt x="899" y="677" on="0"/>
        <pt x="948" y="666" on="1"/>
        <pt x="1002" y="736" on="0"/>
        <pt x="1047" y="736" on="1"/>
        <pt x="1057" y="736" on="0"/>
        <pt x="1071" y="725" on="0"/>
        <pt x="1074" y="714" on="1"/>
        <pt x="1035" y="714" on="0"/>
        <pt x="993" y="659" on="1"/>
        <pt x="1000" y="658" on="0"/>
        <pt x="1014" y="658" on="1"/>
        <pt x="1113" y="658" on="0"/>
        <pt x="1153" y="717" on="1"/>
        <pt x="1170" y="740" on="0"/>
        <pt x="1170" y="756" on="1"/>
        <pt x="1170" y="801" on="0"/>
        <pt x="1130" y="801" on="1"/>
        <pt x="1139" y="815" on="0"/>
        <pt x="1159" y="815" on="1"/>
        <pt x="1198" y="815" on="0"/>
        <pt x="1210" y="776" on="1"/>
        <pt x="1213" y="764" on="0"/>
        <pt x="1213" y="753" on="1"/>
        <pt x="1213" y="720" on="0"/>
        <pt x="1185" y="688" on="1"/>
        <pt x="1136" y="634" on="0"/>
        <pt x="1034" y="634" on="1"/>
        <pt x="1004" y="634" on="0"/>
        <pt x="980" y="638" on="1"/>
        <pt x="913" y="531" on="0"/>
        <pt x="872" y="334" on="1"/>
        <pt x="843" y="197" on="0"/>
        <pt x="843" y="104" on="1"/>
        <pt x="843" y="64" on="0"/>
        <pt x="848" y="32" on="1"/>
        <pt x="905" y="76" on="0"/>
        <pt x="1009" y="210" on="0"/>
        <pt x="1032" y="255" on="1"/>
        <pt x="1055" y="300" on="1"/>
        <pt x="1082" y="300" on="1"/>
        <pt x="1074" y="279" on="0"/>
        <pt x="1021" y="188" on="0"/>
        <pt x="972" y="119" on="0"/>
        <pt x="894" y="35" on="0"/>
        <pt x="854" y="6" on="1"/>
        <pt x="867" y="-32" on="0"/>
        <pt x="891" y="-32" on="1"/>
        <pt x="881" y="-52" on="0"/>
        <pt x="862" y="-52" on="1"/>
        <pt x="830" y="-52" on="0"/>
        <pt x="809" y="-22" on="1"/>
        <pt x="737" y="-59" on="0"/>
        <pt x="669" y="-59" on="1"/>
        <pt x="570" y="-59" on="0"/>
        <pt x="498" y="-7" on="1"/>
        <pt x="393" y="-127" on="0"/>
        <pt x="97" y="-127" on="0"/>
        <pt x="30" y="-22" on="1"/>
        <pt x="-7" y="37" on="0"/>
        <pt x="-7" y="105" on="1"/>
        <pt x="-7" y="133" on="0"/>
        <pt x="-1" y="162" on="1"/>
        <pt x="20" y="259" on="0"/>
        <pt x="94" y="300" on="1"/>
        <pt x="133" y="322" on="0"/>
        <pt x="181" y="322" on="1"/>
        <pt x="284" y="322" on="0"/>
        <pt x="320" y="242" on="1"/>
        <pt x="335" y="209" on="0"/>
        <pt x="335" y="140" on="0"/>
        <pt x="321" y="105" on="1"/>
        <pt x="287" y="21" on="0"/>
        <pt x="210" y="21" on="1"/>
        <pt x="198" y="21" on="0"/>
        <pt x="182" y="32" on="0"/>
        <pt x="178" y="43" on="1"/>
        <pt x="205" y="43" on="0"/>
        <pt x="229" y="57" on="1"/>
        <pt x="269" y="81" on="0"/>
        <pt x="292" y="144" on="1"/>
        <pt x="298" y="165" on="0"/>
        <pt x="298" y="192" on="0"/>
        <pt x="294" y="227" on="0"/>
        <pt x="272" y="273" on="0"/>
        <pt x="218" y="301" on="0"/>
        <pt x="181" y="301" on="1"/>
        <pt x="86" y="301" on="0"/>
        <pt x="41" y="217" on="1"/>
        <pt x="15" y="169" on="0"/>
        <pt x="15" y="83" on="0"/>
        <pt x="24" y="49" on="1"/>
        <pt x="50" y="-46" on="0"/>
        <pt x="133" y="-82" on="1"/>
        <pt x="172" y="-99" on="0"/>
        <pt x="219" y="-99" on="1"/>
        <pt x="354" y="-99" on="0"/>
        <pt x="463" y="23" on="1"/>
        <pt x="415" y="74" on="0"/>
        <pt x="397" y="146" on="1"/>
        <pt x="386" y="188" on="0"/>
        <pt x="386" y="221" on="1"/>
        <pt x="386" y="325" on="0"/>
        <pt x="446" y="386" on="1"/>
        <pt x="490" y="430" on="0"/>
        <pt x="617" y="430" on="0"/>
        <pt x="668" y="399" on="1"/>
        <pt x="757" y="606" on="0"/>
        <pt x="812" y="686" on="1"/>
        <pt x="805" y="688" on="0"/>
        <pt x="716" y="722" on="0"/>
        <pt x="704" y="726" on="1"/>
        <pt x="656" y="742" on="1"/>
        <pt x="572" y="770" on="0"/>
        <pt x="508" y="770" on="1"/>
        <pt x="378" y="770" on="0"/>
        <pt x="316" y="672" on="1"/>
        <pt x="280" y="617" on="0"/>
        <pt x="280" y="558" on="1"/>
        <pt x="280" y="541" on="0"/>
        <pt x="284" y="523" on="1"/>
        <pt x="295" y="458" on="0"/>
        <pt x="342" y="445" on="1"/>
        <pt x="351" y="442" on="0"/>
        <pt x="361" y="442" on="1"/>
        <pt x="355" y="420" on="0"/>
        <pt x="328" y="420" on="1"/>
        <pt x="267" y="420" on="0"/>
        <pt x="242" y="485" on="1"/>
        <pt x="230" y="516" on="0"/>
        <pt x="230" y="592" on="0"/>
        <pt x="250" y="639" on="1"/>
        <pt x="292" y="740" on="0"/>
        <pt x="398" y="777" on="1"/>
        <pt x="448" y="794" on="0"/>
        <pt x="535" y="794" on="0"/>
        <pt x="592" y="785" on="0"/>
        <pt x="672" y="760" on="0"/>
        <pt x="709" y="748" on="0"/>
        <pt x="816" y="707" on="0"/>
        <pt x="824" y="704" on="1"/>
        <pt x="910" y="818" on="0"/>
      </contour>
      <contour>
        <pt x="797" y="-1" on="1"/>
        <pt x="780" y="39" on="0"/>
        <pt x="780" y="154" on="0"/>
        <pt x="732" y="305" on="0"/>
        <pt x="686" y="353" on="1"/>
        <pt x="595" y="113" on="0"/>
        <pt x="516" y="13" on="1"/>
        <pt x="578" y="-36" on="0"/>
        <pt x="668" y="-36" on="1"/>
        <pt x="732" y="-36" on="0"/>
      </contour>
      <contour>
        <pt x="658" y="377" on="1"/>
        <pt x="620" y="404" on="0"/>
        <pt x="519" y="404" on="0"/>
        <pt x="480" y="366" on="1"/>
        <pt x="424" y="309" on="0"/>
        <pt x="424" y="217" on="1"/>
        <pt x="424" y="115" on="0"/>
        <pt x="481" y="46" on="1"/>
        <pt x="545" y="128" on="0"/>
        <pt x="604" y="255" on="1"/>
        <pt x="625" y="302" on="0"/>
      </contour>
      <contour>
        <pt x="788" y="218" on="1"/>
        <pt x="804" y="336" on="0"/>
        <pt x="884" y="571" on="0"/>
        <pt x="935" y="647" on="1"/>
        <pt x="893" y="657" on="0"/>
        <pt x="834" y="678" on="1"/>
        <pt x="787" y="608" on="0"/>
        <pt x="740" y="493" on="1"/>
        <pt x="726" y="457" on="0"/>
        <pt x="696" y="378" on="1"/>
        <pt x="758" y="323" on="0"/>
      </contour>
    </TTGlyph>
    <TTGlyph name="Agrave" xMin="-7" yMin="-127" xMax="1213" yMax="1016">
      <contour>
        <pt x="918" y="1007" on="1"/>
        <pt x="954" y="974" on="0"/>
        <pt x="1019" y="895" on="0"/>
        <pt x="1019" y="876" on="0"/>
        <pt x="998" y="876" on="0"/>
        <pt x="928" y="926" on="0"/>
        <pt x="891" y="962" on="1"/>
        <pt x="877" y="976" on="0"/>
        <pt x="877" y="996" on="0"/>
        <pt x="889" y="1016" on="0"/>
        <pt x="908" y="1016" on="0"/>
      </contour>
      <contour>
        <pt x="1012" y="818" on="1"/>
        <pt x="1020" y="818" on="0"/>
        <pt x="1028" y="808" on="0"/>
        <pt x="1029" y="799" on="1"/>
        <pt x="925" y="799" on="0"/>
        <pt x="847" y="696" on="1"/>
        <pt x="899" y="677" on="0"/>
        <pt x="948" y="666" on="1"/>
        <pt x="1002" y="736" on="0"/>
        <pt x="1047" y="736" on="1"/>
        <pt x="1057" y="736" on="0"/>
        <pt x="1071" y="725" on="0"/>
        <pt x="1074" y="714" on="1"/>
        <pt x="1035" y="714" on="0"/>
        <pt x="993" y="659" on="1"/>
        <pt x="1000" y="658" on="0"/>
        <pt x="1014" y="658" on="1"/>
        <pt x="1113" y="658" on="0"/>
        <pt x="1153" y="717" on="1"/>
        <pt x="1170" y="740" on="0"/>
        <pt x="1170" y="756" on="1"/>
        <pt x="1170" y="801" on="0"/>
        <pt x="1130" y="801" on="1"/>
        <pt x="1139" y="815" on="0"/>
        <pt x="1159" y="815" on="1"/>
        <pt x="1198" y="815" on="0"/>
        <pt x="1210" y="776" on="1"/>
        <pt x="1213" y="764" on="0"/>
        <pt x="1213" y="753" on="1"/>
        <pt x="1213" y="720" on="0"/>
        <pt x="1185" y="688" on="1"/>
        <pt x="1136" y="634" on="0"/>
        <pt x="1034" y="634" on="1"/>
        <pt x="1004" y="634" on="0"/>
        <pt x="980" y="638" on="1"/>
        <pt x="913" y="531" on="0"/>
        <pt x="872" y="334" on="1"/>
        <pt x="843" y="197" on="0"/>
        <pt x="843" y="104" on="1"/>
        <pt x="843" y="64" on="0"/>
        <pt x="848" y="32" on="1"/>
        <pt x="905" y="76" on="0"/>
        <pt x="1009" y="210" on="0"/>
        <pt x="1032" y="255" on="1"/>
        <pt x="1055" y="300" on="1"/>
        <pt x="1082" y="300" on="1"/>
        <pt x="1074" y="279" on="0"/>
        <pt x="1021" y="188" on="0"/>
        <pt x="972" y="119" on="0"/>
        <pt x="894" y="35" on="0"/>
        <pt x="854" y="6" on="1"/>
        <pt x="867" y="-32" on="0"/>
        <pt x="891" y="-32" on="1"/>
        <pt x="881" y="-52" on="0"/>
        <pt x="862" y="-52" on="1"/>
        <pt x="830" y="-52" on="0"/>
        <pt x="809" y="-22" on="1"/>
        <pt x="737" y="-59" on="0"/>
        <pt x="669" y="-59" on="1"/>
        <pt x="570" y="-59" on="0"/>
        <pt x="498" y="-7" on="1"/>
        <pt x="393" y="-127" on="0"/>
        <pt x="97" y="-127" on="0"/>
        <pt x="30" y="-22" on="1"/>
        <pt x="-7" y="37" on="0"/>
        <pt x="-7" y="105" on="1"/>
        <pt x="-7" y="133" on="0"/>
        <pt x="-1" y="162" on="1"/>
        <pt x="20" y="259" on="0"/>
        <pt x="94" y="300" on="1"/>
        <pt x="133" y="322" on="0"/>
        <pt x="181" y="322" on="1"/>
        <pt x="284" y="322" on="0"/>
        <pt x="320" y="242" on="1"/>
        <pt x="335" y="209" on="0"/>
        <pt x="335" y="140" on="0"/>
        <pt x="321" y="105" on="1"/>
        <pt x="287" y="21" on="0"/>
        <pt x="210" y="21" on="1"/>
        <pt x="198" y="21" on="0"/>
        <pt x="182" y="32" on="0"/>
        <pt x="178" y="43" on="1"/>
        <pt x="205" y="43" on="0"/>
        <pt x="229" y="57" on="1"/>
        <pt x="269" y="81" on="0"/>
        <pt x="292" y="144" on="1"/>
        <pt x="298" y="165" on="0"/>
        <pt x="298" y="192" on="0"/>
        <pt x="294" y="227" on="0"/>
        <pt x="272" y="273" on="0"/>
        <pt x="218" y="301" on="0"/>
        <pt x="181" y="301" on="1"/>
        <pt x="86" y="301" on="0"/>
        <pt x="41" y="217" on="1"/>
        <pt x="15" y="169" on="0"/>
        <pt x="15" y="83" on="0"/>
        <pt x="24" y="49" on="1"/>
        <pt x="50" y="-46" on="0"/>
        <pt x="133" y="-82" on="1"/>
        <pt x="172" y="-99" on="0"/>
        <pt x="219" y="-99" on="1"/>
        <pt x="354" y="-99" on="0"/>
        <pt x="463" y="23" on="1"/>
        <pt x="415" y="74" on="0"/>
        <pt x="397" y="146" on="1"/>
        <pt x="386" y="188" on="0"/>
        <pt x="386" y="221" on="1"/>
        <pt x="386" y="325" on="0"/>
        <pt x="446" y="386" on="1"/>
        <pt x="490" y="430" on="0"/>
        <pt x="617" y="430" on="0"/>
        <pt x="668" y="399" on="1"/>
        <pt x="757" y="606" on="0"/>
        <pt x="812" y="686" on="1"/>
        <pt x="805" y="688" on="0"/>
        <pt x="716" y="722" on="0"/>
        <pt x="704" y="726" on="1"/>
        <pt x="656" y="742" on="1"/>
        <pt x="572" y="770" on="0"/>
        <pt x="508" y="770" on="1"/>
        <pt x="378" y="770" on="0"/>
        <pt x="316" y="672" on="1"/>
        <pt x="280" y="617" on="0"/>
        <pt x="280" y="558" on="1"/>
        <pt x="280" y="541" on="0"/>
        <pt x="284" y="523" on="1"/>
        <pt x="295" y="458" on="0"/>
        <pt x="342" y="445" on="1"/>
        <pt x="351" y="442" on="0"/>
        <pt x="361" y="442" on="1"/>
        <pt x="355" y="420" on="0"/>
        <pt x="328" y="420" on="1"/>
        <pt x="267" y="420" on="0"/>
        <pt x="242" y="485" on="1"/>
        <pt x="230" y="516" on="0"/>
        <pt x="230" y="592" on="0"/>
        <pt x="250" y="639" on="1"/>
        <pt x="292" y="740" on="0"/>
        <pt x="398" y="777" on="1"/>
        <pt x="448" y="794" on="0"/>
        <pt x="535" y="794" on="0"/>
        <pt x="592" y="785" on="0"/>
        <pt x="672" y="760" on="0"/>
        <pt x="709" y="748" on="0"/>
        <pt x="816" y="707" on="0"/>
        <pt x="824" y="704" on="1"/>
        <pt x="910" y="818" on="0"/>
      </contour>
      <contour>
        <pt x="797" y="-1" on="1"/>
        <pt x="780" y="39" on="0"/>
        <pt x="780" y="154" on="0"/>
        <pt x="732" y="305" on="0"/>
        <pt x="686" y="353" on="1"/>
        <pt x="595" y="113" on="0"/>
        <pt x="516" y="13" on="1"/>
        <pt x="578" y="-36" on="0"/>
        <pt x="668" y="-36" on="1"/>
        <pt x="732" y="-36" on="0"/>
      </contour>
      <contour>
        <pt x="625" y="302" on="0"/>
        <pt x="658" y="377" on="1"/>
        <pt x="620" y="404" on="0"/>
        <pt x="519" y="404" on="0"/>
        <pt x="480" y="366" on="1"/>
        <pt x="424" y="309" on="0"/>
        <pt x="424" y="217" on="1"/>
        <pt x="424" y="115" on="0"/>
        <pt x="481" y="46" on="1"/>
        <pt x="545" y="128" on="0"/>
        <pt x="604" y="255" on="1"/>
      </contour>
      <contour>
        <pt x="788" y="218" on="1"/>
        <pt x="804" y="336" on="0"/>
        <pt x="884" y="571" on="0"/>
        <pt x="935" y="647" on="1"/>
        <pt x="893" y="657" on="0"/>
        <pt x="834" y="678" on="1"/>
        <pt x="787" y="608" on="0"/>
        <pt x="740" y="493" on="1"/>
        <pt x="726" y="457" on="0"/>
        <pt x="696" y="378" on="1"/>
        <pt x="758" y="323" on="0"/>
      </contour>
    </TTGlyph>
    <TTGlyph name="Aring" xMin="-7" yMin="-127" xMax="1213" yMax="1050">
      <contour>
        <pt x="931" y="1012" on="0"/>
        <pt x="969" y="1050" on="0"/>
        <pt x="1026" y="1050" on="0"/>
        <pt x="1064" y="1012" on="0"/>
        <pt x="1064" y="956" on="0"/>
        <pt x="1026" y="918" on="0"/>
        <pt x="969" y="918" on="0"/>
        <pt x="931" y="957" on="0"/>
      </contour>
      <contour>
        <pt x="952" y="966" on="0"/>
        <pt x="978" y="939" on="0"/>
        <pt x="1015" y="939" on="0"/>
        <pt x="1042" y="966" on="0"/>
        <pt x="1042" y="1003" on="0"/>
        <pt x="1015" y="1029" on="0"/>
        <pt x="977" y="1029" on="0"/>
        <pt x="952" y="1003" on="0"/>
      </contour>
      <contour>
        <pt x="1012" y="818" on="1"/>
        <pt x="1020" y="818" on="0"/>
        <pt x="1028" y="808" on="0"/>
        <pt x="1029" y="799" on="1"/>
        <pt x="925" y="799" on="0"/>
        <pt x="847" y="696" on="1"/>
        <pt x="899" y="677" on="0"/>
        <pt x="948" y="666" on="1"/>
        <pt x="1002" y="736" on="0"/>
        <pt x="1047" y="736" on="1"/>
        <pt x="1057" y="736" on="0"/>
        <pt x="1071" y="725" on="0"/>
        <pt x="1074" y="714" on="1"/>
        <pt x="1035" y="714" on="0"/>
        <pt x="993" y="659" on="1"/>
        <pt x="1000" y="658" on="0"/>
        <pt x="1014" y="658" on="1"/>
        <pt x="1113" y="658" on="0"/>
        <pt x="1153" y="717" on="1"/>
        <pt x="1170" y="740" on="0"/>
        <pt x="1170" y="756" on="1"/>
        <pt x="1170" y="801" on="0"/>
        <pt x="1130" y="801" on="1"/>
        <pt x="1139" y="815" on="0"/>
        <pt x="1159" y="815" on="1"/>
        <pt x="1198" y="815" on="0"/>
        <pt x="1210" y="776" on="1"/>
        <pt x="1213" y="764" on="0"/>
        <pt x="1213" y="753" on="1"/>
        <pt x="1213" y="720" on="0"/>
        <pt x="1185" y="688" on="1"/>
        <pt x="1136" y="634" on="0"/>
        <pt x="1034" y="634" on="1"/>
        <pt x="1004" y="634" on="0"/>
        <pt x="980" y="638" on="1"/>
        <pt x="913" y="531" on="0"/>
        <pt x="872" y="334" on="1"/>
        <pt x="843" y="197" on="0"/>
        <pt x="843" y="104" on="1"/>
        <pt x="843" y="64" on="0"/>
        <pt x="848" y="32" on="1"/>
        <pt x="905" y="76" on="0"/>
        <pt x="1009" y="210" on="0"/>
        <pt x="1032" y="255" on="1"/>
        <pt x="1055" y="300" on="1"/>
        <pt x="1082" y="300" on="1"/>
        <pt x="1074" y="279" on="0"/>
        <pt x="1021" y="188" on="0"/>
        <pt x="972" y="119" on="0"/>
        <pt x="894" y="35" on="0"/>
        <pt x="854" y="6" on="1"/>
        <pt x="867" y="-32" on="0"/>
        <pt x="891" y="-32" on="1"/>
        <pt x="881" y="-52" on="0"/>
        <pt x="862" y="-52" on="1"/>
        <pt x="830" y="-52" on="0"/>
        <pt x="809" y="-22" on="1"/>
        <pt x="737" y="-59" on="0"/>
        <pt x="669" y="-59" on="1"/>
        <pt x="570" y="-59" on="0"/>
        <pt x="498" y="-7" on="1"/>
        <pt x="393" y="-127" on="0"/>
        <pt x="97" y="-127" on="0"/>
        <pt x="30" y="-22" on="1"/>
        <pt x="-7" y="37" on="0"/>
        <pt x="-7" y="105" on="1"/>
        <pt x="-7" y="133" on="0"/>
        <pt x="-1" y="162" on="1"/>
        <pt x="20" y="259" on="0"/>
        <pt x="94" y="300" on="1"/>
        <pt x="133" y="322" on="0"/>
        <pt x="181" y="322" on="1"/>
        <pt x="284" y="322" on="0"/>
        <pt x="320" y="242" on="1"/>
        <pt x="335" y="209" on="0"/>
        <pt x="335" y="140" on="0"/>
        <pt x="321" y="105" on="1"/>
        <pt x="287" y="21" on="0"/>
        <pt x="210" y="21" on="1"/>
        <pt x="198" y="21" on="0"/>
        <pt x="182" y="32" on="0"/>
        <pt x="178" y="43" on="1"/>
        <pt x="205" y="43" on="0"/>
        <pt x="229" y="57" on="1"/>
        <pt x="269" y="81" on="0"/>
        <pt x="292" y="144" on="1"/>
        <pt x="298" y="165" on="0"/>
        <pt x="298" y="192" on="0"/>
        <pt x="294" y="227" on="0"/>
        <pt x="272" y="273" on="0"/>
        <pt x="218" y="301" on="0"/>
        <pt x="181" y="301" on="1"/>
        <pt x="86" y="301" on="0"/>
        <pt x="41" y="217" on="1"/>
        <pt x="15" y="169" on="0"/>
        <pt x="15" y="83" on="0"/>
        <pt x="24" y="49" on="1"/>
        <pt x="50" y="-46" on="0"/>
        <pt x="133" y="-82" on="1"/>
        <pt x="172" y="-99" on="0"/>
        <pt x="219" y="-99" on="1"/>
        <pt x="354" y="-99" on="0"/>
        <pt x="463" y="23" on="1"/>
        <pt x="415" y="74" on="0"/>
        <pt x="397" y="146" on="1"/>
        <pt x="386" y="188" on="0"/>
        <pt x="386" y="221" on="1"/>
        <pt x="386" y="325" on="0"/>
        <pt x="446" y="386" on="1"/>
        <pt x="490" y="430" on="0"/>
        <pt x="617" y="430" on="0"/>
        <pt x="668" y="399" on="1"/>
        <pt x="757" y="606" on="0"/>
        <pt x="812" y="686" on="1"/>
        <pt x="805" y="688" on="0"/>
        <pt x="716" y="722" on="0"/>
        <pt x="704" y="726" on="1"/>
        <pt x="656" y="742" on="1"/>
        <pt x="572" y="770" on="0"/>
        <pt x="508" y="770" on="1"/>
        <pt x="378" y="770" on="0"/>
        <pt x="316" y="672" on="1"/>
        <pt x="280" y="617" on="0"/>
        <pt x="280" y="558" on="1"/>
        <pt x="280" y="541" on="0"/>
        <pt x="284" y="523" on="1"/>
        <pt x="295" y="458" on="0"/>
        <pt x="342" y="445" on="1"/>
        <pt x="351" y="442" on="0"/>
        <pt x="361" y="442" on="1"/>
        <pt x="355" y="420" on="0"/>
        <pt x="328" y="420" on="1"/>
        <pt x="267" y="420" on="0"/>
        <pt x="242" y="485" on="1"/>
        <pt x="230" y="516" on="0"/>
        <pt x="230" y="592" on="0"/>
        <pt x="250" y="639" on="1"/>
        <pt x="292" y="740" on="0"/>
        <pt x="398" y="777" on="1"/>
        <pt x="448" y="794" on="0"/>
        <pt x="535" y="794" on="0"/>
        <pt x="592" y="785" on="0"/>
        <pt x="672" y="760" on="0"/>
        <pt x="709" y="748" on="0"/>
        <pt x="816" y="707" on="0"/>
        <pt x="824" y="704" on="1"/>
        <pt x="910" y="818" on="0"/>
      </contour>
      <contour>
        <pt x="797" y="-1" on="1"/>
        <pt x="780" y="39" on="0"/>
        <pt x="780" y="154" on="0"/>
        <pt x="732" y="305" on="0"/>
        <pt x="686" y="353" on="1"/>
        <pt x="595" y="113" on="0"/>
        <pt x="516" y="13" on="1"/>
        <pt x="578" y="-36" on="0"/>
        <pt x="668" y="-36" on="1"/>
        <pt x="732" y="-36" on="0"/>
      </contour>
      <contour>
        <pt x="658" y="377" on="1"/>
        <pt x="620" y="404" on="0"/>
        <pt x="519" y="404" on="0"/>
        <pt x="480" y="366" on="1"/>
        <pt x="424" y="309" on="0"/>
        <pt x="424" y="217" on="1"/>
        <pt x="424" y="115" on="0"/>
        <pt x="481" y="46" on="1"/>
        <pt x="545" y="128" on="0"/>
        <pt x="604" y="255" on="1"/>
        <pt x="625" y="302" on="0"/>
      </contour>
      <contour>
        <pt x="788" y="218" on="1"/>
        <pt x="804" y="336" on="0"/>
        <pt x="884" y="571" on="0"/>
        <pt x="935" y="647" on="1"/>
        <pt x="893" y="657" on="0"/>
        <pt x="834" y="678" on="1"/>
        <pt x="787" y="608" on="0"/>
        <pt x="740" y="493" on="1"/>
        <pt x="726" y="457" on="0"/>
        <pt x="696" y="378" on="1"/>
        <pt x="758" y="323" on="0"/>
      </contour>
    </TTGlyph>
    <TTGlyph name="Atilde" xMin="-7" yMin="-127" xMax="1213" yMax="949">
      <contour>
        <pt x="920" y="920" on="1"/>
        <pt x="895" y="920" on="0"/>
        <pt x="871" y="878" on="1"/>
        <pt x="848" y="878" on="1"/>
        <pt x="850" y="884" on="0"/>
        <pt x="871" y="915" on="0"/>
        <pt x="881" y="924" on="1"/>
        <pt x="907" y="949" on="0"/>
        <pt x="942" y="949" on="1"/>
        <pt x="961" y="949" on="0"/>
        <pt x="1017" y="910" on="0"/>
        <pt x="1050" y="910" on="0"/>
        <pt x="1074" y="928" on="0"/>
        <pt x="1084" y="946" on="1"/>
        <pt x="1106" y="946" on="1"/>
        <pt x="1103" y="938" on="0"/>
        <pt x="1090" y="914" on="0"/>
        <pt x="1044" y="875" on="0"/>
        <pt x="995" y="875" on="0"/>
        <pt x="935" y="920" on="0"/>
      </contour>
      <contour>
        <pt x="1012" y="818" on="1"/>
        <pt x="1020" y="818" on="0"/>
        <pt x="1028" y="808" on="0"/>
        <pt x="1029" y="799" on="1"/>
        <pt x="925" y="799" on="0"/>
        <pt x="847" y="696" on="1"/>
        <pt x="899" y="677" on="0"/>
        <pt x="948" y="666" on="1"/>
        <pt x="1002" y="736" on="0"/>
        <pt x="1047" y="736" on="1"/>
        <pt x="1057" y="736" on="0"/>
        <pt x="1071" y="725" on="0"/>
        <pt x="1074" y="714" on="1"/>
        <pt x="1035" y="714" on="0"/>
        <pt x="993" y="659" on="1"/>
        <pt x="1000" y="658" on="0"/>
        <pt x="1014" y="658" on="1"/>
        <pt x="1113" y="658" on="0"/>
        <pt x="1153" y="717" on="1"/>
        <pt x="1170" y="740" on="0"/>
        <pt x="1170" y="756" on="1"/>
        <pt x="1170" y="801" on="0"/>
        <pt x="1130" y="801" on="1"/>
        <pt x="1139" y="815" on="0"/>
        <pt x="1159" y="815" on="1"/>
        <pt x="1198" y="815" on="0"/>
        <pt x="1210" y="776" on="1"/>
        <pt x="1213" y="764" on="0"/>
        <pt x="1213" y="753" on="1"/>
        <pt x="1213" y="720" on="0"/>
        <pt x="1185" y="688" on="1"/>
        <pt x="1136" y="634" on="0"/>
        <pt x="1034" y="634" on="1"/>
        <pt x="1004" y="634" on="0"/>
        <pt x="980" y="638" on="1"/>
        <pt x="913" y="531" on="0"/>
        <pt x="872" y="334" on="1"/>
        <pt x="843" y="197" on="0"/>
        <pt x="843" y="104" on="1"/>
        <pt x="843" y="64" on="0"/>
        <pt x="848" y="32" on="1"/>
        <pt x="905" y="76" on="0"/>
        <pt x="1009" y="210" on="0"/>
        <pt x="1032" y="255" on="1"/>
        <pt x="1055" y="300" on="1"/>
        <pt x="1082" y="300" on="1"/>
        <pt x="1074" y="279" on="0"/>
        <pt x="1021" y="188" on="0"/>
        <pt x="972" y="119" on="0"/>
        <pt x="894" y="35" on="0"/>
        <pt x="854" y="6" on="1"/>
        <pt x="867" y="-32" on="0"/>
        <pt x="891" y="-32" on="1"/>
        <pt x="881" y="-52" on="0"/>
        <pt x="862" y="-52" on="1"/>
        <pt x="830" y="-52" on="0"/>
        <pt x="809" y="-22" on="1"/>
        <pt x="737" y="-59" on="0"/>
        <pt x="669" y="-59" on="1"/>
        <pt x="570" y="-59" on="0"/>
        <pt x="498" y="-7" on="1"/>
        <pt x="393" y="-127" on="0"/>
        <pt x="97" y="-127" on="0"/>
        <pt x="30" y="-22" on="1"/>
        <pt x="-7" y="37" on="0"/>
        <pt x="-7" y="105" on="1"/>
        <pt x="-7" y="133" on="0"/>
        <pt x="-1" y="162" on="1"/>
        <pt x="20" y="259" on="0"/>
        <pt x="94" y="300" on="1"/>
        <pt x="133" y="322" on="0"/>
        <pt x="181" y="322" on="1"/>
        <pt x="284" y="322" on="0"/>
        <pt x="320" y="242" on="1"/>
        <pt x="335" y="209" on="0"/>
        <pt x="335" y="140" on="0"/>
        <pt x="321" y="105" on="1"/>
        <pt x="287" y="21" on="0"/>
        <pt x="210" y="21" on="1"/>
        <pt x="198" y="21" on="0"/>
        <pt x="182" y="32" on="0"/>
        <pt x="178" y="43" on="1"/>
        <pt x="205" y="43" on="0"/>
        <pt x="229" y="57" on="1"/>
        <pt x="269" y="81" on="0"/>
        <pt x="292" y="144" on="1"/>
        <pt x="298" y="165" on="0"/>
        <pt x="298" y="192" on="0"/>
        <pt x="294" y="227" on="0"/>
        <pt x="272" y="273" on="0"/>
        <pt x="218" y="301" on="0"/>
        <pt x="181" y="301" on="1"/>
        <pt x="86" y="301" on="0"/>
        <pt x="41" y="217" on="1"/>
        <pt x="15" y="169" on="0"/>
        <pt x="15" y="83" on="0"/>
        <pt x="24" y="49" on="1"/>
        <pt x="50" y="-46" on="0"/>
        <pt x="133" y="-82" on="1"/>
        <pt x="172" y="-99" on="0"/>
        <pt x="219" y="-99" on="1"/>
        <pt x="354" y="-99" on="0"/>
        <pt x="463" y="23" on="1"/>
        <pt x="415" y="74" on="0"/>
        <pt x="397" y="146" on="1"/>
        <pt x="386" y="188" on="0"/>
        <pt x="386" y="221" on="1"/>
        <pt x="386" y="325" on="0"/>
        <pt x="446" y="386" on="1"/>
        <pt x="490" y="430" on="0"/>
        <pt x="617" y="430" on="0"/>
        <pt x="668" y="399" on="1"/>
        <pt x="757" y="606" on="0"/>
        <pt x="812" y="686" on="1"/>
        <pt x="805" y="688" on="0"/>
        <pt x="716" y="722" on="0"/>
        <pt x="704" y="726" on="1"/>
        <pt x="656" y="742" on="1"/>
        <pt x="572" y="770" on="0"/>
        <pt x="508" y="770" on="1"/>
        <pt x="378" y="770" on="0"/>
        <pt x="316" y="672" on="1"/>
        <pt x="280" y="617" on="0"/>
        <pt x="280" y="558" on="1"/>
        <pt x="280" y="541" on="0"/>
        <pt x="284" y="523" on="1"/>
        <pt x="295" y="458" on="0"/>
        <pt x="342" y="445" on="1"/>
        <pt x="351" y="442" on="0"/>
        <pt x="361" y="442" on="1"/>
        <pt x="355" y="420" on="0"/>
        <pt x="328" y="420" on="1"/>
        <pt x="267" y="420" on="0"/>
        <pt x="242" y="485" on="1"/>
        <pt x="230" y="516" on="0"/>
        <pt x="230" y="592" on="0"/>
        <pt x="250" y="639" on="1"/>
        <pt x="292" y="740" on="0"/>
        <pt x="398" y="777" on="1"/>
        <pt x="448" y="794" on="0"/>
        <pt x="535" y="794" on="0"/>
        <pt x="592" y="785" on="0"/>
        <pt x="672" y="760" on="0"/>
        <pt x="709" y="748" on="0"/>
        <pt x="816" y="707" on="0"/>
        <pt x="824" y="704" on="1"/>
        <pt x="910" y="818" on="0"/>
      </contour>
      <contour>
        <pt x="797" y="-1" on="1"/>
        <pt x="780" y="39" on="0"/>
        <pt x="780" y="154" on="0"/>
        <pt x="732" y="305" on="0"/>
        <pt x="686" y="353" on="1"/>
        <pt x="595" y="113" on="0"/>
        <pt x="516" y="13" on="1"/>
        <pt x="578" y="-36" on="0"/>
        <pt x="668" y="-36" on="1"/>
        <pt x="732" y="-36" on="0"/>
      </contour>
      <contour>
        <pt x="658" y="377" on="1"/>
        <pt x="620" y="404" on="0"/>
        <pt x="519" y="404" on="0"/>
        <pt x="480" y="366" on="1"/>
        <pt x="424" y="309" on="0"/>
        <pt x="424" y="217" on="1"/>
        <pt x="424" y="115" on="0"/>
        <pt x="481" y="46" on="1"/>
        <pt x="545" y="128" on="0"/>
        <pt x="604" y="255" on="1"/>
        <pt x="625" y="302" on="0"/>
      </contour>
      <contour>
        <pt x="788" y="218" on="1"/>
        <pt x="804" y="336" on="0"/>
        <pt x="884" y="571" on="0"/>
        <pt x="935" y="647" on="1"/>
        <pt x="893" y="657" on="0"/>
        <pt x="834" y="678" on="1"/>
        <pt x="787" y="608" on="0"/>
        <pt x="740" y="493" on="1"/>
        <pt x="726" y="457" on="0"/>
        <pt x="696" y="378" on="1"/>
        <pt x="758" y="323" on="0"/>
      </contour>
    </TTGlyph>
    <TTGlyph name="B" xMin="-30" yMin="-121" xMax="766" yMax="816">
      <contour>
        <pt x="665" y="451" on="1"/>
        <pt x="766" y="363" on="0"/>
        <pt x="766" y="202" on="1"/>
        <pt x="766" y="47" on="0"/>
        <pt x="658" y="-56" on="1"/>
        <pt x="590" y="-121" on="0"/>
        <pt x="401" y="-121" on="0"/>
        <pt x="383" y="-37" on="1"/>
        <pt x="379" y="-18" on="0"/>
        <pt x="379" y="1" on="1"/>
        <pt x="379" y="66" on="0"/>
        <pt x="422" y="143" on="1"/>
        <pt x="477" y="243" on="0"/>
        <pt x="562" y="282" on="1"/>
        <pt x="602" y="300" on="0"/>
        <pt x="641" y="300" on="1"/>
        <pt x="647" y="300" on="0"/>
        <pt x="651" y="288" on="0"/>
        <pt x="646" y="277" on="0"/>
        <pt x="640" y="277" on="1"/>
        <pt x="549" y="277" on="0"/>
        <pt x="475" y="181" on="1"/>
        <pt x="407" y="92" on="0"/>
        <pt x="407" y="0" on="1"/>
        <pt x="407" y="-72" on="0"/>
        <pt x="461" y="-88" on="1"/>
        <pt x="473" y="-91" on="0"/>
        <pt x="488" y="-91" on="1"/>
        <pt x="540" y="-91" on="0"/>
        <pt x="586" y="-54" on="1"/>
        <pt x="673" y="16" on="0"/>
        <pt x="702" y="173" on="1"/>
        <pt x="707" y="203" on="0"/>
        <pt x="707" y="272" on="0"/>
        <pt x="698" y="310" on="1"/>
        <pt x="683" y="378" on="0"/>
        <pt x="641" y="425" on="1"/>
        <pt x="540" y="326" on="0"/>
        <pt x="402" y="326" on="1"/>
        <pt x="395" y="326" on="1"/>
        <pt x="368" y="102" on="0"/>
        <pt x="302" y="18" on="1"/>
        <pt x="274" y="-16" on="0"/>
        <pt x="186" y="-62" on="0"/>
        <pt x="79" y="-62" on="0"/>
        <pt x="8" y="-26" on="0"/>
        <pt x="-8" y="2" on="1"/>
        <pt x="-30" y="43" on="0"/>
        <pt x="-30" y="111" on="0"/>
        <pt x="-10" y="170" on="0"/>
        <pt x="28" y="227" on="0"/>
        <pt x="90" y="263" on="0"/>
        <pt x="126" y="263" on="1"/>
        <pt x="146" y="263" on="0"/>
        <pt x="154" y="249" on="1"/>
        <pt x="156" y="244" on="1"/>
        <pt x="69" y="244" on="0"/>
        <pt x="23" y="170" on="1"/>
        <pt x="-3" y="128" on="0"/>
        <pt x="-3" y="84" on="1"/>
        <pt x="-3" y="64" on="0"/>
        <pt x="2" y="43" on="1"/>
        <pt x="24" y="-35" on="0"/>
        <pt x="112" y="-35" on="1"/>
        <pt x="186" y="-35" on="0"/>
        <pt x="228" y="21" on="1"/>
        <pt x="274" y="80" on="0"/>
        <pt x="294" y="158" on="1"/>
        <pt x="316" y="240" on="0"/>
        <pt x="332" y="336" on="1"/>
        <pt x="280" y="353" on="0"/>
        <pt x="264" y="391" on="1"/>
        <pt x="258" y="405" on="0"/>
        <pt x="258" y="443" on="0"/>
        <pt x="276" y="466" on="1"/>
        <pt x="303" y="504" on="0"/>
        <pt x="364" y="519" on="1"/>
        <pt x="383" y="607" on="0"/>
        <pt x="439" y="700" on="0"/>
        <pt x="486" y="700" on="1"/>
        <pt x="500" y="700" on="0"/>
        <pt x="504" y="688" on="1"/>
        <pt x="506" y="683" on="1"/>
        <pt x="468" y="683" on="0"/>
        <pt x="428" y="602" on="0"/>
        <pt x="417" y="526" on="1"/>
        <pt x="423" y="527" on="0"/>
        <pt x="436" y="527" on="1"/>
        <pt x="544" y="527" on="0"/>
        <pt x="624" y="481" on="1"/>
        <pt x="677" y="560" on="0"/>
        <pt x="677" y="639" on="1"/>
        <pt x="677" y="697" on="0"/>
        <pt x="598" y="791" on="0"/>
        <pt x="508" y="791" on="1"/>
        <pt x="326" y="791" on="0"/>
        <pt x="220" y="660" on="1"/>
        <pt x="139" y="561" on="0"/>
        <pt x="139" y="444" on="1"/>
        <pt x="139" y="361" on="0"/>
        <pt x="186" y="329" on="1"/>
        <pt x="206" y="315" on="0"/>
        <pt x="233" y="315" on="1"/>
        <pt x="223" y="292" on="0"/>
        <pt x="202" y="292" on="1"/>
        <pt x="128" y="292" on="0"/>
        <pt x="102" y="369" on="1"/>
        <pt x="90" y="403" on="0"/>
        <pt x="90" y="498" on="0"/>
        <pt x="117" y="564" on="1"/>
        <pt x="169" y="695" on="0"/>
        <pt x="292" y="763" on="1"/>
        <pt x="387" y="816" on="0"/>
        <pt x="508" y="816" on="1"/>
        <pt x="584" y="816" on="0"/>
        <pt x="636" y="792" on="1"/>
        <pt x="737" y="746" on="0"/>
        <pt x="737" y="631" on="1"/>
        <pt x="737" y="539" on="0"/>
      </contour>
      <contour>
        <pt x="540" y="504" on="0"/>
        <pt x="436" y="504" on="1"/>
        <pt x="436" y="504" on="0"/>
        <pt x="414" y="503" on="1"/>
        <pt x="405" y="423" on="0"/>
        <pt x="398" y="352" on="1"/>
        <pt x="401" y="352" on="1"/>
        <pt x="523" y="352" on="0"/>
        <pt x="606" y="456" on="1"/>
      </contour>
      <contour>
        <pt x="359" y="492" on="1"/>
        <pt x="287" y="468" on="0"/>
        <pt x="287" y="417" on="1"/>
        <pt x="287" y="380" on="0"/>
        <pt x="336" y="362" on="1"/>
        <pt x="352" y="460" on="0"/>
      </contour>
    </TTGlyph>
    <TTGlyph name="C" xMin="-119" yMin="-274" xMax="683" yMax="939">
      <contour>
        <pt x="181" y="914" on="1"/>
        <pt x="105" y="914" on="0"/>
        <pt x="44" y="878" on="1"/>
        <pt x="-69" y="810" on="0"/>
        <pt x="-89" y="664" on="1"/>
        <pt x="-92" y="641" on="0"/>
        <pt x="-92" y="575" on="0"/>
        <pt x="-80" y="534" on="1"/>
        <pt x="-63" y="473" on="0"/>
        <pt x="36" y="375" on="0"/>
        <pt x="110" y="357" on="1"/>
        <pt x="141" y="471" on="0"/>
        <pt x="267" y="670" on="0"/>
        <pt x="459" y="803" on="0"/>
        <pt x="565" y="803" on="1"/>
        <pt x="657" y="803" on="0"/>
        <pt x="677" y="729" on="1"/>
        <pt x="683" y="710" on="0"/>
        <pt x="683" y="689" on="1"/>
        <pt x="683" y="628" on="0"/>
        <pt x="637" y="554" on="1"/>
        <pt x="565" y="435" on="0"/>
        <pt x="427" y="373" on="1"/>
        <pt x="319" y="324" on="0"/>
        <pt x="194" y="324" on="1"/>
        <pt x="174" y="324" on="1"/>
        <pt x="153" y="250" on="0"/>
        <pt x="153" y="181" on="1"/>
        <pt x="153" y="51" on="0"/>
        <pt x="219" y="1" on="1"/>
        <pt x="228" y="83" on="0"/>
        <pt x="294" y="227" on="0"/>
        <pt x="411" y="325" on="0"/>
        <pt x="482" y="325" on="1"/>
        <pt x="564" y="325" on="0"/>
        <pt x="584" y="252" on="1"/>
        <pt x="589" y="232" on="0"/>
        <pt x="589" y="211" on="1"/>
        <pt x="589" y="156" on="0"/>
        <pt x="554" y="93" on="1"/>
        <pt x="499" y="-4" on="0"/>
        <pt x="401" y="-39" on="1"/>
        <pt x="330" y="-63" on="0"/>
        <pt x="260" y="-47" on="1"/>
        <pt x="259" y="-60" on="0"/>
        <pt x="259" y="-73" on="1"/>
        <pt x="259" y="-146" on="0"/>
        <pt x="290" y="-196" on="1"/>
        <pt x="325" y="-255" on="0"/>
        <pt x="404" y="-255" on="1"/>
        <pt x="401" y="-274" on="0"/>
        <pt x="371" y="-274" on="1"/>
        <pt x="291" y="-274" on="0"/>
        <pt x="216" y="-142" on="0"/>
        <pt x="216" y="-52" on="1"/>
        <pt x="216" y="-42" on="0"/>
        <pt x="216" y="-33" on="1"/>
        <pt x="130" y="4" on="0"/>
        <pt x="102" y="109" on="1"/>
        <pt x="88" y="159" on="0"/>
        <pt x="88" y="271" on="0"/>
        <pt x="104" y="334" on="1"/>
        <pt x="34" y="350" on="0"/>
        <pt x="-68" y="434" on="0"/>
        <pt x="-90" y="488" on="1"/>
        <pt x="-119" y="559" on="0"/>
        <pt x="-119" y="679" on="0"/>
        <pt x="-81" y="785" on="0"/>
        <pt x="-10" y="880" on="0"/>
        <pt x="110" y="939" on="0"/>
        <pt x="182" y="939" on="1"/>
        <pt x="324" y="939" on="0"/>
        <pt x="376" y="829" on="1"/>
        <pt x="382" y="817" on="0"/>
        <pt x="362" y="813" on="1"/>
        <pt x="338" y="811" on="0"/>
        <pt x="332" y="824" on="1"/>
        <pt x="302" y="914" on="0"/>
      </contour>
      <contour>
        <pt x="552" y="777" on="1"/>
        <pt x="495" y="777" on="0"/>
        <pt x="378" y="702" on="0"/>
        <pt x="330" y="641" on="1"/>
        <pt x="228" y="511" on="0"/>
        <pt x="181" y="348" on="1"/>
        <pt x="195" y="348" on="1"/>
        <pt x="391" y="348" on="0"/>
        <pt x="525" y="473" on="1"/>
        <pt x="614" y="556" on="0"/>
        <pt x="634" y="652" on="1"/>
        <pt x="638" y="673" on="0"/>
        <pt x="638" y="690" on="1"/>
        <pt x="638" y="742" on="0"/>
        <pt x="600" y="765" on="1"/>
        <pt x="581" y="777" on="0"/>
      </contour>
      <contour>
        <pt x="491" y="298" on="1"/>
        <pt x="410" y="298" on="0"/>
        <pt x="277" y="100" on="0"/>
        <pt x="262" y="-21" on="1"/>
        <pt x="288" y="-29" on="0"/>
        <pt x="317" y="-29" on="1"/>
        <pt x="427" y="-29" on="0"/>
        <pt x="502" y="67" on="1"/>
        <pt x="561" y="141" on="0"/>
        <pt x="561" y="285" on="0"/>
        <pt x="509" y="296" on="1"/>
        <pt x="501" y="298" on="0"/>
      </contour>
    </TTGlyph>
    <TTGlyph name="Ccedilla" xMin="-169" yMin="-233" xMax="633" yMax="939">
      <contour>
        <pt x="124" y="324" on="1"/>
        <pt x="104" y="244" on="0"/>
        <pt x="104" y="123" on="0"/>
        <pt x="131" y="29" on="0"/>
        <pt x="208" y="-29" on="0"/>
        <pt x="267" y="-29" on="1"/>
        <pt x="377" y="-29" on="0"/>
        <pt x="452" y="67" on="1"/>
        <pt x="511" y="141" on="0"/>
        <pt x="511" y="285" on="0"/>
        <pt x="459" y="296" on="1"/>
        <pt x="451" y="298" on="0"/>
        <pt x="441" y="298" on="1"/>
        <pt x="432" y="325" on="1"/>
        <pt x="515" y="325" on="0"/>
        <pt x="534" y="252" on="1"/>
        <pt x="539" y="232" on="0"/>
        <pt x="539" y="211" on="1"/>
        <pt x="539" y="156" on="0"/>
        <pt x="503" y="93" on="1"/>
        <pt x="449" y="-4" on="0"/>
        <pt x="351" y="-39" on="1"/>
        <pt x="311" y="-52" on="0"/>
        <pt x="269" y="-53" on="1"/>
        <pt x="238" y="-109" on="1"/>
        <pt x="262" y="-96" on="0"/>
        <pt x="294" y="-96" on="1"/>
        <pt x="343" y="-96" on="0"/>
        <pt x="352" y="-133" on="1"/>
        <pt x="353" y="-140" on="0"/>
        <pt x="353" y="-147" on="1"/>
        <pt x="353" y="-176" on="0"/>
        <pt x="287" y="-233" on="0"/>
        <pt x="179" y="-233" on="0"/>
        <pt x="173" y="-203" on="1"/>
        <pt x="169" y="-182" on="0"/>
        <pt x="186" y="-175" on="1"/>
        <pt x="190" y="-173" on="0"/>
        <pt x="195" y="-173" on="1"/>
        <pt x="206" y="-173" on="0"/>
        <pt x="208" y="-182" on="1"/>
        <pt x="208" y="-185" on="1"/>
        <pt x="195" y="-185" on="0"/>
        <pt x="193" y="-197" on="1"/>
        <pt x="191" y="-214" on="0"/>
        <pt x="213" y="-219" on="1"/>
        <pt x="226" y="-220" on="1"/>
        <pt x="284" y="-220" on="0"/>
        <pt x="309" y="-177" on="1"/>
        <pt x="319" y="-161" on="0"/>
        <pt x="319" y="-135" on="0"/>
        <pt x="300" y="-114" on="0"/>
        <pt x="255" y="-114" on="0"/>
        <pt x="223" y="-130" on="1"/>
        <pt x="221" y="-130" on="1"/>
        <pt x="210" y="-122" on="0"/>
        <pt x="227" y="-82" on="0"/>
        <pt x="246" y="-52" on="1"/>
        <pt x="113" y="-43" on="0"/>
        <pt x="66" y="68" on="1"/>
        <pt x="39" y="132" on="0"/>
        <pt x="39" y="268" on="0"/>
        <pt x="54" y="334" on="1"/>
        <pt x="-16" y="350" on="0"/>
        <pt x="-118" y="434" on="0"/>
        <pt x="-140" y="488" on="1"/>
        <pt x="-169" y="559" on="0"/>
        <pt x="-169" y="679" on="0"/>
        <pt x="-131" y="785" on="0"/>
        <pt x="-60" y="880" on="0"/>
        <pt x="60" y="939" on="0"/>
        <pt x="132" y="939" on="1"/>
        <pt x="274" y="939" on="0"/>
        <pt x="326" y="829" on="1"/>
        <pt x="332" y="817" on="0"/>
        <pt x="312" y="813" on="1"/>
        <pt x="288" y="811" on="0"/>
        <pt x="282" y="824" on="1"/>
        <pt x="252" y="914" on="0"/>
        <pt x="131" y="914" on="1"/>
        <pt x="55" y="914" on="0"/>
        <pt x="-6" y="878" on="1"/>
        <pt x="-119" y="810" on="0"/>
        <pt x="-139" y="664" on="1"/>
        <pt x="-142" y="641" on="0"/>
        <pt x="-142" y="575" on="0"/>
        <pt x="-130" y="534" on="1"/>
        <pt x="-113" y="473" on="0"/>
        <pt x="-14" y="375" on="0"/>
        <pt x="60" y="357" on="1"/>
        <pt x="91" y="471" on="0"/>
        <pt x="217" y="670" on="0"/>
        <pt x="409" y="803" on="0"/>
        <pt x="515" y="803" on="1"/>
        <pt x="607" y="803" on="0"/>
        <pt x="627" y="729" on="1"/>
        <pt x="633" y="710" on="0"/>
        <pt x="633" y="689" on="1"/>
        <pt x="633" y="628" on="0"/>
        <pt x="587" y="554" on="1"/>
        <pt x="515" y="435" on="0"/>
        <pt x="377" y="373" on="1"/>
        <pt x="269" y="324" on="0"/>
        <pt x="144" y="324" on="1"/>
      </contour>
      <contour>
        <pt x="502" y="777" on="1"/>
        <pt x="445" y="777" on="0"/>
        <pt x="328" y="702" on="0"/>
        <pt x="280" y="641" on="1"/>
        <pt x="178" y="511" on="0"/>
        <pt x="131" y="348" on="1"/>
        <pt x="145" y="348" on="1"/>
        <pt x="341" y="348" on="0"/>
        <pt x="475" y="473" on="1"/>
        <pt x="564" y="556" on="0"/>
        <pt x="584" y="652" on="1"/>
        <pt x="588" y="673" on="0"/>
        <pt x="588" y="690" on="1"/>
        <pt x="588" y="742" on="0"/>
        <pt x="550" y="765" on="1"/>
        <pt x="531" y="777" on="0"/>
      </contour>
    </TTGlyph>
    <TTGlyph name="D" xMin="-42" yMin="-41" xMax="770" yMax="809">
      <contour>
        <pt x="37" y="91" on="1"/>
        <pt x="48" y="91" on="0"/>
        <pt x="71" y="88" on="0"/>
        <pt x="87" y="86" on="0"/>
        <pt x="115" y="77" on="0"/>
        <pt x="126" y="74" on="0"/>
        <pt x="159" y="61" on="0"/>
        <pt x="165" y="58" on="0"/>
        <pt x="204" y="42" on="0"/>
        <pt x="205" y="41" on="1"/>
        <pt x="254" y="97" on="0"/>
        <pt x="288" y="215" on="1"/>
        <pt x="139" y="225" on="0"/>
        <pt x="74" y="335" on="1"/>
        <pt x="39" y="396" on="0"/>
        <pt x="39" y="467" on="1"/>
        <pt x="39" y="508" on="0"/>
        <pt x="50" y="552" on="1"/>
        <pt x="84" y="677" on="0"/>
        <pt x="191" y="748" on="1"/>
        <pt x="284" y="809" on="0"/>
        <pt x="409" y="809" on="1"/>
        <pt x="497" y="809" on="0"/>
        <pt x="636" y="751" on="0"/>
        <pt x="719" y="654" on="0"/>
        <pt x="744" y="591" on="1"/>
        <pt x="770" y="525" on="0"/>
        <pt x="770" y="383" on="0"/>
        <pt x="747" y="248" on="0"/>
        <pt x="682" y="122" on="0"/>
        <pt x="598" y="25" on="0"/>
        <pt x="479" y="-33" on="0"/>
        <pt x="329" y="-33" on="0"/>
        <pt x="239" y="2" on="1"/>
        <pt x="182" y="-41" on="0"/>
        <pt x="101" y="-41" on="1"/>
        <pt x="-6" y="-41" on="0"/>
        <pt x="-35" y="9" on="1"/>
        <pt x="-42" y="22" on="0"/>
        <pt x="-42" y="53" on="0"/>
        <pt x="-2" y="91" on="0"/>
      </contour>
      <contour>
        <pt x="260" y="19" on="1"/>
        <pt x="335" y="-7" on="0"/>
        <pt x="463" y="-7" on="0"/>
        <pt x="559" y="47" on="0"/>
        <pt x="629" y="139" on="0"/>
        <pt x="685" y="258" on="0"/>
        <pt x="707" y="389" on="0"/>
        <pt x="707" y="520" on="0"/>
        <pt x="666" y="639" on="0"/>
        <pt x="596" y="731" on="0"/>
        <pt x="476" y="785" on="0"/>
        <pt x="399" y="785" on="1"/>
        <pt x="235" y="785" on="0"/>
        <pt x="148" y="669" on="1"/>
        <pt x="87" y="589" on="0"/>
        <pt x="87" y="489" on="1"/>
        <pt x="87" y="353" on="0"/>
        <pt x="180" y="283" on="1"/>
        <pt x="230" y="246" on="0"/>
        <pt x="295" y="239" on="1"/>
        <pt x="307" y="287" on="0"/>
        <pt x="340" y="450" on="0"/>
        <pt x="364" y="555" on="0"/>
        <pt x="382" y="610" on="1"/>
        <pt x="419" y="721" on="0"/>
        <pt x="493" y="721" on="1"/>
        <pt x="507" y="721" on="0"/>
        <pt x="512" y="708" on="1"/>
        <pt x="513" y="704" on="1"/>
        <pt x="449" y="704" on="0"/>
        <pt x="424" y="600" on="1"/>
        <pt x="411" y="549" on="0"/>
        <pt x="396" y="443" on="0"/>
        <pt x="375" y="292" on="0"/>
        <pt x="363" y="240" on="1"/>
        <pt x="433" y="250" on="0"/>
        <pt x="528" y="336" on="0"/>
        <pt x="547" y="397" on="1"/>
        <pt x="548" y="402" on="0"/>
        <pt x="559" y="404" on="0"/>
        <pt x="566" y="398" on="0"/>
        <pt x="565" y="392" on="1"/>
        <pt x="543" y="324" on="0"/>
        <pt x="437" y="228" on="0"/>
        <pt x="357" y="217" on="1"/>
        <pt x="325" y="82" on="0"/>
      </contour>
      <contour>
        <pt x="-12" y="30" on="1"/>
        <pt x="-12" y="11" on="0"/>
        <pt x="42" y="-14" on="0"/>
        <pt x="142" y="-14" on="0"/>
        <pt x="187" y="23" on="1"/>
        <pt x="87" y="66" on="0"/>
        <pt x="0" y="66" on="0"/>
        <pt x="-10" y="41" on="1"/>
        <pt x="-12" y="35" on="0"/>
      </contour>
    </TTGlyph>
    <TTGlyph name="E" xMin="12" yMin="-321" xMax="607" yMax="939">
      <contour>
        <pt x="279" y="939" on="1"/>
        <pt x="285" y="939" on="0"/>
        <pt x="292" y="930" on="0"/>
        <pt x="292" y="926" on="1"/>
        <pt x="292" y="922" on="1"/>
        <pt x="227" y="922" on="0"/>
        <pt x="180" y="884" on="1"/>
        <pt x="114" y="830" on="0"/>
        <pt x="114" y="754" on="1"/>
        <pt x="114" y="721" on="0"/>
        <pt x="128" y="688" on="1"/>
        <pt x="150" y="634" on="0"/>
        <pt x="209" y="605" on="1"/>
        <pt x="233" y="694" on="0"/>
        <pt x="384" y="821" on="0"/>
        <pt x="494" y="821" on="1"/>
        <pt x="577" y="821" on="0"/>
        <pt x="600" y="765" on="1"/>
        <pt x="607" y="748" on="0"/>
        <pt x="607" y="730" on="1"/>
        <pt x="607" y="693" on="0"/>
        <pt x="577" y="652" on="1"/>
        <pt x="503" y="554" on="0"/>
        <pt x="340" y="554" on="1"/>
        <pt x="290" y="554" on="0"/>
        <pt x="253" y="563" on="1"/>
        <pt x="250" y="544" on="0"/>
        <pt x="250" y="502" on="0"/>
        <pt x="257" y="481" on="1"/>
        <pt x="318" y="503" on="0"/>
        <pt x="455" y="503" on="0"/>
        <pt x="470" y="468" on="1"/>
        <pt x="473" y="460" on="0"/>
        <pt x="473" y="453" on="1"/>
        <pt x="473" y="432" on="0"/>
        <pt x="409" y="390" on="0"/>
        <pt x="275" y="390" on="0"/>
        <pt x="234" y="436" on="1"/>
        <pt x="145" y="379" on="0"/>
        <pt x="103" y="268" on="1"/>
        <pt x="75" y="194" on="0"/>
        <pt x="75" y="124" on="1"/>
        <pt x="75" y="89" on="0"/>
        <pt x="82" y="56" on="1"/>
        <pt x="103" y="-46" on="0"/>
        <pt x="180" y="-81" on="1"/>
        <pt x="180" y="-78" on="0"/>
        <pt x="180" y="-75" on="1"/>
        <pt x="180" y="18" on="0"/>
        <pt x="241" y="196" on="0"/>
        <pt x="373" y="325" on="0"/>
        <pt x="545" y="325" on="0"/>
        <pt x="570" y="247" on="1"/>
        <pt x="579" y="219" on="0"/>
        <pt x="579" y="189" on="1"/>
        <pt x="579" y="134" on="0"/>
        <pt x="549" y="69" on="1"/>
        <pt x="497" y="-42" on="0"/>
        <pt x="392" y="-92" on="1"/>
        <pt x="328" y="-122" on="0"/>
        <pt x="254" y="-122" on="1"/>
        <pt x="242" y="-122" on="0"/>
        <pt x="222" y="-120" on="1"/>
        <pt x="225" y="-202" on="0"/>
        <pt x="293" y="-304" on="0"/>
        <pt x="357" y="-304" on="1"/>
        <pt x="353" y="-321" on="0"/>
        <pt x="332" y="-321" on="1"/>
        <pt x="265" y="-321" on="0"/>
        <pt x="188" y="-205" on="0"/>
        <pt x="182" y="-113" on="1"/>
        <pt x="110" y="-95" on="0"/>
        <pt x="66" y="-42" on="1"/>
        <pt x="12" y="22" on="0"/>
        <pt x="12" y="121" on="1"/>
        <pt x="12" y="172" on="0"/>
        <pt x="42" y="297" on="0"/>
        <pt x="144" y="428" on="0"/>
        <pt x="216" y="464" on="1"/>
        <pt x="200" y="498" on="0"/>
        <pt x="200" y="559" on="0"/>
        <pt x="203" y="580" on="1"/>
        <pt x="158" y="601" on="0"/>
        <pt x="130" y="636" on="1"/>
        <pt x="92" y="685" on="0"/>
        <pt x="92" y="745" on="1"/>
        <pt x="92" y="812" on="0"/>
        <pt x="130" y="866" on="1"/>
        <pt x="154" y="898" on="0"/>
        <pt x="232" y="939" on="0"/>
      </contour>
      <contour>
        <pt x="467" y="301" on="1"/>
        <pt x="400" y="301" on="0"/>
        <pt x="285" y="176" on="0"/>
        <pt x="224" y="-4" on="0"/>
        <pt x="222" y="-93" on="1"/>
        <pt x="236" y="-96" on="0"/>
        <pt x="252" y="-96" on="1"/>
        <pt x="398" y="-96" on="0"/>
        <pt x="485" y="17" on="1"/>
        <pt x="549" y="100" on="0"/>
        <pt x="549" y="272" on="0"/>
        <pt x="499" y="294" on="1"/>
        <pt x="485" y="301" on="0"/>
      </contour>
      <contour>
        <pt x="339" y="579" on="1"/>
        <pt x="455" y="579" on="0"/>
        <pt x="521" y="651" on="1"/>
        <pt x="560" y="693" on="0"/>
        <pt x="560" y="733" on="1"/>
        <pt x="560" y="742" on="0"/>
        <pt x="559" y="750" on="1"/>
        <pt x="547" y="797" on="0"/>
        <pt x="487" y="798" on="1"/>
        <pt x="405" y="798" on="0"/>
        <pt x="278" y="670" on="0"/>
        <pt x="258" y="587" on="1"/>
        <pt x="295" y="579" on="0"/>
      </contour>
      <contour>
        <pt x="386" y="481" on="1"/>
        <pt x="324" y="481" on="0"/>
        <pt x="269" y="456" on="1"/>
        <pt x="296" y="414" on="0"/>
        <pt x="423" y="414" on="0"/>
        <pt x="441" y="442" on="1"/>
        <pt x="445" y="449" on="0"/>
        <pt x="445" y="454" on="1"/>
        <pt x="445" y="467" on="0"/>
        <pt x="410" y="481" on="0"/>
      </contour>
    </TTGlyph>
    <TTGlyph name="Eacute" xMin="12" yMin="-321" xMax="607" yMax="1027">
      <contour>
        <pt x="581" y="987" on="1"/>
        <pt x="551" y="950" on="0"/>
        <pt x="476" y="880" on="0"/>
        <pt x="455" y="880" on="0"/>
        <pt x="455" y="902" on="0"/>
        <pt x="502" y="975" on="0"/>
        <pt x="535" y="1012" on="1"/>
        <pt x="547" y="1027" on="0"/>
        <pt x="569" y="1027" on="0"/>
        <pt x="589" y="1018" on="0"/>
        <pt x="589" y="999" on="0"/>
      </contour>
      <contour>
        <pt x="279" y="939" on="1"/>
        <pt x="285" y="939" on="0"/>
        <pt x="292" y="930" on="0"/>
        <pt x="292" y="926" on="1"/>
        <pt x="292" y="922" on="1"/>
        <pt x="227" y="922" on="0"/>
        <pt x="180" y="884" on="1"/>
        <pt x="114" y="830" on="0"/>
        <pt x="114" y="754" on="1"/>
        <pt x="114" y="721" on="0"/>
        <pt x="128" y="688" on="1"/>
        <pt x="150" y="634" on="0"/>
        <pt x="209" y="605" on="1"/>
        <pt x="233" y="694" on="0"/>
        <pt x="384" y="821" on="0"/>
        <pt x="494" y="821" on="1"/>
        <pt x="577" y="821" on="0"/>
        <pt x="600" y="765" on="1"/>
        <pt x="607" y="748" on="0"/>
        <pt x="607" y="730" on="1"/>
        <pt x="607" y="693" on="0"/>
        <pt x="577" y="652" on="1"/>
        <pt x="503" y="554" on="0"/>
        <pt x="340" y="554" on="1"/>
        <pt x="290" y="554" on="0"/>
        <pt x="253" y="563" on="1"/>
        <pt x="250" y="544" on="0"/>
        <pt x="250" y="502" on="0"/>
        <pt x="257" y="481" on="1"/>
        <pt x="318" y="503" on="0"/>
        <pt x="455" y="503" on="0"/>
        <pt x="470" y="468" on="1"/>
        <pt x="473" y="460" on="0"/>
        <pt x="473" y="453" on="1"/>
        <pt x="473" y="432" on="0"/>
        <pt x="409" y="390" on="0"/>
        <pt x="275" y="390" on="0"/>
        <pt x="234" y="436" on="1"/>
        <pt x="145" y="379" on="0"/>
        <pt x="103" y="268" on="1"/>
        <pt x="75" y="194" on="0"/>
        <pt x="75" y="124" on="1"/>
        <pt x="75" y="89" on="0"/>
        <pt x="82" y="56" on="1"/>
        <pt x="103" y="-46" on="0"/>
        <pt x="180" y="-81" on="1"/>
        <pt x="180" y="-78" on="0"/>
        <pt x="180" y="-75" on="1"/>
        <pt x="180" y="18" on="0"/>
        <pt x="241" y="196" on="0"/>
        <pt x="373" y="325" on="0"/>
        <pt x="545" y="325" on="0"/>
        <pt x="570" y="247" on="1"/>
        <pt x="579" y="219" on="0"/>
        <pt x="579" y="189" on="1"/>
        <pt x="579" y="134" on="0"/>
        <pt x="549" y="69" on="1"/>
        <pt x="497" y="-42" on="0"/>
        <pt x="392" y="-92" on="1"/>
        <pt x="328" y="-122" on="0"/>
        <pt x="254" y="-122" on="1"/>
        <pt x="242" y="-122" on="0"/>
        <pt x="222" y="-120" on="1"/>
        <pt x="225" y="-202" on="0"/>
        <pt x="293" y="-304" on="0"/>
        <pt x="357" y="-304" on="1"/>
        <pt x="353" y="-321" on="0"/>
        <pt x="332" y="-321" on="1"/>
        <pt x="265" y="-321" on="0"/>
        <pt x="188" y="-205" on="0"/>
        <pt x="182" y="-113" on="1"/>
        <pt x="110" y="-95" on="0"/>
        <pt x="66" y="-42" on="1"/>
        <pt x="12" y="22" on="0"/>
        <pt x="12" y="121" on="1"/>
        <pt x="12" y="172" on="0"/>
        <pt x="42" y="297" on="0"/>
        <pt x="144" y="428" on="0"/>
        <pt x="216" y="464" on="1"/>
        <pt x="200" y="498" on="0"/>
        <pt x="200" y="559" on="0"/>
        <pt x="203" y="580" on="1"/>
        <pt x="158" y="601" on="0"/>
        <pt x="130" y="636" on="1"/>
        <pt x="92" y="685" on="0"/>
        <pt x="92" y="745" on="1"/>
        <pt x="92" y="812" on="0"/>
        <pt x="130" y="866" on="1"/>
        <pt x="154" y="898" on="0"/>
        <pt x="232" y="939" on="0"/>
      </contour>
      <contour>
        <pt x="467" y="301" on="1"/>
        <pt x="400" y="301" on="0"/>
        <pt x="285" y="176" on="0"/>
        <pt x="224" y="-4" on="0"/>
        <pt x="222" y="-93" on="1"/>
        <pt x="236" y="-96" on="0"/>
        <pt x="252" y="-96" on="1"/>
        <pt x="398" y="-96" on="0"/>
        <pt x="485" y="17" on="1"/>
        <pt x="549" y="100" on="0"/>
        <pt x="549" y="272" on="0"/>
        <pt x="499" y="294" on="1"/>
        <pt x="485" y="301" on="0"/>
      </contour>
      <contour>
        <pt x="339" y="579" on="1"/>
        <pt x="455" y="579" on="0"/>
        <pt x="521" y="651" on="1"/>
        <pt x="560" y="693" on="0"/>
        <pt x="560" y="733" on="1"/>
        <pt x="560" y="742" on="0"/>
        <pt x="559" y="750" on="1"/>
        <pt x="547" y="797" on="0"/>
        <pt x="487" y="798" on="1"/>
        <pt x="405" y="798" on="0"/>
        <pt x="278" y="670" on="0"/>
        <pt x="258" y="587" on="1"/>
        <pt x="295" y="579" on="0"/>
      </contour>
      <contour>
        <pt x="386" y="481" on="1"/>
        <pt x="324" y="481" on="0"/>
        <pt x="269" y="456" on="1"/>
        <pt x="296" y="414" on="0"/>
        <pt x="423" y="414" on="0"/>
        <pt x="441" y="442" on="1"/>
        <pt x="445" y="449" on="0"/>
        <pt x="445" y="454" on="1"/>
        <pt x="445" y="467" on="0"/>
        <pt x="410" y="481" on="0"/>
      </contour>
    </TTGlyph>
    <TTGlyph name="Ecircumflex" xMin="12" yMin="-321" xMax="607" yMax="984">
      <contour>
        <pt x="520" y="984" on="0"/>
        <pt x="532" y="984" on="0"/>
        <pt x="536" y="977" on="1"/>
        <pt x="586" y="878" on="1"/>
        <pt x="562" y="878" on="1"/>
        <pt x="524" y="942" on="1"/>
        <pt x="415" y="878" on="1"/>
        <pt x="390" y="878" on="1"/>
        <pt x="471" y="945" on="0"/>
      </contour>
      <contour>
        <pt x="279" y="939" on="1"/>
        <pt x="285" y="939" on="0"/>
        <pt x="292" y="930" on="0"/>
        <pt x="292" y="926" on="1"/>
        <pt x="292" y="922" on="1"/>
        <pt x="227" y="922" on="0"/>
        <pt x="180" y="884" on="1"/>
        <pt x="114" y="830" on="0"/>
        <pt x="114" y="754" on="1"/>
        <pt x="114" y="721" on="0"/>
        <pt x="128" y="688" on="1"/>
        <pt x="150" y="634" on="0"/>
        <pt x="209" y="605" on="1"/>
        <pt x="233" y="694" on="0"/>
        <pt x="384" y="821" on="0"/>
        <pt x="494" y="821" on="1"/>
        <pt x="577" y="821" on="0"/>
        <pt x="600" y="765" on="1"/>
        <pt x="607" y="748" on="0"/>
        <pt x="607" y="730" on="1"/>
        <pt x="607" y="693" on="0"/>
        <pt x="577" y="652" on="1"/>
        <pt x="503" y="554" on="0"/>
        <pt x="340" y="554" on="1"/>
        <pt x="290" y="554" on="0"/>
        <pt x="253" y="563" on="1"/>
        <pt x="250" y="544" on="0"/>
        <pt x="250" y="502" on="0"/>
        <pt x="257" y="481" on="1"/>
        <pt x="318" y="503" on="0"/>
        <pt x="455" y="503" on="0"/>
        <pt x="470" y="468" on="1"/>
        <pt x="473" y="460" on="0"/>
        <pt x="473" y="453" on="1"/>
        <pt x="473" y="432" on="0"/>
        <pt x="409" y="390" on="0"/>
        <pt x="275" y="390" on="0"/>
        <pt x="234" y="436" on="1"/>
        <pt x="145" y="379" on="0"/>
        <pt x="103" y="268" on="1"/>
        <pt x="75" y="194" on="0"/>
        <pt x="75" y="124" on="1"/>
        <pt x="75" y="89" on="0"/>
        <pt x="82" y="56" on="1"/>
        <pt x="103" y="-46" on="0"/>
        <pt x="180" y="-81" on="1"/>
        <pt x="180" y="-78" on="0"/>
        <pt x="180" y="-75" on="1"/>
        <pt x="180" y="18" on="0"/>
        <pt x="241" y="196" on="0"/>
        <pt x="373" y="325" on="0"/>
        <pt x="545" y="325" on="0"/>
        <pt x="570" y="247" on="1"/>
        <pt x="579" y="219" on="0"/>
        <pt x="579" y="189" on="1"/>
        <pt x="579" y="134" on="0"/>
        <pt x="549" y="69" on="1"/>
        <pt x="497" y="-42" on="0"/>
        <pt x="392" y="-92" on="1"/>
        <pt x="328" y="-122" on="0"/>
        <pt x="254" y="-122" on="1"/>
        <pt x="242" y="-122" on="0"/>
        <pt x="222" y="-120" on="1"/>
        <pt x="225" y="-202" on="0"/>
        <pt x="293" y="-304" on="0"/>
        <pt x="357" y="-304" on="1"/>
        <pt x="353" y="-321" on="0"/>
        <pt x="332" y="-321" on="1"/>
        <pt x="265" y="-321" on="0"/>
        <pt x="188" y="-205" on="0"/>
        <pt x="182" y="-113" on="1"/>
        <pt x="110" y="-95" on="0"/>
        <pt x="66" y="-42" on="1"/>
        <pt x="12" y="22" on="0"/>
        <pt x="12" y="121" on="1"/>
        <pt x="12" y="172" on="0"/>
        <pt x="42" y="297" on="0"/>
        <pt x="144" y="428" on="0"/>
        <pt x="216" y="464" on="1"/>
        <pt x="200" y="498" on="0"/>
        <pt x="200" y="559" on="0"/>
        <pt x="203" y="580" on="1"/>
        <pt x="158" y="601" on="0"/>
        <pt x="130" y="636" on="1"/>
        <pt x="92" y="685" on="0"/>
        <pt x="92" y="745" on="1"/>
        <pt x="92" y="812" on="0"/>
        <pt x="130" y="866" on="1"/>
        <pt x="154" y="898" on="0"/>
        <pt x="232" y="939" on="0"/>
      </contour>
      <contour>
        <pt x="467" y="301" on="1"/>
        <pt x="400" y="301" on="0"/>
        <pt x="285" y="176" on="0"/>
        <pt x="224" y="-4" on="0"/>
        <pt x="222" y="-93" on="1"/>
        <pt x="236" y="-96" on="0"/>
        <pt x="252" y="-96" on="1"/>
        <pt x="398" y="-96" on="0"/>
        <pt x="485" y="17" on="1"/>
        <pt x="549" y="100" on="0"/>
        <pt x="549" y="272" on="0"/>
        <pt x="499" y="294" on="1"/>
        <pt x="485" y="301" on="0"/>
      </contour>
      <contour>
        <pt x="339" y="579" on="1"/>
        <pt x="455" y="579" on="0"/>
        <pt x="521" y="651" on="1"/>
        <pt x="560" y="693" on="0"/>
        <pt x="560" y="733" on="1"/>
        <pt x="560" y="742" on="0"/>
        <pt x="559" y="750" on="1"/>
        <pt x="547" y="797" on="0"/>
        <pt x="487" y="798" on="1"/>
        <pt x="405" y="798" on="0"/>
        <pt x="278" y="670" on="0"/>
        <pt x="258" y="587" on="1"/>
        <pt x="295" y="579" on="0"/>
      </contour>
      <contour>
        <pt x="386" y="481" on="1"/>
        <pt x="324" y="481" on="0"/>
        <pt x="269" y="456" on="1"/>
        <pt x="296" y="414" on="0"/>
        <pt x="423" y="414" on="0"/>
        <pt x="441" y="442" on="1"/>
        <pt x="445" y="449" on="0"/>
        <pt x="445" y="454" on="1"/>
        <pt x="445" y="467" on="0"/>
        <pt x="410" y="481" on="0"/>
      </contour>
    </TTGlyph>
    <TTGlyph name="Edieresis" xMin="12" yMin="-321" xMax="607" yMax="969">
      <contour>
        <pt x="440" y="969" on="1"/>
        <pt x="463" y="969" on="0"/>
        <pt x="463" y="907" on="0"/>
        <pt x="433" y="888" on="1"/>
        <pt x="418" y="878" on="0"/>
        <pt x="407" y="878" on="1"/>
        <pt x="391" y="878" on="0"/>
        <pt x="388" y="888" on="1"/>
        <pt x="387" y="891" on="1"/>
        <pt x="396" y="891" on="0"/>
        <pt x="404" y="930" on="0"/>
        <pt x="421" y="969" on="0"/>
      </contour>
      <contour>
        <pt x="566" y="969" on="1"/>
        <pt x="589" y="969" on="0"/>
        <pt x="589" y="907" on="0"/>
        <pt x="559" y="888" on="1"/>
        <pt x="544" y="878" on="0"/>
        <pt x="533" y="878" on="1"/>
        <pt x="517" y="878" on="0"/>
        <pt x="514" y="888" on="1"/>
        <pt x="513" y="891" on="1"/>
        <pt x="522" y="891" on="0"/>
        <pt x="530" y="930" on="0"/>
        <pt x="547" y="969" on="0"/>
      </contour>
      <contour>
        <pt x="279" y="939" on="1"/>
        <pt x="285" y="939" on="0"/>
        <pt x="292" y="930" on="0"/>
        <pt x="292" y="926" on="1"/>
        <pt x="292" y="922" on="1"/>
        <pt x="227" y="922" on="0"/>
        <pt x="180" y="884" on="1"/>
        <pt x="114" y="830" on="0"/>
        <pt x="114" y="754" on="1"/>
        <pt x="114" y="721" on="0"/>
        <pt x="128" y="688" on="1"/>
        <pt x="150" y="634" on="0"/>
        <pt x="209" y="605" on="1"/>
        <pt x="233" y="694" on="0"/>
        <pt x="384" y="821" on="0"/>
        <pt x="494" y="821" on="1"/>
        <pt x="577" y="821" on="0"/>
        <pt x="600" y="765" on="1"/>
        <pt x="607" y="748" on="0"/>
        <pt x="607" y="730" on="1"/>
        <pt x="607" y="693" on="0"/>
        <pt x="577" y="652" on="1"/>
        <pt x="503" y="554" on="0"/>
        <pt x="340" y="554" on="1"/>
        <pt x="290" y="554" on="0"/>
        <pt x="253" y="563" on="1"/>
        <pt x="250" y="544" on="0"/>
        <pt x="250" y="502" on="0"/>
        <pt x="257" y="481" on="1"/>
        <pt x="318" y="503" on="0"/>
        <pt x="455" y="503" on="0"/>
        <pt x="470" y="468" on="1"/>
        <pt x="473" y="460" on="0"/>
        <pt x="473" y="453" on="1"/>
        <pt x="473" y="432" on="0"/>
        <pt x="409" y="390" on="0"/>
        <pt x="275" y="390" on="0"/>
        <pt x="234" y="436" on="1"/>
        <pt x="145" y="379" on="0"/>
        <pt x="103" y="268" on="1"/>
        <pt x="75" y="194" on="0"/>
        <pt x="75" y="124" on="1"/>
        <pt x="75" y="89" on="0"/>
        <pt x="82" y="56" on="1"/>
        <pt x="103" y="-46" on="0"/>
        <pt x="180" y="-81" on="1"/>
        <pt x="180" y="-78" on="0"/>
        <pt x="180" y="-75" on="1"/>
        <pt x="180" y="18" on="0"/>
        <pt x="241" y="196" on="0"/>
        <pt x="373" y="325" on="0"/>
        <pt x="545" y="325" on="0"/>
        <pt x="570" y="247" on="1"/>
        <pt x="579" y="219" on="0"/>
        <pt x="579" y="189" on="1"/>
        <pt x="579" y="134" on="0"/>
        <pt x="549" y="69" on="1"/>
        <pt x="497" y="-42" on="0"/>
        <pt x="392" y="-92" on="1"/>
        <pt x="328" y="-122" on="0"/>
        <pt x="254" y="-122" on="1"/>
        <pt x="242" y="-122" on="0"/>
        <pt x="222" y="-120" on="1"/>
        <pt x="225" y="-202" on="0"/>
        <pt x="293" y="-304" on="0"/>
        <pt x="357" y="-304" on="1"/>
        <pt x="353" y="-321" on="0"/>
        <pt x="332" y="-321" on="1"/>
        <pt x="265" y="-321" on="0"/>
        <pt x="188" y="-205" on="0"/>
        <pt x="182" y="-113" on="1"/>
        <pt x="110" y="-95" on="0"/>
        <pt x="66" y="-42" on="1"/>
        <pt x="12" y="22" on="0"/>
        <pt x="12" y="121" on="1"/>
        <pt x="12" y="172" on="0"/>
        <pt x="42" y="297" on="0"/>
        <pt x="144" y="428" on="0"/>
        <pt x="216" y="464" on="1"/>
        <pt x="200" y="498" on="0"/>
        <pt x="200" y="559" on="0"/>
        <pt x="203" y="580" on="1"/>
        <pt x="158" y="601" on="0"/>
        <pt x="130" y="636" on="1"/>
        <pt x="92" y="685" on="0"/>
        <pt x="92" y="745" on="1"/>
        <pt x="92" y="812" on="0"/>
        <pt x="130" y="866" on="1"/>
        <pt x="154" y="898" on="0"/>
        <pt x="232" y="939" on="0"/>
      </contour>
      <contour>
        <pt x="467" y="301" on="1"/>
        <pt x="400" y="301" on="0"/>
        <pt x="285" y="176" on="0"/>
        <pt x="224" y="-4" on="0"/>
        <pt x="222" y="-93" on="1"/>
        <pt x="236" y="-96" on="0"/>
        <pt x="252" y="-96" on="1"/>
        <pt x="398" y="-96" on="0"/>
        <pt x="485" y="17" on="1"/>
        <pt x="549" y="100" on="0"/>
        <pt x="549" y="272" on="0"/>
        <pt x="499" y="294" on="1"/>
        <pt x="485" y="301" on="0"/>
      </contour>
      <contour>
        <pt x="339" y="579" on="1"/>
        <pt x="455" y="579" on="0"/>
        <pt x="521" y="651" on="1"/>
        <pt x="560" y="693" on="0"/>
        <pt x="560" y="733" on="1"/>
        <pt x="560" y="742" on="0"/>
        <pt x="559" y="750" on="1"/>
        <pt x="547" y="797" on="0"/>
        <pt x="487" y="798" on="1"/>
        <pt x="405" y="798" on="0"/>
        <pt x="278" y="670" on="0"/>
        <pt x="258" y="587" on="1"/>
        <pt x="295" y="579" on="0"/>
      </contour>
      <contour>
        <pt x="386" y="481" on="1"/>
        <pt x="324" y="481" on="0"/>
        <pt x="269" y="456" on="1"/>
        <pt x="296" y="414" on="0"/>
        <pt x="423" y="414" on="0"/>
        <pt x="441" y="442" on="1"/>
        <pt x="445" y="449" on="0"/>
        <pt x="445" y="454" on="1"/>
        <pt x="445" y="467" on="0"/>
        <pt x="410" y="481" on="0"/>
      </contour>
    </TTGlyph>
    <TTGlyph name="Egrave" xMin="12" yMin="-321" xMax="607" yMax="1016">
      <contour>
        <pt x="416" y="1007" on="1"/>
        <pt x="452" y="974" on="0"/>
        <pt x="517" y="895" on="0"/>
        <pt x="517" y="876" on="0"/>
        <pt x="496" y="876" on="0"/>
        <pt x="426" y="926" on="0"/>
        <pt x="389" y="962" on="1"/>
        <pt x="375" y="976" on="0"/>
        <pt x="375" y="996" on="0"/>
        <pt x="387" y="1016" on="0"/>
        <pt x="406" y="1016" on="0"/>
      </contour>
      <contour>
        <pt x="279" y="939" on="1"/>
        <pt x="285" y="939" on="0"/>
        <pt x="292" y="930" on="0"/>
        <pt x="292" y="926" on="1"/>
        <pt x="292" y="922" on="1"/>
        <pt x="227" y="922" on="0"/>
        <pt x="180" y="884" on="1"/>
        <pt x="114" y="830" on="0"/>
        <pt x="114" y="754" on="1"/>
        <pt x="114" y="721" on="0"/>
        <pt x="128" y="688" on="1"/>
        <pt x="150" y="634" on="0"/>
        <pt x="209" y="605" on="1"/>
        <pt x="233" y="694" on="0"/>
        <pt x="384" y="821" on="0"/>
        <pt x="494" y="821" on="1"/>
        <pt x="577" y="821" on="0"/>
        <pt x="600" y="765" on="1"/>
        <pt x="607" y="748" on="0"/>
        <pt x="607" y="730" on="1"/>
        <pt x="607" y="693" on="0"/>
        <pt x="577" y="652" on="1"/>
        <pt x="503" y="554" on="0"/>
        <pt x="340" y="554" on="1"/>
        <pt x="290" y="554" on="0"/>
        <pt x="253" y="563" on="1"/>
        <pt x="250" y="544" on="0"/>
        <pt x="250" y="502" on="0"/>
        <pt x="257" y="481" on="1"/>
        <pt x="318" y="503" on="0"/>
        <pt x="455" y="503" on="0"/>
        <pt x="470" y="468" on="1"/>
        <pt x="473" y="460" on="0"/>
        <pt x="473" y="453" on="1"/>
        <pt x="473" y="432" on="0"/>
        <pt x="409" y="390" on="0"/>
        <pt x="275" y="390" on="0"/>
        <pt x="234" y="436" on="1"/>
        <pt x="145" y="379" on="0"/>
        <pt x="103" y="268" on="1"/>
        <pt x="75" y="194" on="0"/>
        <pt x="75" y="124" on="1"/>
        <pt x="75" y="89" on="0"/>
        <pt x="82" y="56" on="1"/>
        <pt x="103" y="-46" on="0"/>
        <pt x="180" y="-81" on="1"/>
        <pt x="180" y="-78" on="0"/>
        <pt x="180" y="-75" on="1"/>
        <pt x="180" y="18" on="0"/>
        <pt x="241" y="196" on="0"/>
        <pt x="373" y="325" on="0"/>
        <pt x="545" y="325" on="0"/>
        <pt x="570" y="247" on="1"/>
        <pt x="579" y="219" on="0"/>
        <pt x="579" y="189" on="1"/>
        <pt x="579" y="134" on="0"/>
        <pt x="549" y="69" on="1"/>
        <pt x="497" y="-42" on="0"/>
        <pt x="392" y="-92" on="1"/>
        <pt x="328" y="-122" on="0"/>
        <pt x="254" y="-122" on="1"/>
        <pt x="242" y="-122" on="0"/>
        <pt x="222" y="-120" on="1"/>
        <pt x="225" y="-202" on="0"/>
        <pt x="293" y="-304" on="0"/>
        <pt x="357" y="-304" on="1"/>
        <pt x="353" y="-321" on="0"/>
        <pt x="332" y="-321" on="1"/>
        <pt x="265" y="-321" on="0"/>
        <pt x="188" y="-205" on="0"/>
        <pt x="182" y="-113" on="1"/>
        <pt x="110" y="-95" on="0"/>
        <pt x="66" y="-42" on="1"/>
        <pt x="12" y="22" on="0"/>
        <pt x="12" y="121" on="1"/>
        <pt x="12" y="172" on="0"/>
        <pt x="42" y="297" on="0"/>
        <pt x="144" y="428" on="0"/>
        <pt x="216" y="464" on="1"/>
        <pt x="200" y="498" on="0"/>
        <pt x="200" y="559" on="0"/>
        <pt x="203" y="580" on="1"/>
        <pt x="158" y="601" on="0"/>
        <pt x="130" y="636" on="1"/>
        <pt x="92" y="685" on="0"/>
        <pt x="92" y="745" on="1"/>
        <pt x="92" y="812" on="0"/>
        <pt x="130" y="866" on="1"/>
        <pt x="154" y="898" on="0"/>
        <pt x="232" y="939" on="0"/>
      </contour>
      <contour>
        <pt x="467" y="301" on="1"/>
        <pt x="400" y="301" on="0"/>
        <pt x="285" y="176" on="0"/>
        <pt x="224" y="-4" on="0"/>
        <pt x="222" y="-93" on="1"/>
        <pt x="236" y="-96" on="0"/>
        <pt x="252" y="-96" on="1"/>
        <pt x="398" y="-96" on="0"/>
        <pt x="485" y="17" on="1"/>
        <pt x="549" y="100" on="0"/>
        <pt x="549" y="272" on="0"/>
        <pt x="499" y="294" on="1"/>
        <pt x="485" y="301" on="0"/>
      </contour>
      <contour>
        <pt x="339" y="579" on="1"/>
        <pt x="455" y="579" on="0"/>
        <pt x="521" y="651" on="1"/>
        <pt x="560" y="693" on="0"/>
        <pt x="560" y="733" on="1"/>
        <pt x="560" y="742" on="0"/>
        <pt x="559" y="750" on="1"/>
        <pt x="547" y="797" on="0"/>
        <pt x="487" y="798" on="1"/>
        <pt x="405" y="798" on="0"/>
        <pt x="278" y="670" on="0"/>
        <pt x="258" y="587" on="1"/>
        <pt x="295" y="579" on="0"/>
      </contour>
      <contour>
        <pt x="386" y="481" on="1"/>
        <pt x="324" y="481" on="0"/>
        <pt x="269" y="456" on="1"/>
        <pt x="296" y="414" on="0"/>
        <pt x="423" y="414" on="0"/>
        <pt x="441" y="442" on="1"/>
        <pt x="445" y="449" on="0"/>
        <pt x="445" y="454" on="1"/>
        <pt x="445" y="467" on="0"/>
        <pt x="410" y="481" on="0"/>
      </contour>
    </TTGlyph>
    <TTGlyph name="Eth" xMin="-92" yMin="-41" xMax="720" yMax="809">
      <contour>
        <pt x="-13" y="91" on="1"/>
        <pt x="-2" y="91" on="0"/>
        <pt x="21" y="88" on="0"/>
        <pt x="37" y="86" on="0"/>
        <pt x="65" y="77" on="0"/>
        <pt x="76" y="74" on="0"/>
        <pt x="109" y="61" on="0"/>
        <pt x="115" y="58" on="0"/>
        <pt x="154" y="42" on="0"/>
        <pt x="155" y="41" on="1"/>
        <pt x="204" y="97" on="0"/>
        <pt x="238" y="215" on="1"/>
        <pt x="89" y="225" on="0"/>
        <pt x="24" y="335" on="1"/>
        <pt x="-11" y="396" on="0"/>
        <pt x="-11" y="467" on="1"/>
        <pt x="-11" y="508" on="0"/>
        <pt x="0" y="552" on="1"/>
        <pt x="34" y="677" on="0"/>
        <pt x="141" y="748" on="1"/>
        <pt x="234" y="809" on="0"/>
        <pt x="359" y="809" on="1"/>
        <pt x="447" y="809" on="0"/>
        <pt x="586" y="751" on="0"/>
        <pt x="669" y="654" on="0"/>
        <pt x="694" y="591" on="1"/>
        <pt x="720" y="525" on="0"/>
        <pt x="720" y="383" on="0"/>
        <pt x="697" y="248" on="0"/>
        <pt x="632" y="122" on="0"/>
        <pt x="548" y="25" on="0"/>
        <pt x="429" y="-33" on="0"/>
        <pt x="279" y="-33" on="0"/>
        <pt x="189" y="2" on="1"/>
        <pt x="132" y="-41" on="0"/>
        <pt x="51" y="-41" on="1"/>
        <pt x="-56" y="-41" on="0"/>
        <pt x="-85" y="9" on="1"/>
        <pt x="-92" y="22" on="0"/>
        <pt x="-92" y="53" on="0"/>
        <pt x="-52" y="91" on="0"/>
      </contour>
      <contour>
        <pt x="144" y="454" on="1"/>
        <pt x="132" y="454" on="0"/>
        <pt x="133" y="463" on="1"/>
        <pt x="135" y="479" on="0"/>
        <pt x="165" y="484" on="1"/>
        <pt x="183" y="485" on="1"/>
        <pt x="232" y="485" on="0"/>
        <pt x="297" y="482" on="1"/>
        <pt x="321" y="597" on="0"/>
        <pt x="387" y="721" on="0"/>
        <pt x="443" y="721" on="1"/>
        <pt x="457" y="721" on="0"/>
        <pt x="462" y="708" on="1"/>
        <pt x="463" y="704" on="1"/>
        <pt x="410" y="704" on="0"/>
        <pt x="386" y="638" on="1"/>
        <pt x="365" y="583" on="0"/>
        <pt x="350" y="480" on="1"/>
        <pt x="458" y="476" on="0"/>
        <pt x="493" y="476" on="1"/>
        <pt x="504" y="476" on="0"/>
        <pt x="503" y="470" on="1"/>
        <pt x="499" y="456" on="0"/>
        <pt x="461" y="456" on="1"/>
        <pt x="390" y="456" on="0"/>
        <pt x="347" y="455" on="1"/>
        <pt x="322" y="283" on="0"/>
        <pt x="313" y="240" on="1"/>
        <pt x="383" y="250" on="0"/>
        <pt x="478" y="336" on="0"/>
        <pt x="497" y="397" on="1"/>
        <pt x="498" y="402" on="0"/>
        <pt x="509" y="404" on="0"/>
        <pt x="516" y="398" on="0"/>
        <pt x="515" y="392" on="1"/>
        <pt x="493" y="324" on="0"/>
        <pt x="387" y="228" on="0"/>
        <pt x="307" y="217" on="1"/>
        <pt x="275" y="82" on="0"/>
        <pt x="210" y="19" on="1"/>
        <pt x="285" y="-7" on="0"/>
        <pt x="413" y="-7" on="0"/>
        <pt x="509" y="47" on="0"/>
        <pt x="579" y="139" on="0"/>
        <pt x="635" y="258" on="0"/>
        <pt x="657" y="389" on="0"/>
        <pt x="657" y="520" on="0"/>
        <pt x="616" y="639" on="0"/>
        <pt x="546" y="731" on="0"/>
        <pt x="426" y="785" on="0"/>
        <pt x="349" y="785" on="1"/>
        <pt x="185" y="785" on="0"/>
        <pt x="98" y="669" on="1"/>
        <pt x="37" y="589" on="0"/>
        <pt x="37" y="489" on="1"/>
        <pt x="37" y="353" on="0"/>
        <pt x="130" y="283" on="1"/>
        <pt x="180" y="246" on="0"/>
        <pt x="245" y="239" on="1"/>
        <pt x="258" y="291" on="0"/>
        <pt x="291" y="454" on="1"/>
      </contour>
      <contour>
        <pt x="-62" y="30" on="1"/>
        <pt x="-62" y="11" on="0"/>
        <pt x="-8" y="-14" on="0"/>
        <pt x="92" y="-14" on="0"/>
        <pt x="137" y="23" on="1"/>
        <pt x="37" y="66" on="0"/>
        <pt x="-50" y="66" on="0"/>
        <pt x="-60" y="41" on="1"/>
        <pt x="-62" y="35" on="0"/>
      </contour>
    </TTGlyph>
    <TTGlyph name="Euro" xMin="-33" yMin="-29" xMax="454" yMax="600">
      <contour>
        <pt x="302" y="218" on="1"/>
        <pt x="137" y="217" on="1"/>
        <pt x="133" y="183" on="0"/>
        <pt x="133" y="98" on="0"/>
        <pt x="147" y="57" on="1"/>
        <pt x="169" y="-7" on="0"/>
        <pt x="227" y="-7" on="1"/>
        <pt x="297" y="-7" on="0"/>
        <pt x="352" y="78" on="1"/>
        <pt x="360" y="91" on="0"/>
        <pt x="374" y="81" on="1"/>
        <pt x="381" y="74" on="0"/>
        <pt x="379" y="69" on="1"/>
        <pt x="312" y="-29" on="0"/>
        <pt x="132" y="-29" on="0"/>
        <pt x="93" y="40" on="1"/>
        <pt x="64" y="93" on="0"/>
        <pt x="64" y="165" on="1"/>
        <pt x="64" y="190" on="0"/>
        <pt x="67" y="216" on="1"/>
        <pt x="-22" y="216" on="1"/>
        <pt x="-33" y="216" on="0"/>
        <pt x="-33" y="222" on="1"/>
        <pt x="-33" y="241" on="0"/>
        <pt x="17" y="241" on="1"/>
        <pt x="71" y="241" on="1"/>
        <pt x="81" y="298" on="0"/>
        <pt x="106" y="357" on="1"/>
        <pt x="1" y="357" on="1"/>
        <pt x="-11" y="357" on="0"/>
        <pt x="-10" y="364" on="1"/>
        <pt x="-8" y="378" on="0"/>
        <pt x="27" y="381" on="1"/>
        <pt x="40" y="382" on="1"/>
        <pt x="91" y="382" on="0"/>
        <pt x="116" y="381" on="1"/>
        <pt x="161" y="477" on="0"/>
        <pt x="299" y="600" on="0"/>
        <pt x="378" y="600" on="1"/>
        <pt x="416" y="600" on="0"/>
        <pt x="454" y="560" on="0"/>
        <pt x="454" y="508" on="0"/>
        <pt x="435" y="503" on="1"/>
        <pt x="417" y="500" on="0"/>
        <pt x="416" y="514" on="1"/>
        <pt x="416" y="517" on="0"/>
        <pt x="416" y="520" on="1"/>
        <pt x="416" y="542" on="0"/>
        <pt x="390" y="574" on="0"/>
        <pt x="362" y="574" on="1"/>
        <pt x="307" y="574" on="0"/>
        <pt x="211" y="466" on="0"/>
        <pt x="178" y="380" on="1"/>
        <pt x="231" y="379" on="0"/>
        <pt x="357" y="379" on="1"/>
        <pt x="368" y="379" on="0"/>
        <pt x="367" y="373" on="1"/>
        <pt x="363" y="359" on="0"/>
        <pt x="325" y="359" on="1"/>
        <pt x="170" y="358" on="1"/>
        <pt x="149" y="300" on="0"/>
        <pt x="140" y="240" on="1"/>
        <pt x="256" y="238" on="0"/>
        <pt x="334" y="238" on="1"/>
        <pt x="345" y="238" on="0"/>
        <pt x="344" y="232" on="1"/>
        <pt x="340" y="218" on="0"/>
      </contour>
    </TTGlyph>
    <TTGlyph name="F" xMin="6" yMin="-75" xMax="802" yMax="816">
      <contour>
        <pt x="370" y="348" on="1"/>
        <pt x="342" y="354" on="0"/>
        <pt x="324" y="367" on="1"/>
        <pt x="324" y="386" on="1"/>
        <pt x="344" y="373" on="0"/>
        <pt x="373" y="367" on="1"/>
        <pt x="403" y="551" on="0"/>
        <pt x="433" y="621" on="0"/>
        <pt x="448" y="647" on="1"/>
        <pt x="478" y="696" on="0"/>
        <pt x="529" y="696" on="1"/>
        <pt x="543" y="696" on="0"/>
        <pt x="548" y="684" on="1"/>
        <pt x="549" y="679" on="1"/>
        <pt x="525" y="679" on="0"/>
        <pt x="489" y="647" on="0"/>
        <pt x="468" y="601" on="0"/>
        <pt x="460" y="560" on="1"/>
        <pt x="447" y="495" on="0"/>
        <pt x="437" y="389" on="0"/>
        <pt x="437" y="386" on="1"/>
        <pt x="437" y="375" on="0"/>
        <pt x="435" y="365" on="1"/>
        <pt x="478" y="371" on="0"/>
        <pt x="512" y="388" on="1"/>
        <pt x="518" y="449" on="0"/>
        <pt x="572" y="542" on="0"/>
        <pt x="613" y="542" on="1"/>
        <pt x="638" y="542" on="0"/>
        <pt x="638" y="515" on="1"/>
        <pt x="638" y="462" on="0"/>
        <pt x="578" y="409" on="1"/>
        <pt x="565" y="397" on="0"/>
        <pt x="550" y="387" on="1"/>
        <pt x="547" y="366" on="0"/>
        <pt x="547" y="349" on="1"/>
        <pt x="547" y="275" on="0"/>
        <pt x="583" y="275" on="1"/>
        <pt x="582" y="263" on="0"/>
        <pt x="566" y="263" on="1"/>
        <pt x="539" y="263" on="0"/>
        <pt x="511" y="321" on="0"/>
        <pt x="511" y="366" on="1"/>
        <pt x="475" y="350" on="0"/>
        <pt x="433" y="346" on="1"/>
        <pt x="408" y="133" on="0"/>
        <pt x="369" y="59" on="1"/>
        <pt x="350" y="23" on="0"/>
        <pt x="323" y="-10" on="1"/>
        <pt x="270" y="-75" on="0"/>
        <pt x="166" y="-75" on="1"/>
        <pt x="115" y="-75" on="0"/>
        <pt x="42" y="-36" on="0"/>
        <pt x="26" y="-4" on="1"/>
        <pt x="6" y="37" on="0"/>
        <pt x="6" y="111" on="0"/>
        <pt x="28" y="178" on="0"/>
        <pt x="67" y="241" on="0"/>
        <pt x="131" y="280" on="0"/>
        <pt x="167" y="280" on="1"/>
        <pt x="186" y="280" on="0"/>
        <pt x="194" y="266" on="1"/>
        <pt x="197" y="261" on="1"/>
        <pt x="113" y="261" on="0"/>
        <pt x="64" y="184" on="1"/>
        <pt x="32" y="133" on="0"/>
        <pt x="32" y="79" on="1"/>
        <pt x="32" y="62" on="0"/>
        <pt x="36" y="44" on="1"/>
        <pt x="50" y="-29" on="0"/>
        <pt x="116" y="-44" on="1"/>
        <pt x="132" y="-48" on="0"/>
        <pt x="186" y="-48" on="0"/>
        <pt x="246" y="-19" on="0"/>
        <pt x="290" y="44" on="0"/>
        <pt x="321" y="108" on="0"/>
        <pt x="334" y="160" on="1"/>
        <pt x="352" y="238" on="0"/>
      </contour>
      <contour>
        <pt x="769" y="816" on="1"/>
        <pt x="802" y="816" on="0"/>
        <pt x="802" y="777" on="1"/>
        <pt x="802" y="747" on="0"/>
        <pt x="739" y="696" on="0"/>
        <pt x="604" y="696" on="0"/>
        <pt x="372" y="770" on="0"/>
        <pt x="312" y="770" on="1"/>
        <pt x="183" y="770" on="0"/>
        <pt x="111" y="667" on="1"/>
        <pt x="62" y="597" on="0"/>
        <pt x="62" y="517" on="1"/>
        <pt x="62" y="403" on="0"/>
        <pt x="140" y="366" on="1"/>
        <pt x="167" y="353" on="0"/>
        <pt x="201" y="353" on="1"/>
        <pt x="201" y="346" on="0"/>
        <pt x="185" y="330" on="0"/>
        <pt x="175" y="330" on="1"/>
        <pt x="70" y="330" on="0"/>
        <pt x="29" y="417" on="1"/>
        <pt x="10" y="458" on="0"/>
        <pt x="10" y="548" on="0"/>
        <pt x="28" y="598" on="1"/>
        <pt x="67" y="706" on="0"/>
        <pt x="167" y="758" on="1"/>
        <pt x="232" y="791" on="0"/>
        <pt x="377" y="791" on="0"/>
        <pt x="592" y="726" on="0"/>
        <pt x="649" y="726" on="1"/>
        <pt x="735" y="726" on="0"/>
        <pt x="748" y="766" on="1"/>
        <pt x="755" y="785" on="0"/>
        <pt x="744" y="791" on="1"/>
        <pt x="742" y="792" on="0"/>
        <pt x="741" y="792" on="1"/>
        <pt x="747" y="816" on="0"/>
      </contour>
      <contour>
        <pt x="612" y="523" on="1"/>
        <pt x="595" y="523" on="0"/>
        <pt x="563" y="460" on="0"/>
        <pt x="554" y="415" on="1"/>
        <pt x="604" y="455" on="0"/>
        <pt x="617" y="501" on="1"/>
        <pt x="619" y="509" on="0"/>
        <pt x="619" y="523" on="0"/>
      </contour>
    </TTGlyph>
    <TTGlyph name="G" xMin="-102" yMin="-419" xMax="665" yMax="839">
      <contour>
        <pt x="288" y="415" on="1"/>
        <pt x="249" y="285" on="0"/>
        <pt x="249" y="208" on="1"/>
        <pt x="249" y="27" on="0"/>
        <pt x="353" y="27" on="1"/>
        <pt x="418" y="27" on="0"/>
        <pt x="488" y="107" on="1"/>
        <pt x="502" y="186" on="0"/>
        <pt x="512" y="249" on="0"/>
        <pt x="525" y="314" on="0"/>
        <pt x="535" y="351" on="0"/>
        <pt x="549" y="399" on="0"/>
        <pt x="565" y="425" on="0"/>
        <pt x="575" y="438" on="1"/>
        <pt x="593" y="462" on="0"/>
        <pt x="623" y="462" on="1"/>
        <pt x="658" y="462" on="0"/>
        <pt x="658" y="414" on="1"/>
        <pt x="658" y="397" on="0"/>
        <pt x="654" y="375" on="1"/>
        <pt x="633" y="264" on="0"/>
        <pt x="549" y="144" on="1"/>
        <pt x="525" y="-66" on="0"/>
        <pt x="474" y="-182" on="1"/>
        <pt x="424" y="-296" on="0"/>
        <pt x="352" y="-351" on="1"/>
        <pt x="264" y="-419" on="0"/>
        <pt x="136" y="-419" on="1"/>
        <pt x="-13" y="-419" on="0"/>
        <pt x="-73" y="-316" on="1"/>
        <pt x="-102" y="-266" on="0"/>
        <pt x="-102" y="-175" on="0"/>
        <pt x="-91" y="-139" on="1"/>
        <pt x="-65" y="-49" on="0"/>
        <pt x="8" y="-12" on="1"/>
        <pt x="43" y="5" on="0"/>
        <pt x="83" y="5" on="1"/>
        <pt x="189" y="5" on="0"/>
        <pt x="228" y="-77" on="1"/>
        <pt x="245" y="-113" on="0"/>
        <pt x="245" y="-179" on="0"/>
        <pt x="233" y="-209" on="1"/>
        <pt x="207" y="-278" on="0"/>
        <pt x="148" y="-278" on="1"/>
        <pt x="139" y="-278" on="0"/>
        <pt x="125" y="-268" on="0"/>
        <pt x="121" y="-259" on="1"/>
        <pt x="166" y="-259" on="0"/>
        <pt x="191" y="-198" on="1"/>
        <pt x="203" y="-168" on="0"/>
        <pt x="203" y="-107" on="0"/>
        <pt x="189" y="-75" on="1"/>
        <pt x="162" y="-14" on="0"/>
        <pt x="-2" y="-14" on="0"/>
        <pt x="-49" y="-93" on="1"/>
        <pt x="-81" y="-146" on="0"/>
        <pt x="-81" y="-204" on="1"/>
        <pt x="-81" y="-228" on="0"/>
        <pt x="-75" y="-253" on="1"/>
        <pt x="-54" y="-347" on="0"/>
        <pt x="33" y="-380" on="1"/>
        <pt x="72" y="-395" on="0"/>
        <pt x="192" y="-395" on="0"/>
        <pt x="305" y="-340" on="0"/>
        <pt x="378" y="-257" on="0"/>
        <pt x="435" y="-128" on="0"/>
        <pt x="467" y="-12" on="0"/>
        <pt x="481" y="65" on="1"/>
        <pt x="413" y="2" on="0"/>
        <pt x="290" y="2" on="0"/>
        <pt x="209" y="75" on="0"/>
        <pt x="187" y="177" on="0"/>
        <pt x="187" y="225" on="1"/>
        <pt x="187" y="319" on="0"/>
        <pt x="220" y="424" on="1"/>
        <pt x="162" y="438" on="0"/>
        <pt x="87" y="513" on="0"/>
        <pt x="66" y="589" on="0"/>
        <pt x="66" y="614" on="1"/>
        <pt x="66" y="751" on="0"/>
        <pt x="161" y="812" on="1"/>
        <pt x="202" y="839" on="0"/>
        <pt x="252" y="839" on="1"/>
        <pt x="267" y="839" on="0"/>
        <pt x="268" y="827" on="1"/>
        <pt x="269" y="823" on="1"/>
        <pt x="220" y="823" on="0"/>
        <pt x="180" y="799" on="1"/>
        <pt x="103" y="753" on="0"/>
        <pt x="88" y="655" on="1"/>
        <pt x="86" y="638" on="0"/>
        <pt x="86" y="595" on="0"/>
        <pt x="104" y="527" on="0"/>
        <pt x="174" y="460" on="0"/>
        <pt x="227" y="447" on="1"/>
        <pt x="280" y="600" on="0"/>
        <pt x="472" y="813" on="0"/>
        <pt x="582" y="813" on="1"/>
        <pt x="665" y="813" on="0"/>
        <pt x="665" y="726" on="1"/>
        <pt x="665" y="664" on="0"/>
        <pt x="614" y="589" on="1"/>
        <pt x="541" y="480" on="0"/>
        <pt x="420" y="436" on="1"/>
        <pt x="360" y="415" on="0"/>
        <pt x="296" y="415" on="1"/>
      </contour>
      <contour>
        <pt x="571" y="790" on="1"/>
        <pt x="495" y="790" on="0"/>
        <pt x="344" y="584" on="0"/>
        <pt x="296" y="439" on="1"/>
        <pt x="297" y="439" on="1"/>
        <pt x="443" y="439" on="0"/>
        <pt x="545" y="549" on="1"/>
        <pt x="626" y="638" on="0"/>
        <pt x="626" y="727" on="1"/>
        <pt x="626" y="776" on="0"/>
        <pt x="589" y="788" on="1"/>
        <pt x="581" y="790" on="0"/>
      </contour>
      <contour>
        <pt x="618" y="431" on="1"/>
        <pt x="593" y="431" on="0"/>
        <pt x="569" y="333" on="0"/>
        <pt x="557" y="212" on="0"/>
        <pt x="556" y="204" on="1"/>
        <pt x="618" y="312" on="0"/>
        <pt x="629" y="391" on="1"/>
        <pt x="631" y="401" on="0"/>
        <pt x="631" y="408" on="1"/>
        <pt x="631" y="431" on="0"/>
      </contour>
    </TTGlyph>
    <TTGlyph name="H" xMin="9" yMin="-176" xMax="975" yMax="850">
      <contour>
        <pt x="241" y="637" on="1"/>
        <pt x="412" y="626" on="1"/>
        <pt x="460" y="735" on="0"/>
        <pt x="535" y="735" on="1"/>
        <pt x="549" y="735" on="0"/>
        <pt x="554" y="722" on="1"/>
        <pt x="555" y="718" on="1"/>
        <pt x="494" y="718" on="0"/>
        <pt x="459" y="629" on="1"/>
        <pt x="560" y="645" on="0"/>
        <pt x="601" y="715" on="1"/>
        <pt x="617" y="743" on="0"/>
        <pt x="617" y="760" on="1"/>
        <pt x="617" y="800" on="0"/>
        <pt x="589" y="800" on="1"/>
        <pt x="595" y="817" on="0"/>
        <pt x="613" y="817" on="1"/>
        <pt x="647" y="817" on="0"/>
        <pt x="647" y="724" on="0"/>
        <pt x="610" y="680" on="1"/>
        <pt x="556" y="615" on="0"/>
        <pt x="450" y="604" on="1"/>
        <pt x="428" y="532" on="0"/>
        <pt x="400" y="316" on="0"/>
        <pt x="398" y="303" on="1"/>
        <pt x="436" y="330" on="0"/>
        <pt x="622" y="454" on="0"/>
        <pt x="650" y="473" on="1"/>
        <pt x="695" y="636" on="0"/>
        <pt x="838" y="850" on="0"/>
        <pt x="917" y="850" on="1"/>
        <pt x="944" y="850" on="0"/>
        <pt x="975" y="816" on="0"/>
        <pt x="975" y="789" on="1"/>
        <pt x="975" y="716" on="0"/>
        <pt x="835" y="564" on="0"/>
        <pt x="710" y="476" on="1"/>
        <pt x="665" y="295" on="0"/>
        <pt x="665" y="126" on="1"/>
        <pt x="665" y="-24" on="0"/>
        <pt x="708" y="-98" on="1"/>
        <pt x="742" y="-156" on="0"/>
        <pt x="800" y="-156" on="1"/>
        <pt x="794" y="-176" on="0"/>
        <pt x="772" y="-176" on="1"/>
        <pt x="705" y="-176" on="0"/>
        <pt x="664" y="-122" on="1"/>
        <pt x="602" y="-42" on="0"/>
        <pt x="602" y="136" on="1"/>
        <pt x="602" y="274" on="0"/>
        <pt x="638" y="426" on="1"/>
        <pt x="412" y="276" on="0"/>
        <pt x="393" y="263" on="1"/>
        <pt x="363" y="62" on="0"/>
        <pt x="316" y="-11" on="1"/>
        <pt x="271" y="-79" on="0"/>
        <pt x="202" y="-79" on="1"/>
        <pt x="170" y="-79" on="0"/>
        <pt x="132" y="-35" on="0"/>
        <pt x="132" y="2" on="1"/>
        <pt x="132" y="103" on="0"/>
        <pt x="325" y="249" on="1"/>
        <pt x="368" y="514" on="0"/>
        <pt x="402" y="602" on="1"/>
        <pt x="253" y="613" on="1"/>
        <pt x="132" y="613" on="0"/>
        <pt x="80" y="521" on="1"/>
        <pt x="55" y="475" on="0"/>
        <pt x="55" y="429" on="1"/>
        <pt x="55" y="405" on="0"/>
        <pt x="61" y="382" on="1"/>
        <pt x="80" y="311" on="0"/>
        <pt x="136" y="311" on="1"/>
        <pt x="136" y="303" on="0"/>
        <pt x="121" y="289" on="0"/>
        <pt x="109" y="289" on="1"/>
        <pt x="45" y="289" on="0"/>
        <pt x="20" y="355" on="1"/>
        <pt x="9" y="384" on="0"/>
        <pt x="9" y="458" on="0"/>
        <pt x="30" y="505" on="1"/>
        <pt x="71" y="599" on="0"/>
        <pt x="168" y="627" on="1"/>
        <pt x="202" y="637" on="0"/>
      </contour>
      <contour>
        <pt x="949" y="790" on="1"/>
        <pt x="949" y="828" on="0"/>
        <pt x="917" y="828" on="1"/>
        <pt x="865" y="828" on="0"/>
        <pt x="762" y="659" on="0"/>
        <pt x="724" y="525" on="1"/>
        <pt x="831" y="603" on="0"/>
        <pt x="949" y="732" on="0"/>
      </contour>
      <contour>
        <pt x="158" y="1" on="1"/>
        <pt x="158" y="-54" on="0"/>
        <pt x="243" y="-54" on="0"/>
        <pt x="295" y="80" on="0"/>
        <pt x="318" y="209" on="1"/>
        <pt x="158" y="85" on="0"/>
      </contour>
    </TTGlyph>
    <TTGlyph name="I" xMin="-39" yMin="-113" xMax="831" yMax="819">
      <contour>
        <pt x="218" y="-113" on="1"/>
        <pt x="69" y="-113" on="0"/>
        <pt x="8" y="-9" on="1"/>
        <pt x="-39" y="72" on="0"/>
        <pt x="13" y="260" on="0"/>
        <pt x="85" y="297" on="1"/>
        <pt x="119" y="314" on="0"/>
        <pt x="159" y="314" on="1"/>
        <pt x="265" y="314" on="0"/>
        <pt x="304" y="232" on="1"/>
        <pt x="321" y="196" on="0"/>
        <pt x="321" y="130" on="0"/>
        <pt x="309" y="100" on="1"/>
        <pt x="283" y="31" on="0"/>
        <pt x="224" y="31" on="1"/>
        <pt x="206" y="31" on="0"/>
        <pt x="198" y="45" on="1"/>
        <pt x="196" y="50" on="1"/>
        <pt x="239" y="50" on="0"/>
        <pt x="263" y="111" on="1"/>
        <pt x="275" y="141" on="0"/>
        <pt x="275" y="202" on="0"/>
        <pt x="262" y="234" on="1"/>
        <pt x="237" y="295" on="0"/>
        <pt x="77" y="295" on="0"/>
        <pt x="30" y="217" on="1"/>
        <pt x="-1" y="165" on="0"/>
        <pt x="-1" y="107" on="1"/>
        <pt x="-1" y="83" on="0"/>
        <pt x="4" y="57" on="1"/>
        <pt x="25" y="-37" on="0"/>
        <pt x="112" y="-71" on="1"/>
        <pt x="151" y="-86" on="0"/>
        <pt x="267" y="-86" on="0"/>
        <pt x="368" y="-33" on="0"/>
        <pt x="431" y="61" on="0"/>
        <pt x="475" y="175" on="0"/>
        <pt x="504" y="317" on="0"/>
        <pt x="514" y="380" on="1"/>
        <pt x="542" y="559" on="0"/>
        <pt x="565" y="627" on="1"/>
        <pt x="472" y="634" on="0"/>
        <pt x="468" y="634" on="1"/>
        <pt x="326" y="634" on="0"/>
        <pt x="269" y="541" on="1"/>
        <pt x="243" y="499" on="0"/>
        <pt x="243" y="455" on="1"/>
        <pt x="243" y="434" on="0"/>
        <pt x="249" y="413" on="1"/>
        <pt x="267" y="353" on="0"/>
        <pt x="315" y="353" on="1"/>
        <pt x="315" y="345" on="0"/>
        <pt x="299" y="331" on="0"/>
        <pt x="287" y="331" on="1"/>
        <pt x="230" y="331" on="0"/>
        <pt x="206" y="390" on="1"/>
        <pt x="195" y="419" on="0"/>
        <pt x="195" y="487" on="0"/>
        <pt x="215" y="529" on="1"/>
        <pt x="259" y="624" on="0"/>
        <pt x="376" y="650" on="1"/>
        <pt x="413" y="658" on="0"/>
        <pt x="474" y="658" on="0"/>
        <pt x="573" y="649" on="1"/>
        <pt x="618" y="763" on="0"/>
        <pt x="702" y="763" on="1"/>
        <pt x="709" y="763" on="0"/>
        <pt x="720" y="754" on="0"/>
        <pt x="723" y="746" on="1"/>
        <pt x="650" y="746" on="0"/>
        <pt x="619" y="646" on="1"/>
        <pt x="639" y="646" on="1"/>
        <pt x="742" y="646" on="0"/>
        <pt x="783" y="711" on="1"/>
        <pt x="799" y="736" on="0"/>
        <pt x="799" y="754" on="1"/>
        <pt x="799" y="801" on="0"/>
        <pt x="766" y="801" on="1"/>
        <pt x="772" y="819" on="0"/>
        <pt x="789" y="819" on="1"/>
        <pt x="818" y="819" on="0"/>
        <pt x="828" y="783" on="1"/>
        <pt x="831" y="770" on="0"/>
        <pt x="831" y="758" on="1"/>
        <pt x="831" y="722" on="0"/>
        <pt x="803" y="687" on="1"/>
        <pt x="750" y="623" on="0"/>
        <pt x="638" y="623" on="1"/>
        <pt x="613" y="623" on="1"/>
        <pt x="595" y="553" on="0"/>
        <pt x="577" y="352" on="0"/>
        <pt x="556" y="221" on="0"/>
        <pt x="529" y="111" on="0"/>
        <pt x="476" y="5" on="0"/>
        <pt x="404" y="-68" on="0"/>
        <pt x="290" y="-113" on="0"/>
      </contour>
    </TTGlyph>
    <TTGlyph name="Iacute" xMin="-39" yMin="-113" xMax="831" yMax="1027">
      <contour>
        <pt x="784" y="987" on="1"/>
        <pt x="754" y="950" on="0"/>
        <pt x="679" y="880" on="0"/>
        <pt x="658" y="880" on="0"/>
        <pt x="658" y="902" on="0"/>
        <pt x="705" y="975" on="0"/>
        <pt x="738" y="1012" on="1"/>
        <pt x="750" y="1027" on="0"/>
        <pt x="772" y="1027" on="0"/>
        <pt x="792" y="1018" on="0"/>
        <pt x="792" y="999" on="0"/>
      </contour>
      <contour>
        <pt x="218" y="-113" on="1"/>
        <pt x="69" y="-113" on="0"/>
        <pt x="8" y="-9" on="1"/>
        <pt x="-39" y="72" on="0"/>
        <pt x="13" y="260" on="0"/>
        <pt x="85" y="297" on="1"/>
        <pt x="119" y="314" on="0"/>
        <pt x="159" y="314" on="1"/>
        <pt x="265" y="314" on="0"/>
        <pt x="304" y="232" on="1"/>
        <pt x="321" y="196" on="0"/>
        <pt x="321" y="130" on="0"/>
        <pt x="309" y="100" on="1"/>
        <pt x="283" y="31" on="0"/>
        <pt x="224" y="31" on="1"/>
        <pt x="206" y="31" on="0"/>
        <pt x="198" y="45" on="1"/>
        <pt x="196" y="50" on="1"/>
        <pt x="239" y="50" on="0"/>
        <pt x="263" y="111" on="1"/>
        <pt x="275" y="141" on="0"/>
        <pt x="275" y="202" on="0"/>
        <pt x="262" y="234" on="1"/>
        <pt x="237" y="295" on="0"/>
        <pt x="77" y="295" on="0"/>
        <pt x="30" y="217" on="1"/>
        <pt x="-1" y="165" on="0"/>
        <pt x="-1" y="107" on="1"/>
        <pt x="-1" y="83" on="0"/>
        <pt x="4" y="57" on="1"/>
        <pt x="25" y="-37" on="0"/>
        <pt x="112" y="-71" on="1"/>
        <pt x="151" y="-86" on="0"/>
        <pt x="267" y="-86" on="0"/>
        <pt x="368" y="-33" on="0"/>
        <pt x="431" y="61" on="0"/>
        <pt x="475" y="175" on="0"/>
        <pt x="504" y="317" on="0"/>
        <pt x="514" y="380" on="1"/>
        <pt x="542" y="559" on="0"/>
        <pt x="565" y="627" on="1"/>
        <pt x="472" y="634" on="0"/>
        <pt x="468" y="634" on="1"/>
        <pt x="326" y="634" on="0"/>
        <pt x="269" y="541" on="1"/>
        <pt x="243" y="499" on="0"/>
        <pt x="243" y="455" on="1"/>
        <pt x="243" y="434" on="0"/>
        <pt x="249" y="413" on="1"/>
        <pt x="267" y="353" on="0"/>
        <pt x="315" y="353" on="1"/>
        <pt x="315" y="345" on="0"/>
        <pt x="299" y="331" on="0"/>
        <pt x="287" y="331" on="1"/>
        <pt x="230" y="331" on="0"/>
        <pt x="206" y="390" on="1"/>
        <pt x="195" y="419" on="0"/>
        <pt x="195" y="487" on="0"/>
        <pt x="215" y="529" on="1"/>
        <pt x="259" y="624" on="0"/>
        <pt x="376" y="650" on="1"/>
        <pt x="413" y="658" on="0"/>
        <pt x="474" y="658" on="0"/>
        <pt x="573" y="649" on="1"/>
        <pt x="618" y="763" on="0"/>
        <pt x="702" y="763" on="1"/>
        <pt x="709" y="763" on="0"/>
        <pt x="720" y="754" on="0"/>
        <pt x="723" y="746" on="1"/>
        <pt x="650" y="746" on="0"/>
        <pt x="619" y="646" on="1"/>
        <pt x="639" y="646" on="1"/>
        <pt x="742" y="646" on="0"/>
        <pt x="783" y="711" on="1"/>
        <pt x="799" y="736" on="0"/>
        <pt x="799" y="754" on="1"/>
        <pt x="799" y="801" on="0"/>
        <pt x="766" y="801" on="1"/>
        <pt x="772" y="819" on="0"/>
        <pt x="789" y="819" on="1"/>
        <pt x="818" y="819" on="0"/>
        <pt x="828" y="783" on="1"/>
        <pt x="831" y="770" on="0"/>
        <pt x="831" y="758" on="1"/>
        <pt x="831" y="722" on="0"/>
        <pt x="803" y="687" on="1"/>
        <pt x="750" y="623" on="0"/>
        <pt x="638" y="623" on="1"/>
        <pt x="613" y="623" on="1"/>
        <pt x="595" y="553" on="0"/>
        <pt x="577" y="352" on="0"/>
        <pt x="556" y="221" on="0"/>
        <pt x="529" y="111" on="0"/>
        <pt x="476" y="5" on="0"/>
        <pt x="404" y="-68" on="0"/>
        <pt x="290" y="-113" on="0"/>
      </contour>
    </TTGlyph>
    <TTGlyph name="Icircumflex" xMin="-39" yMin="-113" xMax="831" yMax="984">
      <contour>
        <pt x="691" y="984" on="0"/>
        <pt x="704" y="984" on="0"/>
        <pt x="707" y="977" on="1"/>
        <pt x="757" y="878" on="1"/>
        <pt x="733" y="878" on="1"/>
        <pt x="695" y="942" on="1"/>
        <pt x="586" y="878" on="1"/>
        <pt x="561" y="878" on="1"/>
        <pt x="642" y="945" on="0"/>
      </contour>
      <contour>
        <pt x="218" y="-113" on="1"/>
        <pt x="69" y="-113" on="0"/>
        <pt x="8" y="-9" on="1"/>
        <pt x="-39" y="72" on="0"/>
        <pt x="13" y="260" on="0"/>
        <pt x="85" y="297" on="1"/>
        <pt x="119" y="314" on="0"/>
        <pt x="159" y="314" on="1"/>
        <pt x="265" y="314" on="0"/>
        <pt x="304" y="232" on="1"/>
        <pt x="321" y="196" on="0"/>
        <pt x="321" y="130" on="0"/>
        <pt x="309" y="100" on="1"/>
        <pt x="283" y="31" on="0"/>
        <pt x="224" y="31" on="1"/>
        <pt x="206" y="31" on="0"/>
        <pt x="198" y="45" on="1"/>
        <pt x="196" y="50" on="1"/>
        <pt x="239" y="50" on="0"/>
        <pt x="263" y="111" on="1"/>
        <pt x="275" y="141" on="0"/>
        <pt x="275" y="202" on="0"/>
        <pt x="262" y="234" on="1"/>
        <pt x="237" y="295" on="0"/>
        <pt x="77" y="295" on="0"/>
        <pt x="30" y="217" on="1"/>
        <pt x="-1" y="165" on="0"/>
        <pt x="-1" y="107" on="1"/>
        <pt x="-1" y="83" on="0"/>
        <pt x="4" y="57" on="1"/>
        <pt x="25" y="-37" on="0"/>
        <pt x="112" y="-71" on="1"/>
        <pt x="151" y="-86" on="0"/>
        <pt x="267" y="-86" on="0"/>
        <pt x="368" y="-33" on="0"/>
        <pt x="431" y="61" on="0"/>
        <pt x="475" y="175" on="0"/>
        <pt x="504" y="317" on="0"/>
        <pt x="514" y="380" on="1"/>
        <pt x="542" y="559" on="0"/>
        <pt x="565" y="627" on="1"/>
        <pt x="472" y="634" on="0"/>
        <pt x="468" y="634" on="1"/>
        <pt x="326" y="634" on="0"/>
        <pt x="269" y="541" on="1"/>
        <pt x="243" y="499" on="0"/>
        <pt x="243" y="455" on="1"/>
        <pt x="243" y="434" on="0"/>
        <pt x="249" y="413" on="1"/>
        <pt x="267" y="353" on="0"/>
        <pt x="315" y="353" on="1"/>
        <pt x="315" y="345" on="0"/>
        <pt x="299" y="331" on="0"/>
        <pt x="287" y="331" on="1"/>
        <pt x="230" y="331" on="0"/>
        <pt x="206" y="390" on="1"/>
        <pt x="195" y="419" on="0"/>
        <pt x="195" y="487" on="0"/>
        <pt x="215" y="529" on="1"/>
        <pt x="259" y="624" on="0"/>
        <pt x="376" y="650" on="1"/>
        <pt x="413" y="658" on="0"/>
        <pt x="474" y="658" on="0"/>
        <pt x="573" y="649" on="1"/>
        <pt x="618" y="763" on="0"/>
        <pt x="702" y="763" on="1"/>
        <pt x="709" y="763" on="0"/>
        <pt x="720" y="754" on="0"/>
        <pt x="723" y="746" on="1"/>
        <pt x="650" y="746" on="0"/>
        <pt x="619" y="646" on="1"/>
        <pt x="639" y="646" on="1"/>
        <pt x="742" y="646" on="0"/>
        <pt x="783" y="711" on="1"/>
        <pt x="799" y="736" on="0"/>
        <pt x="799" y="754" on="1"/>
        <pt x="799" y="801" on="0"/>
        <pt x="766" y="801" on="1"/>
        <pt x="772" y="819" on="0"/>
        <pt x="789" y="819" on="1"/>
        <pt x="818" y="819" on="0"/>
        <pt x="828" y="783" on="1"/>
        <pt x="831" y="770" on="0"/>
        <pt x="831" y="758" on="1"/>
        <pt x="831" y="722" on="0"/>
        <pt x="803" y="687" on="1"/>
        <pt x="750" y="623" on="0"/>
        <pt x="638" y="623" on="1"/>
        <pt x="613" y="623" on="1"/>
        <pt x="595" y="553" on="0"/>
        <pt x="577" y="352" on="0"/>
        <pt x="556" y="221" on="0"/>
        <pt x="529" y="111" on="0"/>
        <pt x="476" y="5" on="0"/>
        <pt x="404" y="-68" on="0"/>
        <pt x="290" y="-113" on="0"/>
      </contour>
    </TTGlyph>
    <TTGlyph name="Idieresis" xMin="-39" yMin="-113" xMax="831" yMax="969">
      <contour>
        <pt x="619" y="969" on="1"/>
        <pt x="642" y="969" on="0"/>
        <pt x="642" y="907" on="0"/>
        <pt x="612" y="888" on="1"/>
        <pt x="597" y="878" on="0"/>
        <pt x="586" y="878" on="1"/>
        <pt x="570" y="878" on="0"/>
        <pt x="567" y="888" on="1"/>
        <pt x="566" y="891" on="1"/>
        <pt x="575" y="891" on="0"/>
        <pt x="583" y="930" on="0"/>
        <pt x="600" y="969" on="0"/>
      </contour>
      <contour>
        <pt x="745" y="969" on="1"/>
        <pt x="768" y="969" on="0"/>
        <pt x="768" y="907" on="0"/>
        <pt x="738" y="888" on="1"/>
        <pt x="723" y="878" on="0"/>
        <pt x="712" y="878" on="1"/>
        <pt x="696" y="878" on="0"/>
        <pt x="693" y="888" on="1"/>
        <pt x="692" y="891" on="1"/>
        <pt x="701" y="891" on="0"/>
        <pt x="709" y="930" on="0"/>
        <pt x="726" y="969" on="0"/>
      </contour>
      <contour>
        <pt x="218" y="-113" on="1"/>
        <pt x="69" y="-113" on="0"/>
        <pt x="8" y="-9" on="1"/>
        <pt x="-39" y="72" on="0"/>
        <pt x="13" y="260" on="0"/>
        <pt x="85" y="297" on="1"/>
        <pt x="119" y="314" on="0"/>
        <pt x="159" y="314" on="1"/>
        <pt x="265" y="314" on="0"/>
        <pt x="304" y="232" on="1"/>
        <pt x="321" y="196" on="0"/>
        <pt x="321" y="130" on="0"/>
        <pt x="309" y="100" on="1"/>
        <pt x="283" y="31" on="0"/>
        <pt x="224" y="31" on="1"/>
        <pt x="206" y="31" on="0"/>
        <pt x="198" y="45" on="1"/>
        <pt x="196" y="50" on="1"/>
        <pt x="239" y="50" on="0"/>
        <pt x="263" y="111" on="1"/>
        <pt x="275" y="141" on="0"/>
        <pt x="275" y="202" on="0"/>
        <pt x="262" y="234" on="1"/>
        <pt x="237" y="295" on="0"/>
        <pt x="77" y="295" on="0"/>
        <pt x="30" y="217" on="1"/>
        <pt x="-1" y="165" on="0"/>
        <pt x="-1" y="107" on="1"/>
        <pt x="-1" y="83" on="0"/>
        <pt x="4" y="57" on="1"/>
        <pt x="25" y="-37" on="0"/>
        <pt x="112" y="-71" on="1"/>
        <pt x="151" y="-86" on="0"/>
        <pt x="267" y="-86" on="0"/>
        <pt x="368" y="-33" on="0"/>
        <pt x="431" y="61" on="0"/>
        <pt x="475" y="175" on="0"/>
        <pt x="504" y="317" on="0"/>
        <pt x="514" y="380" on="1"/>
        <pt x="542" y="559" on="0"/>
        <pt x="565" y="627" on="1"/>
        <pt x="472" y="634" on="0"/>
        <pt x="468" y="634" on="1"/>
        <pt x="326" y="634" on="0"/>
        <pt x="269" y="541" on="1"/>
        <pt x="243" y="499" on="0"/>
        <pt x="243" y="455" on="1"/>
        <pt x="243" y="434" on="0"/>
        <pt x="249" y="413" on="1"/>
        <pt x="267" y="353" on="0"/>
        <pt x="315" y="353" on="1"/>
        <pt x="315" y="345" on="0"/>
        <pt x="299" y="331" on="0"/>
        <pt x="287" y="331" on="1"/>
        <pt x="230" y="331" on="0"/>
        <pt x="206" y="390" on="1"/>
        <pt x="195" y="419" on="0"/>
        <pt x="195" y="487" on="0"/>
        <pt x="215" y="529" on="1"/>
        <pt x="259" y="624" on="0"/>
        <pt x="376" y="650" on="1"/>
        <pt x="413" y="658" on="0"/>
        <pt x="474" y="658" on="0"/>
        <pt x="573" y="649" on="1"/>
        <pt x="618" y="763" on="0"/>
        <pt x="702" y="763" on="1"/>
        <pt x="709" y="763" on="0"/>
        <pt x="720" y="754" on="0"/>
        <pt x="723" y="746" on="1"/>
        <pt x="650" y="746" on="0"/>
        <pt x="619" y="646" on="1"/>
        <pt x="639" y="646" on="1"/>
        <pt x="742" y="646" on="0"/>
        <pt x="783" y="711" on="1"/>
        <pt x="799" y="736" on="0"/>
        <pt x="799" y="754" on="1"/>
        <pt x="799" y="801" on="0"/>
        <pt x="766" y="801" on="1"/>
        <pt x="772" y="819" on="0"/>
        <pt x="789" y="819" on="1"/>
        <pt x="818" y="819" on="0"/>
        <pt x="828" y="783" on="1"/>
        <pt x="831" y="770" on="0"/>
        <pt x="831" y="758" on="1"/>
        <pt x="831" y="722" on="0"/>
        <pt x="803" y="687" on="1"/>
        <pt x="750" y="623" on="0"/>
        <pt x="638" y="623" on="1"/>
        <pt x="613" y="623" on="1"/>
        <pt x="595" y="553" on="0"/>
        <pt x="577" y="352" on="0"/>
        <pt x="556" y="221" on="0"/>
        <pt x="529" y="111" on="0"/>
        <pt x="476" y="5" on="0"/>
        <pt x="404" y="-68" on="0"/>
        <pt x="290" y="-113" on="0"/>
      </contour>
    </TTGlyph>
    <TTGlyph name="Igrave" xMin="-39" yMin="-113" xMax="831" yMax="1016">
      <contour>
        <pt x="598" y="1007" on="1"/>
        <pt x="634" y="974" on="0"/>
        <pt x="699" y="895" on="0"/>
        <pt x="699" y="876" on="0"/>
        <pt x="678" y="876" on="0"/>
        <pt x="608" y="926" on="0"/>
        <pt x="571" y="962" on="1"/>
        <pt x="557" y="976" on="0"/>
        <pt x="557" y="996" on="0"/>
        <pt x="569" y="1016" on="0"/>
        <pt x="588" y="1016" on="0"/>
      </contour>
      <contour>
        <pt x="218" y="-113" on="1"/>
        <pt x="69" y="-113" on="0"/>
        <pt x="8" y="-9" on="1"/>
        <pt x="-39" y="72" on="0"/>
        <pt x="13" y="260" on="0"/>
        <pt x="85" y="297" on="1"/>
        <pt x="119" y="314" on="0"/>
        <pt x="159" y="314" on="1"/>
        <pt x="265" y="314" on="0"/>
        <pt x="304" y="232" on="1"/>
        <pt x="321" y="196" on="0"/>
        <pt x="321" y="130" on="0"/>
        <pt x="309" y="100" on="1"/>
        <pt x="283" y="31" on="0"/>
        <pt x="224" y="31" on="1"/>
        <pt x="206" y="31" on="0"/>
        <pt x="198" y="45" on="1"/>
        <pt x="196" y="50" on="1"/>
        <pt x="239" y="50" on="0"/>
        <pt x="263" y="111" on="1"/>
        <pt x="275" y="141" on="0"/>
        <pt x="275" y="202" on="0"/>
        <pt x="262" y="234" on="1"/>
        <pt x="237" y="295" on="0"/>
        <pt x="77" y="295" on="0"/>
        <pt x="30" y="217" on="1"/>
        <pt x="-1" y="165" on="0"/>
        <pt x="-1" y="107" on="1"/>
        <pt x="-1" y="83" on="0"/>
        <pt x="4" y="57" on="1"/>
        <pt x="25" y="-37" on="0"/>
        <pt x="112" y="-71" on="1"/>
        <pt x="151" y="-86" on="0"/>
        <pt x="267" y="-86" on="0"/>
        <pt x="368" y="-33" on="0"/>
        <pt x="431" y="61" on="0"/>
        <pt x="475" y="175" on="0"/>
        <pt x="504" y="317" on="0"/>
        <pt x="514" y="380" on="1"/>
        <pt x="542" y="559" on="0"/>
        <pt x="565" y="627" on="1"/>
        <pt x="472" y="634" on="0"/>
        <pt x="468" y="634" on="1"/>
        <pt x="326" y="634" on="0"/>
        <pt x="269" y="541" on="1"/>
        <pt x="243" y="499" on="0"/>
        <pt x="243" y="455" on="1"/>
        <pt x="243" y="434" on="0"/>
        <pt x="249" y="413" on="1"/>
        <pt x="267" y="353" on="0"/>
        <pt x="315" y="353" on="1"/>
        <pt x="315" y="345" on="0"/>
        <pt x="299" y="331" on="0"/>
        <pt x="287" y="331" on="1"/>
        <pt x="230" y="331" on="0"/>
        <pt x="206" y="390" on="1"/>
        <pt x="195" y="419" on="0"/>
        <pt x="195" y="487" on="0"/>
        <pt x="215" y="529" on="1"/>
        <pt x="259" y="624" on="0"/>
        <pt x="376" y="650" on="1"/>
        <pt x="413" y="658" on="0"/>
        <pt x="474" y="658" on="0"/>
        <pt x="573" y="649" on="1"/>
        <pt x="618" y="763" on="0"/>
        <pt x="702" y="763" on="1"/>
        <pt x="709" y="763" on="0"/>
        <pt x="720" y="754" on="0"/>
        <pt x="723" y="746" on="1"/>
        <pt x="650" y="746" on="0"/>
        <pt x="619" y="646" on="1"/>
        <pt x="639" y="646" on="1"/>
        <pt x="742" y="646" on="0"/>
        <pt x="783" y="711" on="1"/>
        <pt x="799" y="736" on="0"/>
        <pt x="799" y="754" on="1"/>
        <pt x="799" y="801" on="0"/>
        <pt x="766" y="801" on="1"/>
        <pt x="772" y="819" on="0"/>
        <pt x="789" y="819" on="1"/>
        <pt x="818" y="819" on="0"/>
        <pt x="828" y="783" on="1"/>
        <pt x="831" y="770" on="0"/>
        <pt x="831" y="758" on="1"/>
        <pt x="831" y="722" on="0"/>
        <pt x="803" y="687" on="1"/>
        <pt x="750" y="623" on="0"/>
        <pt x="638" y="623" on="1"/>
        <pt x="613" y="623" on="1"/>
        <pt x="595" y="553" on="0"/>
        <pt x="577" y="352" on="0"/>
        <pt x="556" y="221" on="0"/>
        <pt x="529" y="111" on="0"/>
        <pt x="476" y="5" on="0"/>
        <pt x="404" y="-68" on="0"/>
        <pt x="290" y="-113" on="0"/>
      </contour>
    </TTGlyph>
    <TTGlyph name="J" xMin="-40" yMin="-318" xMax="877" yMax="819">
      <contour>
        <pt x="813" y="801" on="1"/>
        <pt x="819" y="819" on="0"/>
        <pt x="854" y="819" on="0"/>
        <pt x="877" y="790" on="0"/>
        <pt x="877" y="744" on="0"/>
        <pt x="852" y="703" on="0"/>
        <pt x="817" y="675" on="0"/>
        <pt x="786" y="662" on="1"/>
        <pt x="743" y="643" on="0"/>
        <pt x="658" y="619" on="1"/>
        <pt x="634" y="531" on="0"/>
        <pt x="611" y="282" on="0"/>
        <pt x="587" y="116" on="0"/>
        <pt x="557" y="-27" on="0"/>
        <pt x="499" y="-164" on="0"/>
        <pt x="421" y="-260" on="0"/>
        <pt x="298" y="-318" on="0"/>
        <pt x="219" y="-318" on="1"/>
        <pt x="62" y="-318" on="0"/>
        <pt x="-5" y="-207" on="1"/>
        <pt x="-40" y="-149" on="0"/>
        <pt x="-40" y="-80" on="1"/>
        <pt x="-40" y="-47" on="0"/>
        <pt x="-32" y="-12" on="1"/>
        <pt x="-8" y="90" on="0"/>
        <pt x="68" y="137" on="1"/>
        <pt x="113" y="165" on="0"/>
        <pt x="166" y="165" on="1"/>
        <pt x="274" y="165" on="0"/>
        <pt x="314" y="80" on="1"/>
        <pt x="330" y="44" on="0"/>
        <pt x="330" y="-25" on="0"/>
        <pt x="319" y="-58" on="1"/>
        <pt x="292" y="-132" on="0"/>
        <pt x="231" y="-132" on="1"/>
        <pt x="214" y="-132" on="0"/>
        <pt x="203" y="-113" on="1"/>
        <pt x="244" y="-113" on="0"/>
        <pt x="268" y="-55" on="1"/>
        <pt x="283" y="-19" on="0"/>
        <pt x="283" y="45" on="0"/>
        <pt x="274" y="72" on="1"/>
        <pt x="248" y="146" on="0"/>
        <pt x="167" y="146" on="1"/>
        <pt x="72" y="146" on="0"/>
        <pt x="18" y="58" on="1"/>
        <pt x="-19" y="-3" on="0"/>
        <pt x="-19" y="-72" on="1"/>
        <pt x="-19" y="-96" on="0"/>
        <pt x="-14" y="-120" on="1"/>
        <pt x="4" y="-226" on="0"/>
        <pt x="93" y="-269" on="1"/>
        <pt x="140" y="-292" on="0"/>
        <pt x="284" y="-292" on="0"/>
        <pt x="406" y="-198" on="0"/>
        <pt x="473" y="-55" on="0"/>
        <pt x="524" y="148" on="0"/>
        <pt x="536" y="240" on="1"/>
        <pt x="571" y="491" on="0"/>
        <pt x="605" y="604" on="1"/>
        <pt x="422" y="551" on="0"/>
        <pt x="356" y="486" on="1"/>
        <pt x="329" y="458" on="0"/>
        <pt x="291" y="373" on="0"/>
        <pt x="291" y="269" on="0"/>
        <pt x="343" y="197" on="0"/>
        <pt x="383" y="197" on="1"/>
        <pt x="383" y="189" on="0"/>
        <pt x="367" y="175" on="0"/>
        <pt x="355" y="175" on="1"/>
        <pt x="306" y="175" on="0"/>
        <pt x="243" y="259" on="0"/>
        <pt x="243" y="362" on="0"/>
        <pt x="268" y="434" on="0"/>
        <pt x="305" y="487" on="0"/>
        <pt x="368" y="535" on="0"/>
        <pt x="424" y="567" on="0"/>
        <pt x="467" y="584" on="1"/>
        <pt x="531" y="608" on="0"/>
        <pt x="614" y="632" on="1"/>
        <pt x="661" y="763" on="0"/>
        <pt x="749" y="763" on="1"/>
        <pt x="756" y="763" on="0"/>
        <pt x="767" y="754" on="0"/>
        <pt x="770" y="746" on="1"/>
        <pt x="701" y="746" on="0"/>
        <pt x="667" y="648" on="1"/>
        <pt x="755" y="674" on="0"/>
        <pt x="844" y="724" on="0"/>
        <pt x="844" y="763" on="1"/>
        <pt x="844" y="780" on="0"/>
        <pt x="826" y="801" on="0"/>
      </contour>
    </TTGlyph>
    <TTGlyph name="K" xMin="-31" yMin="-138" xMax="960" yMax="836">
      <contour>
        <pt x="247" y="637" on="1"/>
        <pt x="417" y="626" on="1"/>
        <pt x="420" y="626" on="1"/>
        <pt x="467" y="735" on="0"/>
        <pt x="541" y="735" on="1"/>
        <pt x="555" y="735" on="0"/>
        <pt x="560" y="722" on="1"/>
        <pt x="561" y="718" on="1"/>
        <pt x="500" y="718" on="0"/>
        <pt x="467" y="630" on="1"/>
        <pt x="566" y="645" on="0"/>
        <pt x="606" y="715" on="1"/>
        <pt x="622" y="742" on="0"/>
        <pt x="622" y="759" on="1"/>
        <pt x="622" y="800" on="0"/>
        <pt x="594" y="800" on="1"/>
        <pt x="601" y="818" on="0"/>
        <pt x="618" y="818" on="1"/>
        <pt x="652" y="818" on="0"/>
        <pt x="652" y="724" on="0"/>
        <pt x="615" y="680" on="1"/>
        <pt x="560" y="617" on="0"/>
        <pt x="459" y="605" on="1"/>
        <pt x="445" y="559" on="0"/>
        <pt x="433" y="479" on="1"/>
        <pt x="512" y="462" on="0"/>
        <pt x="557" y="392" on="1"/>
        <pt x="629" y="452" on="0"/>
        <pt x="712" y="604" on="1"/>
        <pt x="744" y="662" on="0"/>
        <pt x="778" y="716" on="1"/>
        <pt x="854" y="836" on="0"/>
        <pt x="938" y="836" on="1"/>
        <pt x="948" y="836" on="0"/>
        <pt x="959" y="827" on="0"/>
        <pt x="960" y="818" on="1"/>
        <pt x="868" y="818" on="0"/>
        <pt x="809" y="686" on="1"/>
        <pt x="783" y="628" on="0"/>
        <pt x="730" y="504" on="0"/>
        <pt x="639" y="382" on="0"/>
        <pt x="579" y="350" on="1"/>
        <pt x="611" y="280" on="0"/>
        <pt x="638" y="106" on="1"/>
        <pt x="647" y="49" on="0"/>
        <pt x="662" y="-5" on="1"/>
        <pt x="692" y="-120" on="0"/>
        <pt x="779" y="-120" on="1"/>
        <pt x="777" y="-138" on="0"/>
        <pt x="753" y="-138" on="1"/>
        <pt x="690" y="-138" on="0"/>
        <pt x="613" y="-76" on="0"/>
        <pt x="583" y="34" on="0"/>
        <pt x="570" y="147" on="0"/>
        <pt x="556" y="290" on="0"/>
        <pt x="543" y="334" on="1"/>
        <pt x="489" y="313" on="0"/>
        <pt x="415" y="313" on="1"/>
        <pt x="407" y="313" on="1"/>
        <pt x="371" y="100" on="0"/>
        <pt x="298" y="14" on="1"/>
        <pt x="270" y="-19" on="0"/>
        <pt x="182" y="-62" on="0"/>
        <pt x="78" y="-62" on="0"/>
        <pt x="7" y="-26" on="0"/>
        <pt x="-8" y="2" on="1"/>
        <pt x="-31" y="43" on="0"/>
        <pt x="-31" y="111" on="0"/>
        <pt x="-11" y="170" on="0"/>
        <pt x="27" y="227" on="0"/>
        <pt x="90" y="263" on="0"/>
        <pt x="126" y="263" on="1"/>
        <pt x="145" y="263" on="0"/>
        <pt x="153" y="249" on="1"/>
        <pt x="156" y="244" on="1"/>
        <pt x="68" y="244" on="0"/>
        <pt x="22" y="170" on="1"/>
        <pt x="-4" y="127" on="0"/>
        <pt x="-4" y="84" on="1"/>
        <pt x="-4" y="64" on="0"/>
        <pt x="1" y="43" on="1"/>
        <pt x="23" y="-35" on="0"/>
        <pt x="111" y="-35" on="1"/>
        <pt x="182" y="-35" on="0"/>
        <pt x="226" y="18" on="1"/>
        <pt x="272" y="73" on="0"/>
        <pt x="298" y="150" on="1"/>
        <pt x="319" y="212" on="0"/>
        <pt x="344" y="324" on="1"/>
        <pt x="295" y="342" on="0"/>
        <pt x="282" y="381" on="1"/>
        <pt x="278" y="394" on="0"/>
        <pt x="278" y="430" on="0"/>
        <pt x="296" y="452" on="1"/>
        <pt x="324" y="484" on="0"/>
        <pt x="378" y="485" on="1"/>
        <pt x="396" y="563" on="0"/>
        <pt x="411" y="603" on="1"/>
        <pt x="259" y="613" on="1"/>
        <pt x="148" y="613" on="0"/>
        <pt x="100" y="530" on="1"/>
        <pt x="77" y="490" on="0"/>
        <pt x="77" y="430" on="0"/>
        <pt x="84" y="409" on="1"/>
        <pt x="104" y="356" on="0"/>
        <pt x="149" y="353" on="1"/>
        <pt x="149" y="345" on="0"/>
        <pt x="133" y="331" on="0"/>
        <pt x="121" y="331" on="1"/>
        <pt x="62" y="331" on="0"/>
        <pt x="41" y="391" on="1"/>
        <pt x="32" y="416" on="0"/>
        <pt x="32" y="483" on="0"/>
        <pt x="53" y="526" on="1"/>
        <pt x="108" y="637" on="0"/>
      </contour>
      <contour>
        <pt x="416" y="338" on="1"/>
        <pt x="476" y="338" on="0"/>
        <pt x="529" y="372" on="1"/>
        <pt x="496" y="441" on="0"/>
        <pt x="429" y="456" on="1"/>
        <pt x="411" y="338" on="1"/>
      </contour>
      <contour>
        <pt x="372" y="461" on="1"/>
        <pt x="336" y="458" on="0"/>
        <pt x="305" y="422" on="0"/>
        <pt x="305" y="409" on="1"/>
        <pt x="305" y="368" on="0"/>
        <pt x="349" y="349" on="1"/>
        <pt x="358" y="391" on="0"/>
      </contour>
    </TTGlyph>
    <TTGlyph name="L" xMin="-34" yMin="-150" xMax="730" yMax="831">
      <contour>
        <pt x="638" y="831" on="1"/>
        <pt x="730" y="831" on="0"/>
        <pt x="730" y="693" on="1"/>
        <pt x="730" y="605" on="0"/>
        <pt x="682" y="490" on="1"/>
        <pt x="612" y="323" on="0"/>
        <pt x="492" y="233" on="1"/>
        <pt x="446" y="199" on="0"/>
        <pt x="398" y="181" on="1"/>
        <pt x="350" y="57" on="0"/>
        <pt x="277" y="0" on="1"/>
        <pt x="377" y="-74" on="0"/>
        <pt x="467" y="-119" on="0"/>
        <pt x="509" y="-119" on="1"/>
        <pt x="582" y="-119" on="0"/>
        <pt x="605" y="-68" on="1"/>
        <pt x="612" y="-52" on="0"/>
        <pt x="612" y="-24" on="0"/>
        <pt x="597" y="-5" on="0"/>
        <pt x="587" y="-5" on="1"/>
        <pt x="590" y="7" on="0"/>
        <pt x="602" y="7" on="1"/>
        <pt x="636" y="7" on="0"/>
        <pt x="647" y="-31" on="1"/>
        <pt x="651" y="-44" on="0"/>
        <pt x="651" y="-56" on="1"/>
        <pt x="651" y="-86" on="0"/>
        <pt x="628" y="-112" on="1"/>
        <pt x="596" y="-150" on="0"/>
        <pt x="533" y="-150" on="1"/>
        <pt x="454" y="-150" on="0"/>
        <pt x="381" y="-104" on="1"/>
        <pt x="340" y="-79" on="0"/>
        <pt x="303" y="-51" on="0"/>
        <pt x="256" y="-15" on="1"/>
        <pt x="194" y="-54" on="0"/>
        <pt x="119" y="-54" on="1"/>
        <pt x="8" y="-54" on="0"/>
        <pt x="-25" y="2" on="1"/>
        <pt x="-34" y="19" on="0"/>
        <pt x="-34" y="56" on="0"/>
        <pt x="-18" y="76" on="1"/>
        <pt x="7" y="107" on="0"/>
        <pt x="54" y="107" on="1"/>
        <pt x="129" y="107" on="0"/>
        <pt x="241" y="26" on="1"/>
        <pt x="286" y="72" on="0"/>
        <pt x="322" y="163" on="1"/>
        <pt x="312" y="162" on="0"/>
        <pt x="293" y="162" on="1"/>
        <pt x="130" y="162" on="0"/>
        <pt x="54" y="292" on="1"/>
        <pt x="8" y="372" on="0"/>
        <pt x="8" y="469" on="1"/>
        <pt x="8" y="502" on="0"/>
        <pt x="13" y="536" on="1"/>
        <pt x="31" y="663" on="0"/>
        <pt x="107" y="730" on="1"/>
        <pt x="159" y="774" on="0"/>
        <pt x="291" y="774" on="0"/>
        <pt x="363" y="688" on="0"/>
        <pt x="365" y="625" on="1"/>
        <pt x="365" y="616" on="0"/>
        <pt x="345" y="605" on="0"/>
        <pt x="325" y="610" on="0"/>
        <pt x="325" y="620" on="1"/>
        <pt x="323" y="680" on="0"/>
        <pt x="279" y="751" on="0"/>
        <pt x="222" y="751" on="1"/>
        <pt x="132" y="751" on="0"/>
        <pt x="77" y="652" on="1"/>
        <pt x="33" y="574" on="0"/>
        <pt x="33" y="480" on="1"/>
        <pt x="33" y="308" on="0"/>
        <pt x="144" y="231" on="1"/>
        <pt x="205" y="188" on="0"/>
        <pt x="292" y="188" on="1"/>
        <pt x="312" y="188" on="0"/>
        <pt x="333" y="191" on="1"/>
        <pt x="356" y="253" on="0"/>
        <pt x="408" y="454" on="0"/>
        <pt x="449" y="603" on="0"/>
        <pt x="477" y="677" on="1"/>
        <pt x="535" y="831" on="0"/>
      </contour>
      <contour>
        <pt x="627" y="802" on="1"/>
        <pt x="557" y="802" on="0"/>
        <pt x="520" y="667" on="1"/>
        <pt x="502" y="602" on="0"/>
        <pt x="488" y="533" on="1"/>
        <pt x="447" y="322" on="0"/>
        <pt x="412" y="218" on="1"/>
        <pt x="535" y="281" on="0"/>
        <pt x="613" y="454" on="1"/>
        <pt x="676" y="592" on="0"/>
        <pt x="675" y="708" on="1"/>
        <pt x="672" y="800" on="0"/>
      </contour>
      <contour>
        <pt x="125" y="82" on="0"/>
        <pt x="54" y="82" on="1"/>
        <pt x="9" y="82" on="0"/>
        <pt x="-16" y="19" on="0"/>
        <pt x="24" y="-9" on="1"/>
        <pt x="54" y="-30" on="0"/>
        <pt x="176" y="-30" on="0"/>
        <pt x="223" y="9" on="1"/>
      </contour>
    </TTGlyph>
    <TTGlyph name="M" xMin="-6" yMin="-127" xMax="1408" yMax="818">
      <contour>
        <pt x="855" y="702" on="1"/>
        <pt x="794" y="721" on="1"/>
        <pt x="746" y="647" on="0"/>
        <pt x="692" y="455" on="1"/>
        <pt x="670" y="379" on="0"/>
        <pt x="617" y="210" on="0"/>
        <pt x="548" y="63" on="0"/>
        <pt x="459" y="-57" on="0"/>
        <pt x="327" y="-127" on="0"/>
        <pt x="245" y="-127" on="1"/>
        <pt x="98" y="-127" on="0"/>
        <pt x="31" y="-22" on="1"/>
        <pt x="-6" y="37" on="0"/>
        <pt x="-6" y="105" on="1"/>
        <pt x="-6" y="133" on="0"/>
        <pt x="0" y="162" on="1"/>
        <pt x="21" y="259" on="0"/>
        <pt x="95" y="300" on="1"/>
        <pt x="134" y="322" on="0"/>
        <pt x="182" y="322" on="1"/>
        <pt x="285" y="322" on="0"/>
        <pt x="321" y="242" on="1"/>
        <pt x="336" y="209" on="0"/>
        <pt x="336" y="140" on="0"/>
        <pt x="322" y="105" on="1"/>
        <pt x="288" y="21" on="0"/>
        <pt x="211" y="21" on="1"/>
        <pt x="199" y="21" on="0"/>
        <pt x="183" y="32" on="0"/>
        <pt x="179" y="43" on="1"/>
        <pt x="206" y="43" on="0"/>
        <pt x="230" y="57" on="1"/>
        <pt x="270" y="81" on="0"/>
        <pt x="292" y="144" on="1"/>
        <pt x="299" y="165" on="0"/>
        <pt x="299" y="192" on="0"/>
        <pt x="295" y="227" on="0"/>
        <pt x="273" y="273" on="0"/>
        <pt x="219" y="301" on="0"/>
        <pt x="182" y="301" on="1"/>
        <pt x="87" y="301" on="0"/>
        <pt x="42" y="217" on="1"/>
        <pt x="16" y="169" on="0"/>
        <pt x="16" y="83" on="0"/>
        <pt x="25" y="49" on="1"/>
        <pt x="51" y="-46" on="0"/>
        <pt x="134" y="-82" on="1"/>
        <pt x="173" y="-99" on="0"/>
        <pt x="293" y="-99" on="0"/>
        <pt x="416" y="-32" on="0"/>
        <pt x="505" y="83" on="0"/>
        <pt x="577" y="225" on="0"/>
        <pt x="636" y="390" on="0"/>
        <pt x="660" y="464" on="1"/>
        <pt x="724" y="654" on="0"/>
        <pt x="771" y="729" on="1"/>
        <pt x="620" y="776" on="0"/>
        <pt x="552" y="776" on="1"/>
        <pt x="423" y="776" on="0"/>
        <pt x="360" y="678" on="1"/>
        <pt x="324" y="622" on="0"/>
        <pt x="324" y="563" on="1"/>
        <pt x="324" y="546" on="0"/>
        <pt x="328" y="528" on="1"/>
        <pt x="339" y="462" on="0"/>
        <pt x="387" y="449" on="1"/>
        <pt x="396" y="447" on="0"/>
        <pt x="405" y="447" on="1"/>
        <pt x="399" y="426" on="0"/>
        <pt x="372" y="426" on="1"/>
        <pt x="311" y="426" on="0"/>
        <pt x="286" y="491" on="1"/>
        <pt x="274" y="522" on="0"/>
        <pt x="274" y="598" on="0"/>
        <pt x="294" y="645" on="1"/>
        <pt x="336" y="746" on="0"/>
        <pt x="442" y="783" on="1"/>
        <pt x="492" y="800" on="0"/>
        <pt x="621" y="800" on="0"/>
        <pt x="784" y="748" on="1"/>
        <pt x="833" y="818" on="0"/>
        <pt x="896" y="818" on="1"/>
        <pt x="904" y="818" on="0"/>
        <pt x="912" y="808" on="0"/>
        <pt x="913" y="799" on="1"/>
        <pt x="854" y="799" on="0"/>
        <pt x="808" y="740" on="1"/>
        <pt x="853" y="726" on="0"/>
        <pt x="866" y="721" on="1"/>
        <pt x="908" y="794" on="0"/>
        <pt x="945" y="794" on="1"/>
        <pt x="962" y="794" on="0"/>
        <pt x="965" y="784" on="1"/>
        <pt x="966" y="781" on="1"/>
        <pt x="938" y="781" on="0"/>
        <pt x="907" y="707" on="1"/>
        <pt x="1050" y="661" on="1"/>
        <pt x="1117" y="787" on="0"/>
        <pt x="1190" y="787" on="1"/>
        <pt x="1200" y="787" on="0"/>
        <pt x="1212" y="777" on="0"/>
        <pt x="1214" y="767" on="1"/>
        <pt x="1139" y="767" on="0"/>
        <pt x="1076" y="653" on="1"/>
        <pt x="1130" y="639" on="0"/>
        <pt x="1143" y="637" on="1"/>
        <pt x="1202" y="754" on="0"/>
        <pt x="1249" y="754" on="1"/>
        <pt x="1266" y="754" on="0"/>
        <pt x="1269" y="744" on="1"/>
        <pt x="1270" y="741" on="1"/>
        <pt x="1237" y="741" on="0"/>
        <pt x="1190" y="630" on="1"/>
        <pt x="1197" y="629" on="0"/>
        <pt x="1209" y="629" on="1"/>
        <pt x="1308" y="629" on="0"/>
        <pt x="1348" y="688" on="1"/>
        <pt x="1365" y="711" on="0"/>
        <pt x="1365" y="727" on="1"/>
        <pt x="1365" y="772" on="0"/>
        <pt x="1325" y="772" on="1"/>
        <pt x="1334" y="786" on="0"/>
        <pt x="1354" y="786" on="1"/>
        <pt x="1393" y="786" on="0"/>
        <pt x="1405" y="747" on="1"/>
        <pt x="1408" y="735" on="0"/>
        <pt x="1408" y="724" on="1"/>
        <pt x="1408" y="691" on="0"/>
        <pt x="1380" y="659" on="1"/>
        <pt x="1331" y="605" on="0"/>
        <pt x="1229" y="605" on="1"/>
        <pt x="1205" y="605" on="0"/>
        <pt x="1182" y="609" on="1"/>
        <pt x="1138" y="496" on="0"/>
        <pt x="1075" y="200" on="0"/>
        <pt x="1075" y="-32" on="0"/>
        <pt x="1122" y="-32" on="1"/>
        <pt x="1112" y="-52" on="0"/>
        <pt x="1093" y="-52" on="1"/>
        <pt x="1015" y="-52" on="0"/>
        <pt x="1015" y="119" on="1"/>
        <pt x="1015" y="220" on="0"/>
        <pt x="1079" y="499" on="0"/>
        <pt x="1134" y="618" on="1"/>
        <pt x="1108" y="623" on="0"/>
        <pt x="1066" y="635" on="1"/>
        <pt x="1022" y="549" on="0"/>
        <pt x="925" y="218" on="0"/>
        <pt x="850" y="6" on="0"/>
        <pt x="812" y="6" on="1"/>
        <pt x="736" y="6" on="0"/>
        <pt x="736" y="188" on="1"/>
        <pt x="736" y="299" on="0"/>
        <pt x="801" y="597" on="0"/>
      </contour>
      <contour>
        <pt x="803" y="63" on="0"/>
        <pt x="844" y="63" on="0"/>
        <pt x="905" y="255" on="0"/>
        <pt x="996" y="555" on="0"/>
        <pt x="1040" y="642" on="1"/>
        <pt x="950" y="670" on="0"/>
        <pt x="899" y="687" on="1"/>
        <pt x="855" y="569" on="0"/>
        <pt x="826" y="382" on="1"/>
        <pt x="803" y="231" on="0"/>
      </contour>
    </TTGlyph>
    <TTGlyph name="N" xMin="-6" yMin="-127" xMax="1289" yMax="850">
      <contour>
        <pt x="276" y="645" on="1"/>
        <pt x="340" y="800" on="0"/>
        <pt x="544" y="800" on="1"/>
        <pt x="615" y="800" on="0"/>
        <pt x="753" y="754" on="1"/>
        <pt x="799" y="818" on="0"/>
        <pt x="858" y="818" on="1"/>
        <pt x="866" y="818" on="0"/>
        <pt x="874" y="808" on="0"/>
        <pt x="875" y="799" on="1"/>
        <pt x="820" y="799" on="0"/>
        <pt x="778" y="747" on="1"/>
        <pt x="810" y="739" on="0"/>
        <pt x="842" y="735" on="1"/>
        <pt x="876" y="804" on="0"/>
        <pt x="911" y="804" on="1"/>
        <pt x="927" y="804" on="0"/>
        <pt x="930" y="794" on="1"/>
        <pt x="931" y="790" on="1"/>
        <pt x="907" y="790" on="0"/>
        <pt x="886" y="733" on="1"/>
        <pt x="944" y="734" on="0"/>
        <pt x="965" y="779" on="1"/>
        <pt x="972" y="793" on="0"/>
        <pt x="972" y="818" on="0"/>
        <pt x="955" y="835" on="0"/>
        <pt x="944" y="835" on="1"/>
        <pt x="949" y="850" on="0"/>
        <pt x="965" y="850" on="1"/>
        <pt x="994" y="850" on="0"/>
        <pt x="1003" y="816" on="1"/>
        <pt x="1006" y="806" on="0"/>
        <pt x="1006" y="796" on="1"/>
        <pt x="1006" y="766" on="0"/>
        <pt x="948" y="709" on="0"/>
        <pt x="890" y="709" on="1"/>
        <pt x="878" y="709" on="1"/>
        <pt x="849" y="614" on="0"/>
        <pt x="826" y="347" on="0"/>
        <pt x="826" y="258" on="1"/>
        <pt x="826" y="33" on="0"/>
        <pt x="866" y="33" on="1"/>
        <pt x="883" y="33" on="0"/>
        <pt x="933" y="195" on="0"/>
        <pt x="996" y="425" on="0"/>
        <pt x="1073" y="656" on="0"/>
        <pt x="1187" y="818" on="0"/>
        <pt x="1252" y="818" on="1"/>
        <pt x="1266" y="818" on="0"/>
        <pt x="1285" y="804" on="0"/>
        <pt x="1289" y="789" on="1"/>
        <pt x="1215" y="789" on="0"/>
        <pt x="1094" y="622" on="0"/>
        <pt x="1016" y="382" on="0"/>
        <pt x="951" y="143" on="0"/>
        <pt x="886" y="-24" on="0"/>
        <pt x="854" y="-24" on="1"/>
        <pt x="804" y="-24" on="0"/>
        <pt x="756" y="140" on="0"/>
        <pt x="756" y="246" on="1"/>
        <pt x="756" y="368" on="0"/>
        <pt x="799" y="633" on="0"/>
        <pt x="832" y="713" on="1"/>
        <pt x="796" y="719" on="0"/>
        <pt x="764" y="728" on="1"/>
        <pt x="708" y="642" on="0"/>
        <pt x="657" y="410" on="1"/>
        <pt x="637" y="319" on="0"/>
        <pt x="569" y="121" on="0"/>
        <pt x="486" y="-29" on="0"/>
        <pt x="341" y="-127" on="0"/>
        <pt x="245" y="-127" on="1"/>
        <pt x="98" y="-127" on="0"/>
        <pt x="31" y="-22" on="1"/>
        <pt x="-6" y="37" on="0"/>
        <pt x="-6" y="105" on="1"/>
        <pt x="-6" y="133" on="0"/>
        <pt x="0" y="162" on="1"/>
        <pt x="21" y="259" on="0"/>
        <pt x="95" y="300" on="1"/>
        <pt x="134" y="322" on="0"/>
        <pt x="182" y="322" on="1"/>
        <pt x="285" y="322" on="0"/>
        <pt x="321" y="242" on="1"/>
        <pt x="336" y="209" on="0"/>
        <pt x="336" y="140" on="0"/>
        <pt x="322" y="105" on="1"/>
        <pt x="288" y="21" on="0"/>
        <pt x="211" y="21" on="1"/>
        <pt x="199" y="21" on="0"/>
        <pt x="183" y="32" on="0"/>
        <pt x="179" y="43" on="1"/>
        <pt x="206" y="43" on="0"/>
        <pt x="230" y="57" on="1"/>
        <pt x="270" y="81" on="0"/>
        <pt x="292" y="144" on="1"/>
        <pt x="299" y="165" on="0"/>
        <pt x="299" y="192" on="0"/>
        <pt x="295" y="227" on="0"/>
        <pt x="273" y="273" on="0"/>
        <pt x="219" y="301" on="0"/>
        <pt x="182" y="301" on="1"/>
        <pt x="87" y="301" on="0"/>
        <pt x="42" y="217" on="1"/>
        <pt x="16" y="169" on="0"/>
        <pt x="16" y="83" on="0"/>
        <pt x="25" y="49" on="1"/>
        <pt x="51" y="-46" on="0"/>
        <pt x="134" y="-82" on="1"/>
        <pt x="173" y="-99" on="0"/>
        <pt x="220" y="-99" on="1"/>
        <pt x="306" y="-99" on="0"/>
        <pt x="442" y="-5" on="0"/>
        <pt x="526" y="138" on="0"/>
        <pt x="601" y="330" on="0"/>
        <pt x="624" y="418" on="1"/>
        <pt x="684" y="641" on="0"/>
        <pt x="741" y="735" on="1"/>
        <pt x="736" y="736" on="0"/>
        <pt x="693" y="750" on="0"/>
        <pt x="678" y="754" on="0"/>
        <pt x="639" y="764" on="0"/>
        <pt x="617" y="768" on="0"/>
        <pt x="600" y="771" on="1"/>
        <pt x="570" y="776" on="0"/>
        <pt x="534" y="776" on="1"/>
        <pt x="404" y="776" on="0"/>
        <pt x="342" y="678" on="1"/>
        <pt x="306" y="623" on="0"/>
        <pt x="306" y="564" on="1"/>
        <pt x="306" y="547" on="0"/>
        <pt x="310" y="529" on="1"/>
        <pt x="321" y="464" on="0"/>
        <pt x="368" y="451" on="1"/>
        <pt x="377" y="448" on="0"/>
        <pt x="387" y="448" on="1"/>
        <pt x="381" y="426" on="0"/>
        <pt x="354" y="426" on="1"/>
        <pt x="293" y="426" on="0"/>
        <pt x="268" y="491" on="1"/>
        <pt x="256" y="522" on="0"/>
        <pt x="256" y="598" on="0"/>
      </contour>
    </TTGlyph>
    <TTGlyph name="Ntilde" xMin="-6" yMin="-127" xMax="1289" yMax="982">
      <contour>
        <pt x="999" y="953" on="1"/>
        <pt x="974" y="953" on="0"/>
        <pt x="950" y="911" on="1"/>
        <pt x="927" y="911" on="1"/>
        <pt x="929" y="917" on="0"/>
        <pt x="950" y="948" on="0"/>
        <pt x="960" y="958" on="1"/>
        <pt x="986" y="982" on="0"/>
        <pt x="1021" y="982" on="1"/>
        <pt x="1040" y="982" on="0"/>
        <pt x="1096" y="943" on="0"/>
        <pt x="1129" y="943" on="0"/>
        <pt x="1153" y="961" on="0"/>
        <pt x="1163" y="979" on="1"/>
        <pt x="1185" y="979" on="1"/>
        <pt x="1182" y="971" on="0"/>
        <pt x="1169" y="947" on="0"/>
        <pt x="1123" y="908" on="0"/>
        <pt x="1074" y="908" on="0"/>
        <pt x="1014" y="953" on="0"/>
      </contour>
      <contour>
        <pt x="276" y="645" on="1"/>
        <pt x="340" y="800" on="0"/>
        <pt x="544" y="800" on="1"/>
        <pt x="615" y="800" on="0"/>
        <pt x="753" y="754" on="1"/>
        <pt x="799" y="818" on="0"/>
        <pt x="858" y="818" on="1"/>
        <pt x="866" y="818" on="0"/>
        <pt x="874" y="808" on="0"/>
        <pt x="875" y="799" on="1"/>
        <pt x="820" y="799" on="0"/>
        <pt x="778" y="747" on="1"/>
        <pt x="810" y="739" on="0"/>
        <pt x="842" y="735" on="1"/>
        <pt x="876" y="804" on="0"/>
        <pt x="911" y="804" on="1"/>
        <pt x="927" y="804" on="0"/>
        <pt x="930" y="794" on="1"/>
        <pt x="931" y="790" on="1"/>
        <pt x="907" y="790" on="0"/>
        <pt x="886" y="733" on="1"/>
        <pt x="944" y="734" on="0"/>
        <pt x="965" y="779" on="1"/>
        <pt x="972" y="793" on="0"/>
        <pt x="972" y="818" on="0"/>
        <pt x="955" y="835" on="0"/>
        <pt x="944" y="835" on="1"/>
        <pt x="949" y="850" on="0"/>
        <pt x="965" y="850" on="1"/>
        <pt x="994" y="850" on="0"/>
        <pt x="1003" y="816" on="1"/>
        <pt x="1006" y="806" on="0"/>
        <pt x="1006" y="796" on="1"/>
        <pt x="1006" y="766" on="0"/>
        <pt x="948" y="709" on="0"/>
        <pt x="890" y="709" on="1"/>
        <pt x="878" y="709" on="1"/>
        <pt x="849" y="614" on="0"/>
        <pt x="826" y="347" on="0"/>
        <pt x="826" y="258" on="1"/>
        <pt x="826" y="33" on="0"/>
        <pt x="866" y="33" on="1"/>
        <pt x="883" y="33" on="0"/>
        <pt x="933" y="195" on="0"/>
        <pt x="996" y="425" on="0"/>
        <pt x="1073" y="656" on="0"/>
        <pt x="1187" y="818" on="0"/>
        <pt x="1252" y="818" on="1"/>
        <pt x="1266" y="818" on="0"/>
        <pt x="1285" y="804" on="0"/>
        <pt x="1289" y="789" on="1"/>
        <pt x="1215" y="789" on="0"/>
        <pt x="1094" y="622" on="0"/>
        <pt x="1016" y="382" on="0"/>
        <pt x="951" y="143" on="0"/>
        <pt x="886" y="-24" on="0"/>
        <pt x="854" y="-24" on="1"/>
        <pt x="804" y="-24" on="0"/>
        <pt x="756" y="140" on="0"/>
        <pt x="756" y="246" on="1"/>
        <pt x="756" y="368" on="0"/>
        <pt x="799" y="633" on="0"/>
        <pt x="832" y="713" on="1"/>
        <pt x="796" y="719" on="0"/>
        <pt x="764" y="728" on="1"/>
        <pt x="708" y="642" on="0"/>
        <pt x="657" y="410" on="1"/>
        <pt x="637" y="319" on="0"/>
        <pt x="569" y="121" on="0"/>
        <pt x="486" y="-29" on="0"/>
        <pt x="341" y="-127" on="0"/>
        <pt x="245" y="-127" on="1"/>
        <pt x="98" y="-127" on="0"/>
        <pt x="31" y="-22" on="1"/>
        <pt x="-6" y="37" on="0"/>
        <pt x="-6" y="105" on="1"/>
        <pt x="-6" y="133" on="0"/>
        <pt x="0" y="162" on="1"/>
        <pt x="21" y="259" on="0"/>
        <pt x="95" y="300" on="1"/>
        <pt x="134" y="322" on="0"/>
        <pt x="182" y="322" on="1"/>
        <pt x="285" y="322" on="0"/>
        <pt x="321" y="242" on="1"/>
        <pt x="336" y="209" on="0"/>
        <pt x="336" y="140" on="0"/>
        <pt x="322" y="105" on="1"/>
        <pt x="288" y="21" on="0"/>
        <pt x="211" y="21" on="1"/>
        <pt x="199" y="21" on="0"/>
        <pt x="183" y="32" on="0"/>
        <pt x="179" y="43" on="1"/>
        <pt x="206" y="43" on="0"/>
        <pt x="230" y="57" on="1"/>
        <pt x="270" y="81" on="0"/>
        <pt x="292" y="144" on="1"/>
        <pt x="299" y="165" on="0"/>
        <pt x="299" y="192" on="0"/>
        <pt x="295" y="227" on="0"/>
        <pt x="273" y="273" on="0"/>
        <pt x="219" y="301" on="0"/>
        <pt x="182" y="301" on="1"/>
        <pt x="87" y="301" on="0"/>
        <pt x="42" y="217" on="1"/>
        <pt x="16" y="169" on="0"/>
        <pt x="16" y="83" on="0"/>
        <pt x="25" y="49" on="1"/>
        <pt x="51" y="-46" on="0"/>
        <pt x="134" y="-82" on="1"/>
        <pt x="173" y="-99" on="0"/>
        <pt x="220" y="-99" on="1"/>
        <pt x="306" y="-99" on="0"/>
        <pt x="442" y="-5" on="0"/>
        <pt x="526" y="138" on="0"/>
        <pt x="601" y="330" on="0"/>
        <pt x="624" y="418" on="1"/>
        <pt x="684" y="641" on="0"/>
        <pt x="741" y="735" on="1"/>
        <pt x="736" y="736" on="0"/>
        <pt x="693" y="750" on="0"/>
        <pt x="678" y="754" on="0"/>
        <pt x="639" y="764" on="0"/>
        <pt x="617" y="768" on="0"/>
        <pt x="600" y="771" on="1"/>
        <pt x="570" y="776" on="0"/>
        <pt x="534" y="776" on="1"/>
        <pt x="404" y="776" on="0"/>
        <pt x="342" y="678" on="1"/>
        <pt x="306" y="623" on="0"/>
        <pt x="306" y="564" on="1"/>
        <pt x="306" y="547" on="0"/>
        <pt x="310" y="529" on="1"/>
        <pt x="321" y="464" on="0"/>
        <pt x="368" y="451" on="1"/>
        <pt x="377" y="448" on="0"/>
        <pt x="387" y="448" on="1"/>
        <pt x="381" y="426" on="0"/>
        <pt x="354" y="426" on="1"/>
        <pt x="293" y="426" on="0"/>
        <pt x="268" y="491" on="1"/>
        <pt x="256" y="522" on="0"/>
        <pt x="256" y="598" on="0"/>
      </contour>
    </TTGlyph>
    <TTGlyph name="O" xMin="48" yMin="-53" xMax="653" yMax="818">
      <contour>
        <pt x="339" y="340" on="1"/>
        <pt x="339" y="191" on="0"/>
        <pt x="422" y="191" on="1"/>
        <pt x="419" y="172" on="0"/>
        <pt x="389" y="172" on="1"/>
        <pt x="317" y="172" on="0"/>
        <pt x="292" y="263" on="1"/>
        <pt x="282" y="302" on="0"/>
        <pt x="282" y="409" on="0"/>
        <pt x="305" y="484" on="1"/>
        <pt x="347" y="619" on="0"/>
        <pt x="436" y="673" on="1"/>
        <pt x="480" y="700" on="0"/>
        <pt x="530" y="700" on="1"/>
        <pt x="626" y="700" on="0"/>
        <pt x="647" y="585" on="1"/>
        <pt x="653" y="553" on="0"/>
        <pt x="653" y="518" on="1"/>
        <pt x="653" y="419" on="0"/>
        <pt x="606" y="291" on="1"/>
        <pt x="542" y="114" on="0"/>
        <pt x="436" y="18" on="1"/>
        <pt x="359" y="-53" on="0"/>
        <pt x="280" y="-53" on="1"/>
        <pt x="133" y="-53" on="0"/>
        <pt x="77" y="83" on="1"/>
        <pt x="48" y="152" on="0"/>
        <pt x="48" y="309" on="0"/>
        <pt x="68" y="392" on="1"/>
        <pt x="112" y="575" on="0"/>
        <pt x="340" y="818" on="0"/>
        <pt x="481" y="818" on="1"/>
        <pt x="489" y="818" on="0"/>
        <pt x="499" y="808" on="0"/>
        <pt x="500" y="797" on="1"/>
        <pt x="362" y="797" on="0"/>
        <pt x="252" y="642" on="1"/>
        <pt x="155" y="505" on="0"/>
        <pt x="125" y="323" on="1"/>
        <pt x="115" y="262" on="0"/>
        <pt x="115" y="210" on="1"/>
        <pt x="115" y="109" on="0"/>
        <pt x="197" y="-29" on="0"/>
        <pt x="281" y="-29" on="1"/>
        <pt x="393" y="-29" on="0"/>
        <pt x="493" y="123" on="1"/>
        <pt x="581" y="257" on="0"/>
        <pt x="613" y="425" on="1"/>
        <pt x="625" y="487" on="0"/>
        <pt x="625" y="534" on="1"/>
        <pt x="625" y="608" on="0"/>
        <pt x="596" y="646" on="1"/>
        <pt x="573" y="673" on="0"/>
        <pt x="539" y="673" on="1"/>
        <pt x="450" y="673" on="0"/>
        <pt x="391" y="552" on="1"/>
        <pt x="339" y="446" on="0"/>
      </contour>
    </TTGlyph>
    <TTGlyph name="OE" xMin="-2" yMin="-321" xMax="1086" yMax="939">
      <contour>
        <pt x="289" y="340" on="1"/>
        <pt x="289" y="191" on="0"/>
        <pt x="372" y="191" on="1"/>
        <pt x="369" y="172" on="0"/>
        <pt x="339" y="172" on="1"/>
        <pt x="267" y="172" on="0"/>
        <pt x="242" y="263" on="1"/>
        <pt x="232" y="302" on="0"/>
        <pt x="232" y="409" on="0"/>
        <pt x="255" y="484" on="1"/>
        <pt x="297" y="619" on="0"/>
        <pt x="386" y="673" on="1"/>
        <pt x="430" y="700" on="0"/>
        <pt x="539" y="700" on="0"/>
        <pt x="602" y="607" on="0"/>
        <pt x="602" y="462" on="0"/>
        <pt x="581" y="372" on="1"/>
        <pt x="630" y="431" on="0"/>
        <pt x="695" y="464" on="1"/>
        <pt x="679" y="498" on="0"/>
        <pt x="679" y="559" on="0"/>
        <pt x="682" y="580" on="1"/>
        <pt x="636" y="601" on="0"/>
        <pt x="608" y="636" on="1"/>
        <pt x="571" y="685" on="0"/>
        <pt x="571" y="746" on="1"/>
        <pt x="571" y="814" on="0"/>
        <pt x="609" y="866" on="1"/>
        <pt x="633" y="898" on="0"/>
        <pt x="711" y="939" on="0"/>
        <pt x="758" y="939" on="1"/>
        <pt x="764" y="939" on="0"/>
        <pt x="771" y="930" on="0"/>
        <pt x="771" y="926" on="1"/>
        <pt x="771" y="922" on="1"/>
        <pt x="706" y="922" on="0"/>
        <pt x="659" y="884" on="1"/>
        <pt x="593" y="829" on="0"/>
        <pt x="593" y="754" on="1"/>
        <pt x="593" y="721" on="0"/>
        <pt x="606" y="688" on="1"/>
        <pt x="629" y="634" on="0"/>
        <pt x="688" y="605" on="1"/>
        <pt x="712" y="694" on="0"/>
        <pt x="863" y="821" on="0"/>
        <pt x="973" y="821" on="1"/>
        <pt x="1056" y="821" on="0"/>
        <pt x="1079" y="765" on="1"/>
        <pt x="1086" y="748" on="0"/>
        <pt x="1086" y="730" on="1"/>
        <pt x="1086" y="693" on="0"/>
        <pt x="1056" y="652" on="1"/>
        <pt x="982" y="554" on="0"/>
        <pt x="819" y="554" on="1"/>
        <pt x="770" y="554" on="0"/>
        <pt x="732" y="563" on="1"/>
        <pt x="729" y="544" on="0"/>
        <pt x="729" y="502" on="0"/>
        <pt x="736" y="481" on="1"/>
        <pt x="797" y="503" on="0"/>
        <pt x="934" y="503" on="0"/>
        <pt x="949" y="468" on="1"/>
        <pt x="952" y="460" on="0"/>
        <pt x="952" y="453" on="1"/>
        <pt x="952" y="432" on="0"/>
        <pt x="888" y="390" on="0"/>
        <pt x="754" y="390" on="0"/>
        <pt x="713" y="436" on="1"/>
        <pt x="624" y="379" on="0"/>
        <pt x="582" y="268" on="1"/>
        <pt x="554" y="194" on="0"/>
        <pt x="554" y="124" on="1"/>
        <pt x="554" y="89" on="0"/>
        <pt x="561" y="56" on="1"/>
        <pt x="582" y="-46" on="0"/>
        <pt x="659" y="-81" on="1"/>
        <pt x="659" y="-78" on="0"/>
        <pt x="659" y="-75" on="1"/>
        <pt x="659" y="18" on="0"/>
        <pt x="720" y="196" on="0"/>
        <pt x="852" y="325" on="0"/>
        <pt x="1024" y="325" on="0"/>
        <pt x="1049" y="247" on="1"/>
        <pt x="1058" y="219" on="0"/>
        <pt x="1058" y="189" on="1"/>
        <pt x="1058" y="134" on="0"/>
        <pt x="1028" y="69" on="1"/>
        <pt x="976" y="-42" on="0"/>
        <pt x="871" y="-92" on="1"/>
        <pt x="807" y="-122" on="0"/>
        <pt x="733" y="-122" on="1"/>
        <pt x="721" y="-122" on="0"/>
        <pt x="701" y="-120" on="1"/>
        <pt x="704" y="-202" on="0"/>
        <pt x="772" y="-304" on="0"/>
        <pt x="836" y="-304" on="1"/>
        <pt x="832" y="-321" on="0"/>
        <pt x="811" y="-321" on="1"/>
        <pt x="744" y="-321" on="0"/>
        <pt x="667" y="-205" on="0"/>
        <pt x="661" y="-113" on="1"/>
        <pt x="570" y="-91" on="0"/>
        <pt x="527" y="-18" on="1"/>
        <pt x="490" y="46" on="0"/>
        <pt x="490" y="126" on="1"/>
        <pt x="490" y="139" on="0"/>
        <pt x="491" y="152" on="1"/>
        <pt x="437" y="59" on="0"/>
        <pt x="302" y="-53" on="0"/>
        <pt x="230" y="-53" on="1"/>
        <pt x="83" y="-53" on="0"/>
        <pt x="27" y="83" on="1"/>
        <pt x="-2" y="152" on="0"/>
        <pt x="-2" y="309" on="0"/>
        <pt x="18" y="392" on="1"/>
        <pt x="62" y="575" on="0"/>
        <pt x="290" y="818" on="0"/>
        <pt x="431" y="818" on="1"/>
        <pt x="439" y="818" on="0"/>
        <pt x="449" y="808" on="0"/>
        <pt x="450" y="797" on="1"/>
        <pt x="312" y="797" on="0"/>
        <pt x="202" y="642" on="1"/>
        <pt x="105" y="505" on="0"/>
        <pt x="75" y="323" on="1"/>
        <pt x="65" y="262" on="0"/>
        <pt x="65" y="210" on="1"/>
        <pt x="65" y="109" on="0"/>
        <pt x="147" y="-29" on="0"/>
        <pt x="231" y="-29" on="1"/>
        <pt x="343" y="-29" on="0"/>
        <pt x="443" y="123" on="1"/>
        <pt x="531" y="257" on="0"/>
        <pt x="563" y="425" on="1"/>
        <pt x="575" y="487" on="0"/>
        <pt x="575" y="534" on="1"/>
        <pt x="575" y="608" on="0"/>
        <pt x="546" y="646" on="1"/>
        <pt x="523" y="673" on="0"/>
        <pt x="489" y="673" on="1"/>
        <pt x="400" y="673" on="0"/>
        <pt x="341" y="552" on="1"/>
        <pt x="289" y="446" on="0"/>
      </contour>
      <contour>
        <pt x="946" y="301" on="1"/>
        <pt x="879" y="301" on="0"/>
        <pt x="764" y="176" on="0"/>
        <pt x="703" y="-4" on="0"/>
        <pt x="701" y="-93" on="1"/>
        <pt x="714" y="-96" on="0"/>
        <pt x="731" y="-96" on="1"/>
        <pt x="877" y="-96" on="0"/>
        <pt x="964" y="17" on="1"/>
        <pt x="1028" y="100" on="0"/>
        <pt x="1028" y="272" on="0"/>
        <pt x="978" y="294" on="1"/>
        <pt x="964" y="301" on="0"/>
      </contour>
      <contour>
        <pt x="818" y="579" on="1"/>
        <pt x="934" y="579" on="0"/>
        <pt x="1000" y="651" on="1"/>
        <pt x="1039" y="693" on="0"/>
        <pt x="1039" y="733" on="1"/>
        <pt x="1039" y="742" on="0"/>
        <pt x="1038" y="750" on="1"/>
        <pt x="1026" y="797" on="0"/>
        <pt x="966" y="798" on="1"/>
        <pt x="884" y="798" on="0"/>
        <pt x="757" y="670" on="0"/>
        <pt x="737" y="587" on="1"/>
        <pt x="774" y="579" on="0"/>
      </contour>
      <contour>
        <pt x="865" y="481" on="1"/>
        <pt x="803" y="481" on="0"/>
        <pt x="748" y="456" on="1"/>
        <pt x="775" y="414" on="0"/>
        <pt x="902" y="414" on="0"/>
        <pt x="920" y="442" on="1"/>
        <pt x="924" y="449" on="0"/>
        <pt x="924" y="454" on="1"/>
        <pt x="924" y="467" on="0"/>
        <pt x="889" y="481" on="0"/>
      </contour>
    </TTGlyph>
    <TTGlyph name="Oacute" xMin="48" yMin="-53" xMax="656" yMax="1027">
      <contour>
        <pt x="648" y="987" on="1"/>
        <pt x="618" y="950" on="0"/>
        <pt x="543" y="880" on="0"/>
        <pt x="522" y="880" on="0"/>
        <pt x="522" y="902" on="0"/>
        <pt x="569" y="975" on="0"/>
        <pt x="602" y="1012" on="1"/>
        <pt x="614" y="1027" on="0"/>
        <pt x="636" y="1027" on="0"/>
        <pt x="656" y="1018" on="0"/>
        <pt x="656" y="999" on="0"/>
      </contour>
      <contour>
        <pt x="339" y="340" on="1"/>
        <pt x="339" y="191" on="0"/>
        <pt x="422" y="191" on="1"/>
        <pt x="419" y="172" on="0"/>
        <pt x="389" y="172" on="1"/>
        <pt x="317" y="172" on="0"/>
        <pt x="292" y="263" on="1"/>
        <pt x="282" y="302" on="0"/>
        <pt x="282" y="409" on="0"/>
        <pt x="305" y="484" on="1"/>
        <pt x="347" y="619" on="0"/>
        <pt x="436" y="673" on="1"/>
        <pt x="480" y="700" on="0"/>
        <pt x="530" y="700" on="1"/>
        <pt x="626" y="700" on="0"/>
        <pt x="647" y="585" on="1"/>
        <pt x="653" y="553" on="0"/>
        <pt x="653" y="518" on="1"/>
        <pt x="653" y="419" on="0"/>
        <pt x="606" y="291" on="1"/>
        <pt x="542" y="114" on="0"/>
        <pt x="436" y="18" on="1"/>
        <pt x="359" y="-53" on="0"/>
        <pt x="280" y="-53" on="1"/>
        <pt x="133" y="-53" on="0"/>
        <pt x="77" y="83" on="1"/>
        <pt x="48" y="152" on="0"/>
        <pt x="48" y="309" on="0"/>
        <pt x="68" y="392" on="1"/>
        <pt x="112" y="575" on="0"/>
        <pt x="340" y="818" on="0"/>
        <pt x="481" y="818" on="1"/>
        <pt x="489" y="818" on="0"/>
        <pt x="499" y="808" on="0"/>
        <pt x="500" y="797" on="1"/>
        <pt x="362" y="797" on="0"/>
        <pt x="252" y="642" on="1"/>
        <pt x="155" y="505" on="0"/>
        <pt x="125" y="323" on="1"/>
        <pt x="115" y="262" on="0"/>
        <pt x="115" y="210" on="1"/>
        <pt x="115" y="109" on="0"/>
        <pt x="197" y="-29" on="0"/>
        <pt x="281" y="-29" on="1"/>
        <pt x="393" y="-29" on="0"/>
        <pt x="493" y="123" on="1"/>
        <pt x="581" y="257" on="0"/>
        <pt x="613" y="425" on="1"/>
        <pt x="625" y="487" on="0"/>
        <pt x="625" y="534" on="1"/>
        <pt x="625" y="608" on="0"/>
        <pt x="596" y="646" on="1"/>
        <pt x="573" y="673" on="0"/>
        <pt x="539" y="673" on="1"/>
        <pt x="450" y="673" on="0"/>
        <pt x="391" y="552" on="1"/>
        <pt x="339" y="446" on="0"/>
      </contour>
    </TTGlyph>
    <TTGlyph name="Ocircumflex" xMin="48" yMin="-53" xMax="653" yMax="984">
      <contour>
        <pt x="555" y="984" on="0"/>
        <pt x="568" y="984" on="0"/>
        <pt x="571" y="977" on="1"/>
        <pt x="621" y="878" on="1"/>
        <pt x="597" y="878" on="1"/>
        <pt x="559" y="942" on="1"/>
        <pt x="450" y="878" on="1"/>
        <pt x="425" y="878" on="1"/>
        <pt x="506" y="945" on="0"/>
      </contour>
      <contour>
        <pt x="339" y="340" on="1"/>
        <pt x="339" y="191" on="0"/>
        <pt x="422" y="191" on="1"/>
        <pt x="419" y="172" on="0"/>
        <pt x="389" y="172" on="1"/>
        <pt x="317" y="172" on="0"/>
        <pt x="292" y="263" on="1"/>
        <pt x="282" y="302" on="0"/>
        <pt x="282" y="409" on="0"/>
        <pt x="305" y="484" on="1"/>
        <pt x="347" y="619" on="0"/>
        <pt x="436" y="673" on="1"/>
        <pt x="480" y="700" on="0"/>
        <pt x="530" y="700" on="1"/>
        <pt x="626" y="700" on="0"/>
        <pt x="647" y="585" on="1"/>
        <pt x="653" y="553" on="0"/>
        <pt x="653" y="518" on="1"/>
        <pt x="653" y="419" on="0"/>
        <pt x="606" y="291" on="1"/>
        <pt x="542" y="114" on="0"/>
        <pt x="436" y="18" on="1"/>
        <pt x="359" y="-53" on="0"/>
        <pt x="280" y="-53" on="1"/>
        <pt x="133" y="-53" on="0"/>
        <pt x="77" y="83" on="1"/>
        <pt x="48" y="152" on="0"/>
        <pt x="48" y="309" on="0"/>
        <pt x="68" y="392" on="1"/>
        <pt x="112" y="575" on="0"/>
        <pt x="340" y="818" on="0"/>
        <pt x="481" y="818" on="1"/>
        <pt x="489" y="818" on="0"/>
        <pt x="499" y="808" on="0"/>
        <pt x="500" y="797" on="1"/>
        <pt x="362" y="797" on="0"/>
        <pt x="252" y="642" on="1"/>
        <pt x="155" y="505" on="0"/>
        <pt x="125" y="323" on="1"/>
        <pt x="115" y="262" on="0"/>
        <pt x="115" y="210" on="1"/>
        <pt x="115" y="109" on="0"/>
        <pt x="197" y="-29" on="0"/>
        <pt x="281" y="-29" on="1"/>
        <pt x="393" y="-29" on="0"/>
        <pt x="493" y="123" on="1"/>
        <pt x="581" y="257" on="0"/>
        <pt x="613" y="425" on="1"/>
        <pt x="625" y="487" on="0"/>
        <pt x="625" y="534" on="1"/>
        <pt x="625" y="608" on="0"/>
        <pt x="596" y="646" on="1"/>
        <pt x="573" y="673" on="0"/>
        <pt x="539" y="673" on="1"/>
        <pt x="450" y="673" on="0"/>
        <pt x="391" y="552" on="1"/>
        <pt x="339" y="446" on="0"/>
      </contour>
    </TTGlyph>
    <TTGlyph name="Odieresis" xMin="48" yMin="-53" xMax="653" yMax="969">
      <contour>
        <pt x="435" y="969" on="1"/>
        <pt x="458" y="969" on="0"/>
        <pt x="458" y="907" on="0"/>
        <pt x="428" y="888" on="1"/>
        <pt x="413" y="878" on="0"/>
        <pt x="402" y="878" on="1"/>
        <pt x="386" y="878" on="0"/>
        <pt x="383" y="888" on="1"/>
        <pt x="382" y="891" on="1"/>
        <pt x="391" y="891" on="0"/>
        <pt x="399" y="930" on="0"/>
        <pt x="416" y="969" on="0"/>
      </contour>
      <contour>
        <pt x="561" y="969" on="1"/>
        <pt x="584" y="969" on="0"/>
        <pt x="584" y="907" on="0"/>
        <pt x="554" y="888" on="1"/>
        <pt x="539" y="878" on="0"/>
        <pt x="528" y="878" on="1"/>
        <pt x="512" y="878" on="0"/>
        <pt x="509" y="888" on="1"/>
        <pt x="508" y="891" on="1"/>
        <pt x="517" y="891" on="0"/>
        <pt x="525" y="930" on="0"/>
        <pt x="542" y="969" on="0"/>
      </contour>
      <contour>
        <pt x="339" y="340" on="1"/>
        <pt x="339" y="191" on="0"/>
        <pt x="422" y="191" on="1"/>
        <pt x="419" y="172" on="0"/>
        <pt x="389" y="172" on="1"/>
        <pt x="317" y="172" on="0"/>
        <pt x="292" y="263" on="1"/>
        <pt x="282" y="302" on="0"/>
        <pt x="282" y="409" on="0"/>
        <pt x="305" y="484" on="1"/>
        <pt x="347" y="619" on="0"/>
        <pt x="436" y="673" on="1"/>
        <pt x="480" y="700" on="0"/>
        <pt x="530" y="700" on="1"/>
        <pt x="626" y="700" on="0"/>
        <pt x="647" y="585" on="1"/>
        <pt x="653" y="553" on="0"/>
        <pt x="653" y="518" on="1"/>
        <pt x="653" y="419" on="0"/>
        <pt x="606" y="291" on="1"/>
        <pt x="542" y="114" on="0"/>
        <pt x="436" y="18" on="1"/>
        <pt x="359" y="-53" on="0"/>
        <pt x="280" y="-53" on="1"/>
        <pt x="133" y="-53" on="0"/>
        <pt x="77" y="83" on="1"/>
        <pt x="48" y="152" on="0"/>
        <pt x="48" y="309" on="0"/>
        <pt x="68" y="392" on="1"/>
        <pt x="112" y="575" on="0"/>
        <pt x="340" y="818" on="0"/>
        <pt x="481" y="818" on="1"/>
        <pt x="489" y="818" on="0"/>
        <pt x="499" y="808" on="0"/>
        <pt x="500" y="797" on="1"/>
        <pt x="362" y="797" on="0"/>
        <pt x="252" y="642" on="1"/>
        <pt x="155" y="505" on="0"/>
        <pt x="125" y="323" on="1"/>
        <pt x="115" y="262" on="0"/>
        <pt x="115" y="210" on="1"/>
        <pt x="115" y="109" on="0"/>
        <pt x="197" y="-29" on="0"/>
        <pt x="281" y="-29" on="1"/>
        <pt x="393" y="-29" on="0"/>
        <pt x="493" y="123" on="1"/>
        <pt x="581" y="257" on="0"/>
        <pt x="613" y="425" on="1"/>
        <pt x="625" y="487" on="0"/>
        <pt x="625" y="534" on="1"/>
        <pt x="625" y="608" on="0"/>
        <pt x="596" y="646" on="1"/>
        <pt x="573" y="673" on="0"/>
        <pt x="539" y="673" on="1"/>
        <pt x="450" y="673" on="0"/>
        <pt x="391" y="552" on="1"/>
        <pt x="339" y="446" on="0"/>
      </contour>
    </TTGlyph>
    <TTGlyph name="Ograve" xMin="48" yMin="-53" xMax="653" yMax="1016">
      <contour>
        <pt x="461" y="1007" on="1"/>
        <pt x="497" y="974" on="0"/>
        <pt x="562" y="895" on="0"/>
        <pt x="562" y="876" on="0"/>
        <pt x="541" y="876" on="0"/>
        <pt x="471" y="926" on="0"/>
        <pt x="434" y="962" on="1"/>
        <pt x="420" y="976" on="0"/>
        <pt x="420" y="996" on="0"/>
        <pt x="432" y="1016" on="0"/>
        <pt x="451" y="1016" on="0"/>
      </contour>
      <contour>
        <pt x="339" y="340" on="1"/>
        <pt x="339" y="191" on="0"/>
        <pt x="422" y="191" on="1"/>
        <pt x="419" y="172" on="0"/>
        <pt x="389" y="172" on="1"/>
        <pt x="317" y="172" on="0"/>
        <pt x="292" y="263" on="1"/>
        <pt x="282" y="302" on="0"/>
        <pt x="282" y="409" on="0"/>
        <pt x="305" y="484" on="1"/>
        <pt x="347" y="619" on="0"/>
        <pt x="436" y="673" on="1"/>
        <pt x="480" y="700" on="0"/>
        <pt x="530" y="700" on="1"/>
        <pt x="626" y="700" on="0"/>
        <pt x="647" y="585" on="1"/>
        <pt x="653" y="553" on="0"/>
        <pt x="653" y="518" on="1"/>
        <pt x="653" y="419" on="0"/>
        <pt x="606" y="291" on="1"/>
        <pt x="542" y="114" on="0"/>
        <pt x="436" y="18" on="1"/>
        <pt x="359" y="-53" on="0"/>
        <pt x="280" y="-53" on="1"/>
        <pt x="133" y="-53" on="0"/>
        <pt x="77" y="83" on="1"/>
        <pt x="48" y="152" on="0"/>
        <pt x="48" y="309" on="0"/>
        <pt x="68" y="392" on="1"/>
        <pt x="112" y="575" on="0"/>
        <pt x="340" y="818" on="0"/>
        <pt x="481" y="818" on="1"/>
        <pt x="489" y="818" on="0"/>
        <pt x="499" y="808" on="0"/>
        <pt x="500" y="797" on="1"/>
        <pt x="362" y="797" on="0"/>
        <pt x="252" y="642" on="1"/>
        <pt x="155" y="505" on="0"/>
        <pt x="125" y="323" on="1"/>
        <pt x="115" y="262" on="0"/>
        <pt x="115" y="210" on="1"/>
        <pt x="115" y="109" on="0"/>
        <pt x="197" y="-29" on="0"/>
        <pt x="281" y="-29" on="1"/>
        <pt x="393" y="-29" on="0"/>
        <pt x="493" y="123" on="1"/>
        <pt x="581" y="257" on="0"/>
        <pt x="613" y="425" on="1"/>
        <pt x="625" y="487" on="0"/>
        <pt x="625" y="534" on="1"/>
        <pt x="625" y="608" on="0"/>
        <pt x="596" y="646" on="1"/>
        <pt x="573" y="673" on="0"/>
        <pt x="539" y="673" on="1"/>
        <pt x="450" y="673" on="0"/>
        <pt x="391" y="552" on="1"/>
        <pt x="339" y="446" on="0"/>
      </contour>
    </TTGlyph>
    <TTGlyph name="Oslash" xMin="-1" yMin="-164" xMax="602" yMax="950">
      <contour>
        <pt x="489" y="697" on="1"/>
        <pt x="602" y="673" on="0"/>
        <pt x="602" y="503" on="1"/>
        <pt x="602" y="382" on="0"/>
        <pt x="464" y="70" on="0"/>
        <pt x="357" y="-7" on="1"/>
        <pt x="298" y="-49" on="0"/>
        <pt x="240" y="-52" on="1"/>
        <pt x="215" y="-127" on="0"/>
        <pt x="204" y="-164" on="0"/>
        <pt x="196" y="-164" on="0"/>
        <pt x="185" y="-157" on="0"/>
        <pt x="185" y="-134" on="0"/>
        <pt x="189" y="-121" on="1"/>
        <pt x="210" y="-52" on="1"/>
        <pt x="72" y="-42" on="0"/>
        <pt x="23" y="95" on="1"/>
        <pt x="-1" y="161" on="0"/>
        <pt x="-1" y="317" on="0"/>
        <pt x="23" y="408" on="1"/>
        <pt x="71" y="591" on="0"/>
        <pt x="297" y="817" on="0"/>
        <pt x="431" y="818" on="1"/>
        <pt x="439" y="818" on="0"/>
        <pt x="449" y="808" on="0"/>
        <pt x="450" y="797" on="1"/>
        <pt x="312" y="797" on="0"/>
        <pt x="202" y="642" on="1"/>
        <pt x="105" y="505" on="0"/>
        <pt x="75" y="323" on="1"/>
        <pt x="66" y="262" on="0"/>
        <pt x="66" y="211" on="1"/>
        <pt x="66" y="110" on="0"/>
        <pt x="144" y="-22" on="0"/>
        <pt x="218" y="-28" on="1"/>
        <pt x="266" y="122" on="0"/>
        <pt x="530" y="936" on="0"/>
        <pt x="534" y="950" on="0"/>
        <pt x="539" y="950" on="1"/>
        <pt x="562" y="950" on="0"/>
        <pt x="562" y="924" on="1"/>
        <pt x="562" y="912" on="0"/>
        <pt x="557" y="898" on="1"/>
      </contour>
      <contour>
        <pt x="447" y="119" on="0"/>
        <pt x="523" y="310" on="0"/>
        <pt x="551" y="456" on="0"/>
        <pt x="551" y="540" on="0"/>
        <pt x="543" y="574" on="1"/>
        <pt x="526" y="646" on="0"/>
        <pt x="476" y="658" on="1"/>
        <pt x="277" y="61" on="0"/>
        <pt x="248" y="-27" on="1"/>
        <pt x="318" y="-19" on="0"/>
      </contour>
    </TTGlyph>
    <TTGlyph name="Otilde" xMin="48" yMin="-53" xMax="662" yMax="949">
      <contour>
        <pt x="476" y="920" on="1"/>
        <pt x="451" y="920" on="0"/>
        <pt x="427" y="878" on="1"/>
        <pt x="404" y="878" on="1"/>
        <pt x="406" y="884" on="0"/>
        <pt x="427" y="915" on="0"/>
        <pt x="437" y="924" on="1"/>
        <pt x="463" y="949" on="0"/>
        <pt x="498" y="949" on="1"/>
        <pt x="517" y="949" on="0"/>
        <pt x="573" y="910" on="0"/>
        <pt x="606" y="910" on="0"/>
        <pt x="630" y="928" on="0"/>
        <pt x="640" y="946" on="1"/>
        <pt x="662" y="946" on="1"/>
        <pt x="659" y="938" on="0"/>
        <pt x="646" y="914" on="0"/>
        <pt x="600" y="875" on="0"/>
        <pt x="551" y="875" on="0"/>
        <pt x="491" y="920" on="0"/>
      </contour>
      <contour>
        <pt x="339" y="340" on="1"/>
        <pt x="339" y="191" on="0"/>
        <pt x="422" y="191" on="1"/>
        <pt x="419" y="172" on="0"/>
        <pt x="389" y="172" on="1"/>
        <pt x="317" y="172" on="0"/>
        <pt x="292" y="263" on="1"/>
        <pt x="282" y="302" on="0"/>
        <pt x="282" y="409" on="0"/>
        <pt x="305" y="484" on="1"/>
        <pt x="347" y="619" on="0"/>
        <pt x="436" y="673" on="1"/>
        <pt x="480" y="700" on="0"/>
        <pt x="530" y="700" on="1"/>
        <pt x="626" y="700" on="0"/>
        <pt x="647" y="585" on="1"/>
        <pt x="653" y="553" on="0"/>
        <pt x="653" y="518" on="1"/>
        <pt x="653" y="419" on="0"/>
        <pt x="606" y="291" on="1"/>
        <pt x="542" y="114" on="0"/>
        <pt x="436" y="18" on="1"/>
        <pt x="359" y="-53" on="0"/>
        <pt x="280" y="-53" on="1"/>
        <pt x="133" y="-53" on="0"/>
        <pt x="77" y="83" on="1"/>
        <pt x="48" y="152" on="0"/>
        <pt x="48" y="309" on="0"/>
        <pt x="68" y="392" on="1"/>
        <pt x="112" y="575" on="0"/>
        <pt x="340" y="818" on="0"/>
        <pt x="481" y="818" on="1"/>
        <pt x="489" y="818" on="0"/>
        <pt x="499" y="808" on="0"/>
        <pt x="500" y="797" on="1"/>
        <pt x="362" y="797" on="0"/>
        <pt x="252" y="642" on="1"/>
        <pt x="155" y="505" on="0"/>
        <pt x="125" y="323" on="1"/>
        <pt x="115" y="262" on="0"/>
        <pt x="115" y="210" on="1"/>
        <pt x="115" y="109" on="0"/>
        <pt x="197" y="-29" on="0"/>
        <pt x="281" y="-29" on="1"/>
        <pt x="393" y="-29" on="0"/>
        <pt x="493" y="123" on="1"/>
        <pt x="581" y="257" on="0"/>
        <pt x="613" y="425" on="1"/>
        <pt x="625" y="487" on="0"/>
        <pt x="625" y="534" on="1"/>
        <pt x="625" y="608" on="0"/>
        <pt x="596" y="646" on="1"/>
        <pt x="573" y="673" on="0"/>
        <pt x="539" y="673" on="1"/>
        <pt x="450" y="673" on="0"/>
        <pt x="391" y="552" on="1"/>
        <pt x="339" y="446" on="0"/>
      </contour>
    </TTGlyph>
</ttFont>
